<svg width="616" height="180" xmlns="http://www.w3.org/2000/svg" xml:space="preserve" version="1.1">
 <defs id="defs6">
  <clipPath id="clipPath22">
   <path id="path20" d="m-197.99909,636.20735l1200.32,0l0,-459.696l-1200.32,0l0,459.696z"/>
  </clipPath>
 </defs>
 <g>
  <g transform="matrix(0.609426 0 0 -0.609426 57.987 339.954)" id="g10">
   <g id="g12">
    <path fill="#4f4f4f" id="path14" d="m290.60281,427.88295l-54.593,0l0,-9.799l51.157,0l0,-15.27l-51.157,0l0,-25.07l-15.27,0l0,65.409l69.863,0l0,-15.27z"/>
   </g>
   <g id="g16">
    <g clip-path="url(#clipPath22)" id="g18">
     <g id="g24">
      <path fill="#4f4f4f" id="path26" d="m387.46349,398.46695l0,23.964c0,3.635 -2.036,5.452 -6.107,5.452l-38.432,0c-4.072,0 -6.108,-1.817 -6.108,-5.452l0,-23.964c0,-3.635 2.036,-5.452 6.108,-5.452l38.432,0c4.071,0 6.107,1.817 6.107,5.452m15.271,-0.02c0,-5.929 -2.08,-10.86 -6.236,-14.797c-4.157,-3.937 -9.206,-5.906 -15.142,-5.906l-38.432,0c-5.94,0 -10.987,1.969 -15.144,5.906c-4.157,3.937 -6.235,8.868 -6.235,14.797l0,24.003c0,5.928 2.078,10.861 6.235,14.798c4.157,3.937 9.204,5.906 15.144,5.906l38.432,0c5.936,0 10.985,-1.969 15.142,-5.906c4.156,-3.937 6.236,-8.87 6.236,-14.798l0,-24.003z"/>
     </g>
     <g id="g28">
      <path fill="#4f4f4f" id="path30" d="m511.11223,377.74436l-15.271,0l0,39.831l-27.232,-38.813l-27.232,38.813l0,-39.831l-15.271,0l0,65.409l16.034,0l26.469,-37.795l26.597,37.795l15.906,0l0,-65.409z"/>
     </g>
     <g id="g32">
      <path fill="#4f4f4f" id="path34" d="m600.4016,398.46695l0,23.964c0,3.635 -2.036,5.452 -6.107,5.452l-38.432,0c-4.072,0 -6.108,-1.817 -6.108,-5.452l0,-23.964c0,-3.635 2.036,-5.452 6.108,-5.452l38.432,0c4.071,0 6.107,1.817 6.107,5.452m15.271,-0.02c0,-5.929 -2.08,-10.86 -6.236,-14.797c-4.157,-3.937 -9.206,-5.906 -15.142,-5.906l-38.432,0c-5.94,0 -10.987,1.969 -15.144,5.906c-4.157,3.937 -6.235,8.868 -6.235,14.797l0,24.003c0,5.928 2.078,10.861 6.235,14.798c4.157,3.937 9.204,5.906 15.144,5.906l38.432,0c5.936,0 10.985,-1.969 15.142,-5.906c4.156,-3.937 6.236,-8.87 6.236,-14.798l0,-24.003z"/>
     </g>
     <g id="g36">
      <path fill="#55c9be" id="path38" d="m713.47533,398.44695c0,-5.929 -2.059,-10.86 -6.172,-14.797c-4.116,-3.937 -9.142,-5.906 -15.08,-5.906l-50.52,0l0,41.231l15.27,0l0,-25.96l35.359,0c3.914,0 5.872,1.817 5.872,5.452l0,23.964c0,3.635 -1.957,5.452 -5.868,5.452l-50.633,0l0,15.271l50.52,0c5.938,0 10.964,-1.969 15.08,-5.906c4.113,-3.937 6.172,-8.87 6.172,-14.798l0,-24.003z"/>
     </g>
     <g id="g40">
      <path fill="#55c9be" id="path42" d="m817.40148,427.88295l-54.593,0l0,-9.799l51.03,0l0,-15.27l-51.03,0l0,-9.799l54.466,0l0,-15.271l-69.736,0l0,65.409l69.863,0l0,-15.27z"/>
     </g>
     <g id="g44">
      <path fill="#55c9be" id="path46" d="m912.10821,377.74436l-19.853,0l-17.56,20.997l-17.562,-20.997l-19.851,0l27.487,33.15l-26.724,32.259l19.852,0l16.798,-20.361l16.798,20.361l19.851,0l-26.723,-32.259l27.487,-33.15z"/>
     </g>
     <g id="g48">
      <path fill="#4f4f4f" id="path50" d="m840.55096,335.75696c-1.187,-0.594 -3.857,-1.533 -7.32,-1.533c-7.714,0 -12.809,5.489 -12.809,13.748c0,8.309 5.49,14.391 13.799,14.391c3.017,0 5.44,-0.889 6.478,-1.433l-1.038,-3.314c-1.137,0.643 -2.918,1.384 -5.539,1.384c-6.232,0 -9.496,-4.994 -9.496,-10.781c0,-6.528 3.907,-10.632 9.348,-10.632c2.671,0 4.5,0.741 5.836,1.335l0.741,-3.165z"/>
     </g>
     <g id="g52">
      <path fill="#4f4f4f" id="path54" d="m856.77032,359.14865c-5.836,0 -8.259,-5.736 -8.259,-10.93c0,-5.983 3.314,-10.83 8.16,-10.83c4.896,0 8.308,4.847 8.308,10.93c0,4.797 -2.324,10.83 -8.209,10.83m12.413,-10.682c0,-10.04 -6.627,-14.292 -12.611,-14.292c-6.923,0 -12.265,5.192 -12.265,13.896c0,9.199 5.737,14.293 12.611,14.293c7.369,0 12.265,-5.638 12.265,-13.897"/>
     </g>
     <g id="g56">
      <path fill="#4f4f4f" id="path58" d="m912.10821,334.76755l-4.056,0l0,15.579c0,5.242 -1.879,8.604 -5.935,8.604c-3.313,0 -6.33,-3.115 -6.33,-7.219l0,-16.964l-4.055,0l0,16.617c0,4.302 -1.83,7.566 -5.638,7.566c-3.511,0 -6.627,-3.461 -6.627,-7.665l0,-16.518l-4.055,0l0,20.03c0,2.769 -0.099,4.748 -0.198,6.973l3.61,0l0.248,-4.353l0.148,0c1.484,2.622 3.956,4.946 8.209,4.946c3.511,0 6.232,-2.176 7.369,-5.391l0.099,0c1.781,3.215 4.501,5.391 8.655,5.391c3.313,0 8.556,-2.127 8.556,-11.375l0,-16.221z"/>
     </g>
     <g id="g60">
      <path fill="#4f4f4f" id="path62" d="m815.07159,348.26886c0,-3.824 -3.1,-6.923 -6.923,-6.923c-3.824,0 -6.924,3.099 -6.924,6.923c0,3.824 3.1,6.923 6.924,6.923c3.823,0 6.923,-3.099 6.923,-6.923"/>
     </g>
     <g id="g64">
      <path fill="#4f4f4f" id="path66" d="m85.39339,417.00646l-3.801,-14.16l-1.946,-7.265l-5.387,-20.11l-7.356,7.356c-15.251,-15.251 -29.343,-29.254 -45.932,-45.933c-1.226,3.88 -3.015,11.382 -1.496,20.616c1.552,9.447 5.196,16.825 10.493,22.122c8.177,8.177 14.576,14.588 20.065,20.065l-6.175,6.175l16.837,4.51l10.561,2.834l14.137,3.79z"/>
     </g>
     <g id="g68">
      <path fill="#55c9be" id="path70" d="m52.88171,555.90467l-145.83,-145.82c20.25,-19.51 40.49,-39 60.74,-58.49c-1.15,4.89 -2.15,10.7 -2.63,17.24c-0.45,6.16 -0.35,11.71 0,16.5l-25.12,25.12c37.61,37.48 75.23,74.98 112.84,112.47c37.24,-37.37 74.49,-74.73 111.73,-112.1c-37.62,-37.73 -75.23,-75.48 -112.85,-113.21c-8.69,7.35 -19.17,17.42 -29.62,30.74c-2.78,3.55 -4.22,5.39 -5.99,8.24c-12.72,20.5 -10.88,41.68 -10.5,45.37c1.14,11.32 4.99,22.57 11.33,32.06c6.58,9.84 15.46,17.57 24.1,25.78l0.83,0.82c-1.43,2.97 -3.26,5.95 -5.81,8.56c-3.8,3.89 -7.45,5.93 -11.66,7.75l-0.25,-0.24c-22.62,-21.33 -33.73,-30.91 -40.29,-61.99c-0.96,-4.6 -3.75,-19.51 0,-38.24c4.69,-23.44 16.91,-39.32 23.62,-46.86c15.25,-14.87 30.49,-29.74 45.74,-44.61c47.98,48.49 95.97,96.97 143.97,145.46c-48.12,48.48 -96.23,96.97 -144.35,145.45m5.11,-90.18c-2.76,0 -5,2.24 -5,5c0,2.76 2.24,5 5,5c2.76,0 5,-2.24 5,-5c0,-2.76 -2.24,-5 -5,-5m-12.57,-8.43c-1.12,0 -2.04,0.92 -2.04,2.04c0,1.13 0.92,2.04 2.04,2.04c1.13,0 2.05,-0.91 2.05,-2.04c0,-1.12 -0.92,-2.04 -2.05,-2.04m31.63,28.79c-8.18,-0.08 -16.4,-1.71 -23.81,-5.21c-3.11,-1.47 -6.07,-3.27 -8.79,-5.38c-3.75,-2.91 -7.05,-6.4 -9.63,-10.38c0.03,0.8 0.07,1.6 0.1,2.4c-5.68,-1.56 -11.36,-3.11 -17.04,-4.67c6.42,-2.47 12.98,-5.02 18.18,-9.52c4.31,-3.72 7.44,-8.6 9.73,-13.77c0.58,-1.31 1.11,-2.64 1.59,-3.99c0.24,-0.64 0.46,-1.29 0.67,-1.94c0.22,-0.65 0.3,-1.5 0.85,-0.72c0.39,0.56 0.46,1.75 0.64,2.42c0.24,0.86 0.47,1.73 0.7,2.6c0.45,1.67 0.9,3.34 1.34,5.01c0.17,0.62 1.54,6.81 1.83,6.81c-0.74,-0.01 -1.48,-0.01 -2.22,-0.02c13.48,7.41 23.29,21.19 25.86,36.36"/>
     </g>
    </g>
   </g>
  </g>
 </g>
</svg>
