<svg width="1033" height="1033" viewBox="0 0 1033 1033" fill="none" xmlns="http://www.w3.org/2000/svg">
<g clip-path="url(#clip0_25_309)">
<path fill-rule="evenodd" clip-rule="evenodd" d="M52.465 318.772C52.465 480.881 52.465 552.146 52.465 714.303C52.465 756.354 74.9787 797.613 112.192 819.011L454.507 1016.66C491.348 1038.48 538.192 1038.48 574.985 1016.66L917.303 819.011C954.515 797.613 977.031 756.309 977.031 714.303C977.031 552.146 977.031 480.93 977.031 318.772C977.031 276.395 954.144 235.228 917.303 214.063L575.033 16.4136C538.192 -5.40269 491.348 -5.40269 454.555 16.4136L112.192 214.063C75.3511 235.228 52.465 276.395 52.465 318.772Z" fill="#6B6EFF"/>
<path opacity="0.55" fill-rule="evenodd" clip-rule="evenodd" d="M74.3199 249.05C84.0886 234.909 96.8804 222.768 112.138 213.977L454.5 16.3739C472.92 5.44246 493.855 0 514.741 0C535.671 0 556.557 5.44246 574.977 16.3739L917.296 214.023C932.553 222.815 945.344 234.909 955.113 249.097C939.808 271.239 914.504 286.961 892.827 299.381C786.908 360.504 680.618 420.79 574.933 481.818C556.513 492.705 535.578 498.192 514.692 498.192C493.762 498.192 472.876 492.749 454.455 481.818C348.861 420.742 242.571 360.458 136.652 299.335C114.929 286.915 89.624 271.192 74.3199 249.05Z" fill="white"/>
<path opacity="0.2" fill-rule="evenodd" clip-rule="evenodd" d="M454.5 481.777C348.861 420.746 242.571 360.462 136.652 299.339C114.929 286.919 89.6236 271.196 74.3199 249.055C60.0391 270.313 52.6895 293.059 52.457 318.737C52.457 480.845 52.457 552.11 52.457 714.267C52.6895 739.85 60.0391 762.737 74.3199 783.902C89.6236 761.809 114.929 746.04 136.606 733.62C242.524 672.495 348.815 612.21 454.5 551.182C472.69 540.437 493.294 534.945 513.95 534.808C535.114 534.666 556.371 540.11 575.026 551.182C680.711 612.21 787.001 672.495 892.92 733.62C914.596 746.04 939.949 761.761 955.206 783.902C969.813 762.225 976.835 739.434 977.069 714.267C977.069 552.11 977.069 480.894 977.069 318.737C976.835 293.571 969.765 270.685 955.206 249.101C939.901 271.196 914.596 286.966 892.92 299.386C787.001 360.509 680.711 420.794 575.026 481.826C556.743 492.664 535.949 498.104 515.156 498.197C494.133 498.197 473.062 492.757 454.5 481.777Z" fill="white"/>
<path opacity="0.3" fill-rule="evenodd" clip-rule="evenodd" d="M266.203 622.806C266.203 535.635 266.203 497.305 266.203 410.133C266.435 387.247 278.111 365.431 298.299 353.848L482.367 247.557C502.183 235.835 527.347 235.835 547.163 247.557L731.231 353.848C751.463 365.477 763.093 387.247 763.327 410.133C763.327 497.305 763.327 535.635 763.327 622.806C763.093 645.738 751.326 667.556 731.231 679.092L547.163 785.382C527.347 797.104 502.183 797.104 482.367 785.382L298.299 679.137C278.204 667.556 266.435 645.786 266.203 622.806Z" fill="white"/>
<path opacity="0.2" d="M516.5 628.32C584.138 628.32 638.969 573.488 638.969 505.851C638.969 438.213 584.138 383.381 516.5 383.381C448.862 383.381 394.031 438.213 394.031 505.851C394.031 573.488 448.862 628.32 516.5 628.32Z" fill="white"/>
</g>
<defs>
<clipPath id="clip0_25_309">
<rect width="1033" height="1033" fill="white"/>
</clipPath>
</defs>
</svg>
