<svg width="69" height="21" viewBox="0 0 69 21" fill="none" xmlns="http://www.w3.org/2000/svg">
<path d="M2.80273 6.70898L2.96875 14.873H0V0.00976562H3.87695L5.30273 7.22656L6.72852 0.00976562H10.5762V14.873H7.60742L7.76367 6.88477L6.57227 13.3496H4.0332L2.80273 6.70898Z" fill="#36A849"/>
<path d="M12.5391 14.873V0.00976562H19.375V3.0957H15.7031V5.83008H18.7012V8.91602H15.7031V11.7969H19.375V14.873H12.5391Z" fill="#36A849"/>
<path d="M25.7129 3.0957V14.873H22.5293V3.0957H20.3125V0.00976562H27.9297V3.0957H25.7129Z" fill="#36A849"/>
<path d="M30.3809 0H34.4922L36.5234 14.873H33.5234L33.3496 12.9297H31.5137L31.2988 14.873H28.1152L30.3809 0ZM31.8457 10.0293H33.0273L32.4316 4.74609L31.8457 10.0293Z" fill="#36A849"/>
<path d="M41.4805 16.3086C41.4805 17.5586 41.168 18.5026 40.543 19.1406C39.918 19.7786 38.9382 20.0977 37.6035 20.0977C36.9069 20.0977 36.3112 20.0195 35.8164 19.8633C35.3281 19.707 34.9277 19.4694 34.6152 19.1504C34.3027 18.8249 34.0716 18.4212 33.9219 17.9395C33.7786 17.4512 33.5234 15.4146 33.5234 14.8828H36.5234C36.5234 15.1302 36.9134 16.6536 37.0176 16.7969C37.1217 16.9401 37.304 17.0117 37.5645 17.0117C37.8639 17.0117 38.0625 16.9434 38.1602 16.8066C38.2578 16.6699 38.3066 16.4909 38.3066 16.2695V15.8203C38.3066 15.6576 38.3001 15.5078 38.2871 15.3711C38.2806 15.2279 38.2546 15.0944 38.209 14.9707C38.1634 14.847 38.0951 14.7298 38.0039 14.6191C37.9128 14.502 37.7858 14.388 37.623 14.2773L36.2461 13.3105C35.6862 12.9199 35.2467 12.5651 34.9277 12.2461C34.6087 11.9206 34.3711 11.5918 34.2148 11.2598C34.0586 10.9277 33.9609 10.5762 33.9219 10.2051C33.8828 9.82747 33.8633 9.39779 33.8633 8.91602V8.59375C33.8633 7.89062 33.9479 7.29492 34.1172 6.80664C34.2865 6.31836 34.5339 5.92448 34.8594 5.625C35.1849 5.32552 35.5853 5.11068 36.0605 4.98047C36.5358 4.84375 37.0827 4.77539 37.7012 4.77539C38.3327 4.77539 38.8796 4.84701 39.3418 4.99023C39.8105 5.12695 40.1979 5.34831 40.5039 5.6543C40.8099 5.95378 41.0378 6.34766 41.1875 6.83594C41.3438 7.31771 41.4219 7.90365 41.4219 8.59375V9.98047H38.2676V8.59375C38.2676 8.34635 38.2285 8.16081 38.1504 8.03711C38.0723 7.91341 37.9095 7.85156 37.6621 7.85156C37.4342 7.85156 37.2715 7.91341 37.1738 8.03711C37.0762 8.16081 37.0273 8.34635 37.0273 8.59375V8.83789C37.0273 8.96159 37.0371 9.09505 37.0566 9.23828C37.0762 9.375 37.1087 9.51172 37.1543 9.64844C37.2064 9.78516 37.2747 9.91536 37.3594 10.0391C37.444 10.1562 37.5514 10.2539 37.6816 10.332L38.8438 11.0352C39.3776 11.3607 39.8138 11.6927 40.1523 12.0312C40.4909 12.3633 40.7546 12.7148 40.9434 13.0859C41.1387 13.457 41.2721 13.8509 41.3438 14.2676C41.4219 14.6777 41.4674 15.127 41.4805 15.6152V16.3086Z" fill="#305EAB"/>
<path d="M43.1406 19.873V5.00977H46.3047V19.873H43.1406Z" fill="#305EAB"/>
<path d="M51.0605 11.709L51.2266 19.873H48.2578V5.00977H52.1348L53.5605 12.2266L54.9863 5.00977H58.834V19.873H55.8652L56.0215 11.8848L54.8301 18.3496H52.291L51.0605 11.709Z" fill="#305EAB"/>
<path d="M68.2773 16.3086C68.2773 17.5586 67.9648 18.5026 67.3398 19.1406C66.7148 19.7786 65.735 20.0977 64.4004 20.0977C63.7038 20.0977 63.1081 20.0195 62.6133 19.8633C62.125 19.707 61.7246 19.4694 61.4121 19.1504C61.0996 18.8249 60.8685 18.4212 60.7188 17.9395C60.5755 17.4512 60.5039 16.875 60.5039 16.2109V14.8828H63.6582V16.2109C63.6582 16.4583 63.7103 16.6536 63.8145 16.7969C63.9186 16.9401 64.1009 17.0117 64.3613 17.0117C64.6608 17.0117 64.8594 16.9434 64.957 16.8066C65.0547 16.6699 65.1035 16.4909 65.1035 16.2695V15.8203C65.1035 15.6576 65.097 15.5078 65.084 15.3711C65.0775 15.2279 65.0514 15.0944 65.0059 14.9707C64.9603 14.847 64.8919 14.7298 64.8008 14.6191C64.7096 14.502 64.5827 14.388 64.4199 14.2773L63.043 13.3105C62.4831 12.9199 62.0436 12.5651 61.7246 12.2461C61.4056 11.9206 61.168 11.5918 61.0117 11.2598C60.8555 10.9277 60.7578 10.5762 60.7188 10.2051C60.6797 9.82747 60.6602 9.39779 60.6602 8.91602V8.59375C60.6602 7.89062 60.7448 7.29492 60.9141 6.80664C61.0833 6.31836 61.3307 5.92448 61.6562 5.625C61.9818 5.32552 62.3822 5.11068 62.8574 4.98047C63.3327 4.84375 63.8796 4.77539 64.498 4.77539C65.1296 4.77539 65.6764 4.84701 66.1387 4.99023C66.6074 5.12695 66.9948 5.34831 67.3008 5.6543C67.6068 5.95378 67.8346 6.34766 67.9844 6.83594C68.1406 7.31771 68.2188 7.90365 68.2188 8.59375V9.98047H65.0645V8.59375C65.0645 8.34635 65.0254 8.16081 64.9473 8.03711C64.8691 7.91341 64.7064 7.85156 64.459 7.85156C64.2311 7.85156 64.0684 7.91341 63.9707 8.03711C63.873 8.16081 63.8242 8.34635 63.8242 8.59375V8.83789C63.8242 8.96159 63.834 9.09505 63.8535 9.23828C63.873 9.375 63.9056 9.51172 63.9512 9.64844C64.0033 9.78516 64.0716 9.91536 64.1562 10.0391C64.2409 10.1562 64.3483 10.2539 64.4785 10.332L65.6406 11.0352C66.1745 11.3607 66.6107 11.6927 66.9492 12.0312C67.2878 12.3633 67.5514 12.7148 67.7402 13.0859C67.9355 13.457 68.069 13.8509 68.1406 14.2676C68.2188 14.6777 68.2643 15.127 68.2773 15.6152V16.3086Z" fill="#305EAB"/>
</svg>
