<svg width="80" height="80" fill="none" xmlns="http://www.w3.org/2000/svg"><rect width="80" height="80" rx="40" fill="url(#a)"/><rect x="16.497" y="16.5" width="47" height="47" rx="23.5" fill="#001A30"/><path d="M39.276 6.254a1.049 1.049 0 011.425.043l.394.393c12.628 12.575 12.431 32.903-.4 45.277a1.042 1.042 0 01-1.4.039c-13.978-12.083-13.93-33.596-.019-45.752z" fill="url(#b)"/><path d="M39.957 54.934l.048-.048.048.048a35.16 35.16 0 009.138 6.489 26.019 26.019 0 01-8.948 12.39l-.238.18-.238-.18a26.02 26.02 0 01-8.948-12.39 35.264 35.264 0 005.513-3.375 34.985 34.985 0 003.625-3.114z" fill="url(#c)"/><path d="M26.39 36.501c.397-.498 1.203-.315 1.34.304l.192.87c1.307 5.925 5.204 11.534 9.92 15.43a.678.678 0 01-.002 1.05l-1.605 1.318a40.976 40.976 0 01-12.023 6.844l-1.832.665a1.021 1.021 0 01-1.37-.857l-.374-4.242c-.668-7.577.984-15.401 5.753-21.382z" fill="url(#d)"/><path d="M52.998 36.78c-.398-.497-1.204-.315-1.34.304l-.193.87a27.294 27.294 0 01-9.29 15.152.678.678 0 00.002 1.05l1.605 1.318a40.98 40.98 0 0012.022 6.843l1.832.665a1.02 1.02 0 001.37-.856l.374-4.243c.668-7.577-1.613-15.121-6.382-21.102z" fill="url(#e)"/><defs><linearGradient id="a" x1="22.335" y1="-33.333" x2="88.272" y2="15.669" gradientUnits="userSpaceOnUse"><stop stop-color="#187BD6"/><stop offset="1" stop-color="#5E3BDD"/></linearGradient><linearGradient id="b" x1="31.081" y1="3.851" x2="62.387" y2="27.425" gradientUnits="userSpaceOnUse"><stop offset=".073" stop-color="#fff"/><stop offset=".354" stop-color="#FDFDFD"/><stop offset=".823" stop-color="#E3E3E3"/><stop offset="1" stop-color="#CACACB"/></linearGradient><linearGradient id="c" x1="36.67" y1="52.221" x2="37.453" y2="72.191" gradientUnits="userSpaceOnUse"><stop stop-color="#F81B00"/><stop offset="1" stop-color="#FF844B"/></linearGradient><linearGradient id="d" x1="22.355" y1="35.263" x2="36.082" y2="59.26" gradientUnits="userSpaceOnUse"><stop offset=".073" stop-color="#fff"/><stop offset=".354" stop-color="#FDFDFD"/><stop offset=".823" stop-color="#E3E3E3"/><stop offset="1" stop-color="#CACACB"/></linearGradient><linearGradient id="e" x1="43.758" y1="35.263" x2="68.388" y2="49.681" gradientUnits="userSpaceOnUse"><stop offset=".073" stop-color="#fff"/><stop offset=".354" stop-color="#FDFDFD"/><stop offset=".823" stop-color="#E3E3E3"/><stop offset="1" stop-color="#CACACB"/></linearGradient></defs></svg>