<svg xmlns="http://www.w3.org/2000/svg" viewBox="0 0 1020 1020"><defs><style>.cls-1{fill:#424b55;stroke-width:20px;}.cls-1,.cls-2{stroke:#000;stroke-miterlimit:10;}.cls-14,.cls-2{fill:#040303;}.cls-2{stroke-width:30px;}.cls-3{fill:#d8b660;}.cls-4{fill:#f9b191;}.cls-5{fill:#fd5d1d;}.cls-6{fill:#e5cf95;}.cls-7{fill:#90793f;}.cls-8{fill:#fff;}.cls-9{fill:#a57661;}.cls-10{fill:#a93e14;}.cls-11{fill:#f9cab6;}.cls-12{fill:#f99067;}.cls-13{fill:#526b8f;}.cls-15{fill:#8d9db5;}</style></defs><title>playiconAsset 7221</title><g id="Layer_2" data-name="Layer 2"><g id="Layer_1-2" data-name="Layer 1"><circle class="cls-1" cx="510" cy="510" r="500"/><path class="cls-2" d="M302.35,325.69a3.85,3.85,0,0,0-1.71,2.79c-5.39,7.66-10.07,15.44-11.63,25.1-2.43,15-.29,29.53,4.12,43.69,4.11,13.15,11.5,24.44,22.93,32.67.35,1.95,2,2.73,3.42,3.65a54.53,54.53,0,0,0,20.69,7.63c10.38,1.81,20.91,4.36,30.84-2.12a14.56,14.56,0,0,1,6.36-1.8c7.64-.71,14-4.31,20.24-8.37,7-4.58,14-9.22,21-13.8,3.09-2,6.19-3.65,5.72-8.44-.24-2.47,2-.8,3.24-.5,4.29,9.62,8.25,19.45,16.16,26.9.85,2.19,2.75,3.45,4.43,4.88a96.54,96.54,0,0,0,38.53,20.13c16.56,4.39,33.34,6.54,50.62,5,15.39-1.35,30.48-3.78,44.88-9.29,9.43-3.61,19-7.33,26.66-14.33C626,423.88,636.5,404.81,639,381.58c.36-3.37,1-6.71,1.61-10.59,3.21,6.93,2,13.46,1.39,20.08A68.74,68.74,0,0,1,632,421.81c-1.55,2.48-3.56,4.79-4,7.87-.52.32-1.23.62-.33,1.26.07.05.55-.48.84-.74l20.65-6.07a26.63,26.63,0,0,0,4.39-.35c7.6-1.86,7.51-1.89,6.46-9.89-2.69-20.43-9-39.88-15.86-59.19a53.33,53.33,0,0,0-7.93-15c-.51,2.38.3,4,.5,5.7.8,6.67,4.49,12.53,5.28,19.19l-3.25-.08c-2.16-7.15-4.4-14.25-10.45-19.29-.44-24.27,7.76-45.64,22.31-64.67a129.66,129.66,0,0,1,45.64-37.25c2.68-1.34,6-2,8.33-6.13-11.67-.42-22.42-.77-33.21-.12-19.54.73-38.92,3.36-58.39,5-15.6,1.3-30.63,5.12-45.57,9.67-13.45,4.1-27.14,7.43-40.81,10.74-4.78,1.16-9.7,1.74-14.4,3.35-7.75,2.64-9.59,5.08-10,14a17.82,17.82,0,0,0-.18,3.63c1.22,7.79,3.06,8.85,10.79,6.89,2.11-.53,3.34-1.23,4.08-3.47,1.3-3.93,3.13-7.69,4.74-11.52,4.54-5.66,8.88-11.61,18-12.82-2.33,4.36-6.28,6.12-7.85,9.72-4.2,3.53-5.93,8.34-6.88,13.51-.42,2.26.34,3.76,2.9,4.16a43.84,43.84,0,0,1,8.65,1.88c3.4,1.28,4.89.77,6.69-2.78,4.69-9.26,11.28-16.76,22.34-18.63.21.23.42.47.64.7-2.39,2.12-4.78,4.22-7.15,6.35-4.68,4.22-6.63,9.69-7.26,15.79-.22,2.14.13,3.94,2,5.22l12.82,8.81c4.47-9,10-16.09,20.48-16.81a41,41,0,0,1-5.06,5.37c-7.87,7.9-9.13,17.09-3.81,26.82a78.73,78.73,0,0,1,4,7.93c12.44,30.34,14.28,59.44-6.55,87.8-21.56,29.37-70.74,31.33-91.64,2.79a119.26,119.26,0,0,1-11-37.25c-2.34-19.87.1-38.8,9.75-56.53,3.18-5.84,3.21-5.82-2.19-10.61a109.41,109.41,0,0,1-9.36-19.52c-.65-3.4.34-7.13-1.71-10.71a48.74,48.74,0,0,0-15.3,18.21c-.9,1.87-1,4.52-4,4.7-.93-3.69.88-6.8,2.34-9.87a49.09,49.09,0,0,1,9.67-13.95c4-3.95,3.91-4.11-.21-8a72.79,72.79,0,0,0-15.07-10.71c-9.81-5.47-20.4-8.69-31.15-11.63a72.49,72.49,0,0,0-30.15-1.56c-4.45.67-6.84-.51-9.37-3.73-5.42-6.88-9-14.75-12.73-22.54-5.83-12.32-15.24-21.08-26.61-28.06-2.22-3.19-5.78-4.53-9-6.3-19.44-10.82-39.77-19.72-60.53-27.67-6.81-2.6-13.68-5-22.25-8.19,11.59,26.64,24.19,50.78,36.74,74.95,0,.89.21,1.63,1.18,1.9l-.16-.2c0,1.34.23,2.51,1.62,3.11l-.12-.14c-.11,1.35.16,2.52,1.56,3.11l-.11.11c1,5.11,3.76,9.54,5.72,14.28,9.06,21.84,14.15,44.37,12.11,68.18A4.75,4.75,0,0,0,302.35,325.69Z"/><path class="cls-2" d="M235.38,608.87l-.2-.28a4.67,4.67,0,0,0,1.87,3.46c.43,2.83,2.4,4.83,3.91,7a230.6,230.6,0,0,0,49,52.28c31.2,24.15,65.71,42.12,101.91,57.22.42,1.34,1.65,1.76,2.74,2.28,16.19,7.7,33.05,13,51,14.44,13.93,1.12,27.58-.47,41.27-2.88,15.84-2.79,31.75-5.42,46.83-11,21.54-8,42.7-17,64.08-25.35a13.33,13.33,0,0,0,7.62-7.48c4.27-9.19,8.83-18.24,13.23-27.36,1.4-2.9,2.78-5.82,2.24-9.2a31.08,31.08,0,0,0,2.35-4.59c5.73-18.12,11.6-36.2,17-54.42,10-33.5,15.1-67.92,18.65-102.59,1-10.06,2.72-20.1,2.18-30.29,2-8.73.56-17.59,1-26.37.12-2.55-1.27-3.51-3.64-3.41-8.58.36-17.19.58-25,5-10.53,3.17-19.78,8.95-29.3,14.24-24.76,13.77-51.13,20.87-79.68,19.15a148.11,148.11,0,0,1-51.6-12.83C452,456.61,435,442.72,427.14,420c-.36-1.06-.66-2.33-2.3-2.95-6.38,7.27-15,12.15-22.63,18.82a10.8,10.8,0,0,0,2.51,1.19c8.13,1.17,15.77,4.17,23.65,6.28,2.67.71,6.33,1.05,5,5.57-2.19,0-4.79.78-6.48-.14-5.91-3.22-12.4-3.22-18.66-3.62-12.58-.8-25.13-.27-37,5.13-7.08,3.24-10.33,8.75-10.64,16.34a39.54,39.54,0,0,0,6.17,22.5c6.27,10.34,12.94,20.4,21.65,28.92.23,2.59-.72,4.26-3.31,2.58a93.39,93.39,0,0,1-10.63-8.06c-11-9.6-20.08-20.46-23.45-35.2-1.8-7.84-.79-15.49,1.34-23.24-6.34-1.69-12.4-1.66-18-3.73-21.28-7.9-37.73-21.34-48.11-41.79-1.33-2.62-2-5.61-4.34-7.68-1.89-7.48-3.79-15-5.72-22.56-2.22,1-2.37,2.64-2.86,3.93a249.06,249.06,0,0,0-13.74,53.62c-1.18,8.48-3,17-2.29,25.62-1.19,9.43.52,18.49,3.45,27.4a14.26,14.26,0,0,1-7.34-7.05c-4.34-9.73-11.33-8-18.82-5.32a101.94,101.94,0,0,0-10.33,4.05,30.44,30.44,0,0,0-14.26,13.57c-5.78,11.52-8.47,23.95-6.29,36.67,4.62,27.11,15.83,51.74,30,75.09l-.21-.23C233.84,607,234.14,608.18,235.38,608.87Z"/><path class="cls-2" d="M866.25,266.22l.23.09a7.83,7.83,0,0,0-3.08-4.6l.15.09a13,13,0,0,0-.81-2.05,253.75,253.75,0,0,0-68.25-73.53,174.87,174.87,0,0,0-35-19.34C713,147.36,664.25,139.19,614,138.76c-16.11-.13-32.09,1.37-48.09,3-3.88-1.13-7.85-.28-11.78-.54-1.3-.08-2.43-.55-2.72-2a2.51,2.51,0,0,1,1.24-2.52c1.94-1.28,4-2.39,7.05-4.19-9.88-.44-18.49-.95-27.1-1.18-23.26-.6-46.46.83-69.58,3-18.42,1.77-36.88,3.46-55,7.66-.76-.12-1.49-.17-1.66.86l.28-.28c-7.23.32-14,2.58-20.82,4.77-21.32,6.91-42.79,13.55-61.59,26.37-1.52,1-3.77,1.47-4,4.37l14.93,7.52c8,6.08,17.16,10.7,23.92,18.43.87,1,1.54,1.1,2.88,0,4.41-3.69,9.93-5.44,15.19-7.55a266.29,266.29,0,0,1,52.8-14.93c2.51-.44,5.29-.48,6.92-3.61a6,6,0,0,0-4.5-.79c-9.61,1-19.23,2.13-28.47,5-14.65,4.55-29.45,8.75-43.21,15.77-1.61.82-4,2.84-5.18.54s1.87-3,3.36-3.91c24.12-15,50.1-24.69,78.49-27.54,3.22-.32,6.44-.68,9-3,15.47-14.33,35.27-18.3,54.79-22.93,1.39-.33,3-.78,3.72,1.6-1.83,2.17-4.73,2.26-7.2,3a151.39,151.39,0,0,0-28.72,12.05,42.77,42.77,0,0,0-13.14,10.75c-9.79,12.09-9.31,21,2,31.8a73.58,73.58,0,0,0,8.7,6.92c6.53,4.55,13.7,8,20.94,11.21q27.14,12.12,54.25,24.28c2.06.93,4,2,6.35,1.26,4.91-1.66,10.2-2.06,14.88-4.48L590.21,233a12,12,0,0,0,1.47-.11c26.17-5.07,52.42-9.11,79.25-8.37,13.54.38,27.08.89,40.62,1.35,4.38.63,8.8,1.08,13.14,1.92,8.07,1.58,9.85,5.61,6.07,13.2-4.53,2.6-9.52,4.1-14.32,6.05-33,13.39-58.21,35.13-73.44,67.83-2.34,5-2.29,8.67.91,13.47,13.08,19.65,23.76,40.5,30.4,63.32,5.69,19.53,6.12,39.55,6.54,59.6.48,22.63-2.32,45-6.32,67.18-4.17,23.12-6.84,46.51-13.47,69.16-9.38,32.08-19.15,64-32.09,94.86-4.41,10.52-10.47,20.23-14.45,30.93a340.6,340.6,0,0,1-24.71,51.49c-20.48,35.49-43,69.5-72.53,98.32-1,.95-2.53,1.65-2.07,4.06,19.42-.61,38.83-1.85,58.12-4.82,4.47.49,8.78-.88,13.12-1.46,10-1.33,20.13-1.31,29.84-4.31a188.25,188.25,0,0,0,37.14-7.61c8.94-.8,17.25-4.06,25.76-6.55a5.27,5.27,0,0,0,3.46-2.59c3.45-6.65,8.94-11.8,13.19-17.88,14.6-20.9,23.62-44.54,33.22-67.8,9.07-22,14.05-45.27,19.12-68.48a796.71,796.71,0,0,0,17.19-122.49c1.91-32.15,1.33-64.31,1-96.47,0-3.33.87-6.95-1.34-10.05.31-4-.68-7.82-1.13-11.72a2.55,2.55,0,0,1,1.91-2.81,2.51,2.51,0,0,1,2.5,1.24,31.77,31.77,0,0,1,5.36,12c2.17,8.62,2.51,17.53,4,26.25-.57,2.67-1.38,5.36,1,7.67l.15,2.85c-1,2.66-.43,5.39-.36,8.1.25,9.89,1.7,19.71,1.3,29.65-.71,18.29-1.42,36.58-2.44,54.87-1.29,23-4.5,45.83-8.5,68.45-6.85,38.74-15.3,77.13-29.13,114.18-7.57,20.26-16,40-27.39,58.38-.94,1.52-2.38,3-1.87,6,6.13-2.89,12.19-4.08,17.42-7.44a174.39,174.39,0,0,0,34-14.63c7.85-3.51,15.58-7.24,22.62-12.24a35.11,35.11,0,0,0,15.25-11.15c8.67-10.49,13.9-22.82,18.79-35.12,15.31-38.5,23.49-79,31.3-119.49,4.21-21.84,5.43-44.1,7.72-66.2,2.22.89,2.54,2.75,2.57,4.85.29,21,0,42-2.39,63-2.12,18.93-6.07,37.56-9.74,56.22-5.34,27.16-11.31,54.2-23.44,79.4-.18.38,0,1,0,1.45-.68,0-1.33.09-.59,1,.21-.31.41-.63.61-.95,7.39-3.52,12.24-10,17.86-15.52.88-.53,1.66-1.14,1.58-2.33l0,.17c4.17-2.17,7.28-5.53,10.27-9a177.9,177.9,0,0,0,22.58-24.92,1.91,1.91,0,0,0,1.4-1.89l0,.08c2.17-1,3.1-3.12,4.42-4.86,17.5-23.12,26.47-50.13,35.16-77.25a27.32,27.32,0,0,0,.72-5.14c3.2-26.78,7-53.48,9.26-80.37,2.94-35.28,5.9-70.56,2.53-106S921.17,373,906.57,339.89a466.92,466.92,0,0,0-37.26-69,2.87,2.87,0,0,0-1.56-2.37l.14-.35-.3-.23A1.67,1.67,0,0,0,866.25,266.22Z"/><path class="cls-2" d="M496.06,282.81c1-3.7,2.07-7.4,3.52-12.58-7.42,3.6-13.51,6.59-19.65,9.51-2.15,1-2.68,2.77-2.46,4.88.2,2,.52,3.9.8,5.85a20.71,20.71,0,0,0,3.13,11.59c2.14.14,3.44-1.11,4.89-1.91,3.41-1.86,8.09-3.1,9.74-6S496.18,286.66,496.06,282.81Z"/><path class="cls-2" d="M333.74,811.37c3.16-.56,6.33-1,9.46-1.68,14.87-3.11,28.33-10,42.13-15.92,12.67-5.47,25.24-11.22,38.86-14.08,6.52-1.38,6.55-1.4,7.36-7.91a35.51,35.51,0,0,0,.17-5.16c-.17-6.43-.19-6.42-6.72-8.12-3.58-.94-7.24-1.66-10.69-2.93s-5.45-.59-7.15,2.72a34,34,0,0,1-10.81,12.41c-.51-2.81,1-5.21,1.78-7.69,3.75-12,3.83-12-8.61-14.79a1.9,1.9,0,0,0-.72.13c-3.76-1.76-7.63-3.33-11.27-5.32s-4.56-.4-5.39,2.91a122,122,0,0,1-12.8,31.32c-3.88,6.78-7.16,14.07-13.62,19a4.72,4.72,0,0,1,.52-4.26c7-13.11,9-27.72,12.33-41.86s2.92-14.26-10.16-21.54c-.85-.47-1.77-.83-2.66-1.24l-36.49-22.07a187.91,187.91,0,0,1-6.53,27.24c-3.44,10.78-7.07,21.47-13.33,31-3.18-3-1.58-6.47-.68-9.62a254.06,254.06,0,0,0,9.12-50.93c.24-3.19.94-6.59-2.54-8.64-4-2.37-7.34-5.86-11.93-7.29-3.59-4.54-8.71-7.23-13.11-10.79s-8.51-7.89-12.93-12.25c-1.34,3.26-.95,5.74-.95,8.12,0,16.65-2.52,33-5.94,49.2a165.85,165.85,0,0,1-25.1,59.71c-4.3-1-4.82-3.44-2.94-7.12,13.67-26.74,18.73-55.51,19.62-85.18.45-14.86-1.14-29.6-3.34-44.29a10.22,10.22,0,0,0-1.58-4.88c-5-6.45-8.49-13.9-13.91-20l-15.73-29C203.69,578.35,197,567.51,192,555.4c-1.79,2.11-1.17,3.87-1.23,5.47-.42,10.87-.57,21.76-1.19,32.62-1.39,24.17-2.64,48.36-4.66,72.49-1.29,15.49-2.66,31-5.83,46.3-2.66,12.8-5.16,25.75-11.58,37.38-6.51,11.81-15.6,20.36-29.7,22.09-.69.09-2-.23-1.9,1.56,9.45,4.12,19,8.14,28.82,11.37a137,137,0,0,0,18.81,6.67c29.68,8.58,59.91,14.57,90.43,19.25,18.89,2.9,37.73,4.56,56.72,1.18C331.75,812.11,332.83,812.32,333.74,811.37Z"/><path class="cls-2" d="M421.45,247.24c1.36.55,2.69,1.14,4.07,1.64,14.68,5.32,28.69,11.91,41.05,21.66,4.28,3.37,5.29,3.24,9-.8,1.29-1.4,2.24-4.2,4.33-3.29,3.4,1.48,5.63-.54,8.15-1.66a173.28,173.28,0,0,1,30-10.56c2.48-.59,5.32-.75,7.29-2.74-.74-1.56-2-1.81-3.08-2.3-21.7-10-44.1-18.56-65-30.36-2.89-4.33-6.83-4.8-11.65-3.77A147.24,147.24,0,0,0,410.7,227c-8,4-16.26,7.78-24.54,14.06C399.21,241,410.21,244.78,421.45,247.24Z"/><path class="cls-2" d="M536.12,748.29c-2.37-.5-4.38.72-6.4,1.51-23.86,9.29-48.7,12.5-74.13,12.32-9.14-.07-8-2.15-10.35,8.2a9.05,9.05,0,0,0-.1,1.48c-.19.15-.52.28-.56.47C440.9,790,433,805.67,422.23,820.12c-5.3,7.11-10.69,14.23-14.37,22.45-1.76,3.93-3.14,7.87-2.63,12.15.62,5.22,2.63,9.56,8.61,10.52a25.89,25.89,0,0,0,14.88,1.08,87.42,87.42,0,0,0,34.66-9.26,192.35,192.35,0,0,0,43.32-29.51,27.17,27.17,0,0,0,8.87-14.84c4.71-21,10.67-41.58,20.13-61,.55-1.12,1-2.27.32-3.51.53.2.79.06.74-.43a.85.85,0,0,0-.42,0C535.37,747.92,536.75,747.53,536.12,748.29Z"/><path class="cls-2" d="M212,464.45c8.23-4.52,16.34-9.28,24.75-13.45,4-2,5.79-4.47,6.26-8.93,2.52-24,8.79-47.13,17.52-69.64,7.47-19.29,17.49-37.19,28.94-54.29a24.63,24.63,0,0,0,4.05-18.2c-1-6.94-.83-14.18-4.73-21.93-7.06,11.39-14.21,21.51-19.91,32.39-13.47,25.72-25.06,52.24-31.33,80.8-.43,2,0,4.64-3.1,5.29-1.21-3.81-.29-7.44.63-11,10.52-40.71,24-80.17,48.4-115.06.28-.41.55-.82.86-1.21a4.85,4.85,0,0,0,.72-5.47c-3.29-7.72-6-15.67-10.55-22.82-1.57-5.39-4.29-10.17-7.06-15.28a19.4,19.4,0,0,0-2.31,1.89,267.3,267.3,0,0,0-30,46.74c-17.65,34.5-24.31,72-28.92,109.85-3.5,28.71-5.43,57.61-8,86.44-.13,1.49-1.38,3.32.82,4.84Z"/><path class="cls-2" d="M481.21,375.73c.14,13.43,2.62,25.66,8.62,37.08a33.71,33.71,0,0,0,16.24,15.71c18,8.05,46.91,6.84,63.07-16.25,16.82-24,16.4-49.16,4.76-74.62-7.61-16.66-21.5-26.2-39.63-29-7.17-1.12-14.44-.71-20.77,3.47a64.35,64.35,0,0,0-21,21.68C485,347,481.75,361.29,481.21,375.73Z"/><path class="cls-2" d="M587.66,727.89a5.16,5.16,0,0,0-2-.26,237.46,237.46,0,0,0-25.86,9.24c-2.73,1.13-4.13,3.41-5.63,5.7-5.33,8.12-9.27,17-13,25.85-5.62,13.44-6.13,9.45,5,18.16,5.09,4,5.25,3.82,8.81-1.43,11.81-17.47,21.44-36.22,32.14-54.35A3.31,3.31,0,0,0,587.66,727.89Z"/><path class="cls-2" d="M442.4,205.29c-2.07-3.66-4-6.32-5.13-9.27-1.19-3.1-3-3.17-5.76-2.68a242.24,242.24,0,0,0-59.41,18.29c-4.52,2.09-4.43,2.23-2.34,6.41,1.65,3.32,3.25,6.67,4.88,10,2.15,4.43,2.22,4.53,6.37,2.11,13.28-7.77,27-14.54,41.68-19.31C429,208.78,435.49,207.22,442.4,205.29Z"/><path class="cls-2" d="M496.63,301.87c-1.92.42-3.86.76-5.76,1.27-2.49.68-6.22.23-6.69,3.35-.44,2.91,3.24,4,5.09,5.84s3.44,1.3,5.07-.43c1.36-1.43,2.91-2.67,4.4-4,1.26-1.09,3.24-1.86,2.36-4C500.31,301.93,498.48,301.91,496.63,301.87Z"/><path class="cls-3" d="M780,481.71c-1.54-8.76-1.88-17.7-4.06-26.36a31.87,31.87,0,0,0-5.38-12.1,2.37,2.37,0,0,0-4.43,1.58c.45,3.91,1.45,7.77,1.14,11.77-1.44,1-1.42,2.53-1.38,4,.41,18.88-1.32,37.62-2.79,56.42-1.36,17.32-5.09,34.24-7.09,51.43-1.4,12-4.49,23.83-6.35,35.78a542.63,542.63,0,0,1-19.23,80.07c-8.3,26.28-18.35,51.9-29,77.28-5.47,13-11,26.11-17.93,38.44-9.44,16.83-16.51,35-28.32,50.5a189.85,189.85,0,0,1-37.3,7.63,16.44,16.44,0,0,1,3.26-7.46c9.78-13.9,16.77-29.31,24.31-44.43,4.43-8.89,9.17-17.63,13-26.82,7.69-18.31,15-36.74,21.61-55.47,9.11-25.73,18.16-51.49,24.45-78.07,5.06-21.4,9.08-43,12.44-64.81,2.56-16.61,5-33.25,6.7-49.93,1.45-14.52.85-29.24,1.54-43.87a401.94,401.94,0,0,0-1-56.58c-.46-5-1.44-9.78-2.09-14.68-.19-1.48-.7-3.57-3.35-3.33-1.8,3.72.79,7.18.89,10.8.28,9.24-1,18.4-2,27.42-1.84,15.94-3.58,31.92-5.31,47.87-2.16,20-6.82,39.45-10,59.21-2.73,16.88-7.19,33.36-12.34,49.7-6.63,21.07-13.24,42.14-21.41,62.67-7.33,18.44-15.06,36.73-23,54.9q-9.87,22.51-20.78,44.57c-5.84,11.78-12.8,23-18.64,34.8-8.39,17-17.2,33.62-28.4,48.92-2.32,3.17-3.57,6.47-3,10.39-19.36,3-38.85,4.23-58.35,4.83-.47-2.41,1.11-3.12,2.08-4.07,29.66-28.94,52.26-63.09,72.83-98.73a343.26,343.26,0,0,0,24.81-51.69c4-10.75,10.08-20.51,14.5-31.06,13-31,22.81-63,32.23-95.25,6.65-22.75,9.33-46.24,13.52-69.45,4-22.32,6.83-44.73,6.35-67.45-.42-20.14-.86-40.24-6.57-59.85-6.67-22.92-17.39-43.86-30.53-63.58-3.2-4.82-3.26-8.48-.91-13.53,15.3-32.84,40.62-54.66,73.74-68.11,4.83-2,9.84-3.46,14.38-6.07.13,2.48,1.8,4,3.42,5.57a368.8,368.8,0,0,1,27.46,30.33,344.2,344.2,0,0,1,37.57,56.21c11.36,21,20.82,42.86,27.33,65.9,4.1,14.53,7.73,29.15,9.07,44.29.46,5.16,1.48,10.28,1.39,15.51,0,1.82.45,4,2.44,4,2.5.07,2-2.42,2-4-.25-10.65.07-21.27-1.17-32a265.92,265.92,0,0,0-5.73-33.59c-6.62-26.57-16-52.08-29.51-76.08-11.76-20.84-25-40.63-41-58.28-15.32-16.91-31.74-32.77-50.26-46.45C684.66,188.4,651,171.14,612.92,163c-3.44-.73-7-.93-10.63-1.39.17,2.42,1.72,2.23,2.77,2.6,20.1,7.27,39.76,15.39,58.42,26a324.34,324.34,0,0,1,50.07,34.55c-13.6-.47-27.19-1-40.79-1.36-27-.75-53.3,3.31-79.58,8.4a12,12,0,0,1-1.47.12c-1-2.18-2.86-3.08-5-4.08C567.86,219,547.61,213.6,529,204.22c-10.61-5.33-21.91-9.35-30.34-18.38-3.38-3.62-3.78-7.29-2.22-11.57,2-5.59,6.09-9.59,10.66-13.1,3.68-2.82,7.48-5.49,11.38-8.34a5.25,5.25,0,0,0-5.25-.7c-11.12,4.12-22.54,7.67-32.08,15.13a13,13,0,0,0-4.92,8.1c-1.8,10.22,2.39,20.34,11.45,25.55,17.62,10.13,35.33,20,54.3,27.62,7.52,3,15.43,5.36,22.32,9.88-4.7,2.43-10,2.83-14.94,4.5-2.33.78-4.31-.34-6.38-1.27q-27.21-12.24-54.47-24.38c-7.27-3.25-14.46-6.68-21-11.25a73.43,73.43,0,0,1-8.74-6.95c-11.35-10.87-11.83-19.79-2-31.93a43.12,43.12,0,0,1,13.19-10.8,152.65,152.65,0,0,1,28.84-12.1c2.48-.75,5.4-.84,7.23-3-.72-2.39-2.33-1.94-3.73-1.61-19.6,4.65-39.49,8.64-55,23-2.53,2.34-5.77,2.7-9,3-28.5,2.85-54.58,12.62-78.8,27.65-1.5.93-4.58,1.65-3.39,3.92s3.59.28,5.21-.54c13.82-7.05,28.67-11.27,43.39-15.83,9.28-2.88,18.94-4,28.59-5a6,6,0,0,1,4.51.78c-1.63,3.15-4.42,3.19-7,3.63a267.93,267.93,0,0,0-53,15c-5.28,2.12-10.82,3.88-15.25,7.59-1.35,1.12-2,1-2.89,0-6.79-7.77-16-12.41-24-18.51.27-2.64,2.45-3.5,4.31-4.71a545,545,0,0,1,63.2-36c1.5-.72,3.53-.56,4.32-2.52l-.28.28,1.67-.86c18.17-4.22,36.71-5.92,55.2-7.69,23.22-2.24,46.52-3.67,69.87-3.06,8.65.22,17.29.74,27.21,1.18-3.07,1.81-5.13,2.92-7.07,4.21a2.48,2.48,0,0,0-1.25,2.53c.28,1.42,1.42,1.89,2.73,2,3.94.25,7.93-.6,11.83.54a1,1,0,0,1,0,.81c-1.94.82-5.46,0-5.4,2.82s3.44,2,5.47,2.47c.24.06.49.07.74.11,24.74,4.11,49.33,8.94,73.85,14.23,34.84,7.51,65.07,23.94,92.16,46.67,10.3,8.64,20.12,17.81,29.62,27.29,31.49,31.45,56.44,67.3,73.12,108.78,7.36,18.3,13.73,36.82,15.35,56.57,3.18,38.88,6,77.8,9,116.7.1,1.36-.32,3.11,2.39,3.72a26.65,26.65,0,0,0,3.77-10.77c.72-4.66,1.41-9.33,2.11-14,2.69-.48,3.42-2.47,3.9-4.8a123.83,123.83,0,0,0,2.83-22.82c.4-22.1.54-44.21-1.47-66.27-1-10.6-1.56-21.27-3.3-31.75-3.11-18.72-9.88-36.46-17.65-53.58-11-24.29-26.73-45.78-43-66.83s-36-38.24-56.54-54.79c-12.61-10.19-26.85-17.69-41-25.48a163.62,163.62,0,0,0-42.91-16.45c-3.86-.88-7.85-2.68-12-.84l-46.4-8.22a8.73,8.73,0,0,1,7.23-.65c7.49,2.12,15.23,1.47,22.82,2.44,20.11,2.59,40.07,5.7,59.69,10.82,20.39,5.31,40.5,11.29,59.54,20.66,11.68,5.76,21.84,13.65,32.44,20.91a316.89,316.89,0,0,1,38.47,31.44c9.37,8.85,18.26,18.2,27.41,27.27,1.87,1.85,3.33,4.54,6.66,4.09l-.15-.09c-.18,2.35-.24,4.62,3.09,4.62l-.22-.09,1.34,1.71.3.23-.14.35c.53.79,1.05,1.59,1.57,2.38a469.27,469.27,0,0,1,37.41,69.3c14.66,33.25,20.44,68.34,23.83,104.06s.41,71-2.54,106.43c-2.25,27-6.08,53.81-9.3,80.7a27.53,27.53,0,0,1-.72,5.16c-8.73,27.23-17.74,54.35-35.31,77.56-1.33,1.75-2.26,3.9-4.44,4.89-.64-4.11,1.08-7.84,2.07-11.63,4.34-16.49,9.21-32.87,11.2-49.88,1.9-16.18,4.49-32.27,6.48-48.45,2.15-17.47,3.23-35,3.94-52.48,1.29-32-1.19-64-1.39-96,0-.86.67-2.27-1.49-2.61,0,1.33,0,2.54,0,3.75.1,23.33.23,46.65-1.52,69.94a22.74,22.74,0,0,1-.29,3.71c-2,8.47-1.19,17.22-2.51,25.8-1.65,10.73-1.9,21.67-3.53,32.41-2.44,16.1-5.48,32.12-8.39,48.15a491.71,491.71,0,0,1-16.41,65.42c-3.56,10.84-7.18,21.64-12,32-.92,2-3,4.44-.19,6.74-3,3.51-6.12,6.89-10.3,9.07a11.51,11.51,0,0,1,.52-5.87,344.35,344.35,0,0,0,16.31-69.31c1.76-14,4.31-27.91,4-42.08-.12-6,2-11.76,1.24-17.78a387.51,387.51,0,0,1-2.91-43.74c-.05-6.42-.92-12.84-1.57-19.24a5.9,5.9,0,0,0-3.6-5.16c-1,5.5-.53,10.34-.42,15.17-2.3,22.19-3.52,44.55-7.75,66.47-7.84,40.67-16,81.33-31.43,120-4.9,12.35-10.15,24.73-18.86,35.26a35.2,35.2,0,0,1-15.32,11.2c-.22-6.11,4-10.58,6-15.85a454.92,454.92,0,0,0,18.6-61.87,611.57,611.57,0,0,0,11.46-70.93c.66-6.43.53-12.9,1.47-19.23,2-13.77,1.52-27.67,2.51-41.49.74-10.33-.27-20.77-.86-31.18-.93-16.56-1.33-33.14-3.32-49.63-1.18-9.81-1.68-19.74-3.47-29.43-.83-4.51.43-9.83-3.81-13.78,0,3.1-.36,6,.06,8.86,2.27,15.17,4.17,30.37,4.18,45.75,0,18.4.16,36.81-.11,55.21-.13,8.9-1.18,17.79-1.72,26.68-.73,12.31-2.7,24.54-4.13,36.8Q811.1,660.5,806.89,682c-3.52,18-7.68,35.82-12.89,53.38-6.92,23.37-15.53,46.12-27.55,67.4a18,18,0,0,0-2.38,8.41,174.35,174.35,0,0,1-34.13,14.69c1.07-2,2.07-4,3.23-5.85A201.33,201.33,0,0,0,749,788c11.81-30.53,20.77-62,28.68-93.74,3.34-13.45,4.78-27.24,6.63-41,1.75-13,3.6-26.06,3.61-39.1,0-30.25,2.12-60.55-1.17-90.76q-1.56-14.37-3.2-28.74a2.72,2.72,0,0,0-2.42-2.43c-.06-.95-.11-1.91-.16-2.86C782.91,486.56,783.25,483.92,780,481.71Z"/><path class="cls-4" d="M282.2,400.5c2.31,2.08,3,5.09,4.35,7.71,10.43,20.54,26.95,34,48.31,42,5.62,2.09,11.7,2.05,18.07,3.76-2.15,7.78-3.16,15.46-1.35,23.33C355,492.06,364.1,503,375.13,512.6a94.18,94.18,0,0,0,10.67,8.1c2.6,1.69,3.55,0,3.32-2.6,3.14-2.74,2.29-5.7.32-8.56-5.06-7.3-7.24-15.57-8.54-24.19s3.9-18.61,11.64-22.88c10.12-5.59,21.42-7.27,32.3-10.38,3.2-.92,6.89-.52,9.38-3.39,1.34-4.55-2.34-4.89-5-5.6-7.91-2.11-15.59-5.13-23.75-6.3a11.63,11.63,0,0,1-2.52-1.2c7.68-6.7,16.31-11.59,22.72-18.9,1.65.62,2,1.9,2.32,3,7.85,22.82,24.94,36.77,45.95,46.14a148.42,148.42,0,0,0,51.81,12.88c28.67,1.73,55.15-5.4,80-19.23,9.55-5.31,18.84-11.11,29.41-14.29,2,1.21,4.3.85,6.5.95,9.1.4,15.18,4.58,18.16,13.5,1.16,3.45.66,7.39,3.09,10.43.54,10.23-1.16,20.32-2.19,30.41-3.56,34.82-8.73,69.38-18.72,103-5.44,18.29-11.33,36.44-17.09,54.64a31.76,31.76,0,0,1-2.35,4.61c-2.46-.52-4.22.85-6.15,2-21.4,13.11-43.08,25.81-65.45,37.1-30.22,15.26-61.43,27.71-96,29.88-17.16,1.08-34.08,2.21-51.09-1.4-3.53-.74-7.42-3.21-11.35-.81-36.35-15.16-71-33.2-102.33-57.45A231.21,231.21,0,0,1,241,619.58c-1.52-2.22-3.5-4.22-3.93-7.07-.05-1.47-.08-2.94-1.88-3.47l.2.28c.18-1.49.05-2.81-1.78-3.18l.22.23a7,7,0,0,0-.22-4.39c-4.9-10.41-7.18-21.6-9.34-32.75-3-15.55-5.15-31-.73-47,3.51-12.66,10.94-20.78,22.91-25.24,3.25-1.21,6.61-2.12,9.89-3.26,2.36-.81,4.87-1.57,4.59-4.9-2.94-8.95-4.66-18.05-3.47-27.51,1.68-.63,1.85-2.09,2.06-3.59,1.1-7.83,3.47-15.28,6.14-22.72A209.56,209.56,0,0,1,282.2,400.5Zm56,236.57c-2.11.6-2.21,2.33-2.47,4.11-1.55,10.66,2.11,19.47,9.35,27.11,16.95,17.88,38.31,27.93,61.61,34.32,2.34.64,5.44,3,8.21.25l4.18,1c.74,1.65,1.65,2.63,3.26.81,6.31.75,12.62,1.72,18.95,2.16,4.08.29,8.35.35,12.73-2.92l-9.29-2.54c-2.51-4.57-7.52-5.39-11.64-6.86-15.3-5.45-29.78-12.17-42.69-22.23a139.42,139.42,0,0,1-19.2-18.65c-3-3.46-4.86-8.13-6.48-12.53-2.54-6.9.59-10.93,8-11.29,2.63-.13,5.52.92,7.82-1.33,1.66-.7,4.43,1,5-1.87.46-2.32-1.65-3.42-3.35-4.35a36,36,0,0,0-14.1-4.24C352.53,616.51,340.8,620.93,338.22,637.07Zm48.87,3c.41,1.4.4,2,.71,2.32,15.36,14,31.88,26.19,51.53,33.5a138.71,138.71,0,0,0,69,7.35c34.51-5,61.41-21.39,77.1-54a226.67,226.67,0,0,0,19.3-61.62c2.16-13,3.33-26.14,2.22-39.36-.76-9.16-1.7-18.3-2.48-27.46-.45-5.37.38-6.07,5.61-5.37a9.77,9.77,0,0,1,6.87,4,54.19,54.19,0,0,1,7,12.24c.6,1.51.71,3.48,3.81,3.94,4.36-6.71,3.64-14,.71-20.85-3.26-7.66-9.13-11.94-18.13-11.68a49.17,49.17,0,0,0-20.79,5.19c-8.67,4.33-17.19,9-25.69,13.62-1.77,1-4.39,1.64-3.93,4.75,3.37,1.62,6.59-1.77,10-.34-.75,2.61-2.88,4.07-4.57,5.8a142.23,142.23,0,0,1-52.82,34.11A217.38,217.38,0,0,1,441,559.26a267.11,267.11,0,0,1-73.74-9.14c-18.81-5-36-13-49.52-27.45a10.52,10.52,0,0,0-1.14-1,1.45,1.45,0,0,0-2,0,1.55,1.55,0,0,0-.44,2,29.57,29.57,0,0,0,7,8.62c11.18,10.08,23.52,18.34,37.65,23.72a18.4,18.4,0,0,1,7.92,5.25,191.32,191.32,0,0,1,41.66,83.15c.45,2,1.47,4.16.06,6.24C400.8,648.65,395.31,642.16,387.09,640.05ZM655.3,489.82c-.38-3.19-1.4-5.71-1.54-8.5-.47-9.56-7-17.45-16.63-20.55s-20.06-.56-25.92,6.29c-1,1.12-2.27,2.2-1.52,3.86a3.55,3.55,0,0,0,3.7,2c4.78-.49,9.21,1.9,14,1.59,3.15-.2,5.72,1.29,8.09,3.24,5.11,4.21,7.49,9.77,7.88,16.22.18,3,.11,5.9,1.23,8.77.83,2.17,1.34,4.48,4.21,4.35,2.39-.11,3-2.07,3.77-4C654.37,498.67,653.36,493.74,655.3,489.82ZM595.51,656.94a4.45,4.45,0,0,0-4.4-4.79,4.58,4.58,0,0,0-4.89,4.41c-.28,2.52.89,4.23,3.54,4.63A4.9,4.9,0,0,0,595.51,656.94Z"/><path class="cls-5" d="M566.79,269.46c-11.1,1.87-17.72,9.4-22.43,18.71-1.8,3.56-3.31,4.08-6.72,2.79a43.44,43.44,0,0,0-8.68-1.89c-2.57-.4-3.34-1.91-2.92-4.18,1-5.19,2.7-10,6.91-13.57,14-3,28.18-5.24,42-9.07a201.39,201.39,0,0,1,22.52-4.43c9.27-1.45,18.63-2.1,27.87-3.91,10.41-2,21-3.37,31.47-5a12.59,12.59,0,0,1-1.81,2.3c-13.34,10.58-24.39,22.86-31.5,38.66-7.35,16.35-7.7,32.41-.27,48.64,1.32,2.89,2.67,6,6.66,6.12,6.08,5.05,8.33,12.19,10.5,19.37-.23,2.2.27,4.43-.49,6.63-2.26,6.55-4.33,13.16-6.61,19.7C626.13,411,612.36,426,593.58,436.65c-5,2.81-10.12,5.31-15.33,7.63A129.7,129.7,0,0,1,536,454.85c-18.7,1.55-37-1.58-54.94-6.86a48,48,0,0,1-21.36-12.88c-6.46-6.67-11.24-14.43-15.41-22.65-1.45-2.87-2.46-6.27-6-7.63-1.39,2.44-.57,4.27.06,6.16,2,5.87,3.58,11.87,6.49,17.4.75,1.43,2.21,3-.13,4.42-7.94-7.48-11.92-17.34-16.23-27,11.58-18.95,19.51-39.2,22.57-62-1.15.8-1.71,1-1.89,1.36a23.23,23.23,0,0,0-1.39,3.43c-5.62,17.68-14.83,33.46-25.44,48.55-12.9,18.33-30.13,30.65-51.37,37.4-7.55,2.4-15.28,4.8-23.29,3.89-8.6-1-17.14-2.63-24.87-7-1.93-1.09-3.94-2.18-6.32-1.79-11.48-8.26-18.9-19.6-23-32.8-4.44-14.22-6.58-28.77-4.15-43.87,1.57-9.7,6.27-17.52,11.68-25.21.25.21.5.41.76.6-1.73,5.67-3.54,11.31-5.15,17-2.22,7.83-4.65,15.67-3.81,24,1.38,13.63,7.05,25.58,14.82,36.64,1.82,2.6,3.63,5.4,7.26,5.83l.75.62c-.22-.24-.45-.47-.67-.7,0-2.65-1.71-4.61-2.85-6.77a78.7,78.7,0,0,1-6.91-17.22c-1.65-6.43-4-12.84-3.29-19.62a110.75,110.75,0,0,1,2.66-14.57c4.69-18.72,8.83-37.67,20.59-53.69,2,5.37,4.23,10.67,7.8,15.2,2.78,3.53,3.19,6.69.81,10.77A81.87,81.87,0,0,0,326,345.19c-6.49,23.05-6.82,45.44,6.34,66.78,6.44,10.44,15.33,16,27.41,16.42,17.58.54,32.44-6.15,45.2-17.91,25-23.05,36.49-62.48,18-94.27a21.76,21.76,0,0,1-2.42-8.55c-1.13-9.58,0-18.8,4.55-27.41-7.49-2.86-14.35-5.92-21.75-7.25.74-3.44,2.77-5.06,4.13-7.11.57-.85,1.09-1.76.09-2.61s-1.82-.34-2.69.19a18.9,18.9,0,0,0-5.58,5.92c-1,1.42-1.69,3.32-3.61,3.52-6.59.71-12.78,3.2-19.09,4.63-2.47-5.56,2.46-9.51,2.29-14.91-5.44,3.47-6.45,8.68-8.08,13.57-.62,1.87,0,4.24-1.6,5.62-4.79,4.14-9.76,8.09-14.79,12.22-2.85-5.6-2.38-10.72-1.27-15.92,1.14-5.37,3.26-10.41,5.13-15.53,0,0,.14-.46.14-.46l0,.56c-5.06.55-6.37,4.9-8.12,8.47-3.61,7.33-4.85,15.29-2.38,23.1,2.31,7.32-1.7,11.41-6.08,16.35-3.85-3.32-5.36-7.52-7.14-11.5-5.07-11.36-3.6-22.95.2-35.36-4.2,1.55-5.26,4.12-6.47,6.45-4.25,8.2-5,17-4.11,26a27,27,0,0,0-6.19,6.16c-5.06,6.28-8.7,13.5-13.39,20-.26-.19-.51-.4-.76-.61,2.05-23.91-3.06-46.53-12.15-68.46-2-4.76-4.72-9.21-5.75-14.34,3.38-.47,2.81,4.44,6.81,4.53-7.83-23.72-17.93-46-29.51-69.58,11.45,2.63,21,4.85,30.08,8.58,12.57,5.19,25.83,8.71,37.68,15.6,2.1,1.23,4.12,1.62,6.18,0,11.42,7,20.87,15.8,26.72,28.18,3.71,7.82,7.34,15.72,12.78,22.63,2.54,3.24,4.94,4.42,9.41,3.75a72.55,72.55,0,0,1,30.27,1.57c10.8,2.95,21.44,6.18,31.29,11.67a73.63,73.63,0,0,1,15.13,10.75c4.14,3.95,4.22,4.12.21,8.08a49.16,49.16,0,0,0-9.71,14c-1.47,3.08-3.29,6.2-2.36,9.91-.45,1.39-1,2.77-1.33,4.2-.29,1.24-.2,2.49,1.33,2.95a2.15,2.15,0,0,0,2.49-1.05c.42-.61.74-1.28,1.15-1.89,4.53-6.84,10.05-12.64,17.44-16.46A109.94,109.94,0,0,0,481.49,316c-1.93.46-2.63,2.2-3.63,3.57-19,26.38-17.45,67.14-.55,93.69,1.82,2.86,3.16,7,7.63,7.57,21,28.66,70.37,26.69,92-2.8,20.91-28.48,19.06-57.7,6.57-88.16a80.5,80.5,0,0,0-4-8c-5.35-9.77-4.08-19,3.82-26.93a41.32,41.32,0,0,0,5.08-5.39c-10.54.72-16.07,7.82-20.56,16.88-4.4-3-8.64-5.93-12.87-8.85-1.86-1.28-2.22-3.09-2-5.24.64-6.13,2.59-11.62,7.3-15.85,2.37-2.14,4.78-4.25,7.17-6.38.75-.19,2.21.06,1.74-1.12C568.87,268.27,567.49,268.55,566.79,269.46Z"/><path class="cls-5" d="M452.28,337.17a6.85,6.85,0,0,0-1.27,1.56c-.27.63-.25,1.42.65,1.67a3.16,3.16,0,0,0,.49-1.18c.09-.69,0-1.41.06-2.11.61-.5,1.88-.81.52-1.86Z"/><path class="cls-5" d="M479.13,432.69a2,2,0,0,0-1.46-1.53c-2.57-4.22-7.15-6.86-9-11.74-3.69-10-8.53-19.51-10.56-30.08a51.45,51.45,0,0,0-2.83-8.42,2.67,2.67,0,0,0-2.92-1.81,3,3,0,0,0-2.65,2.28,12.51,12.51,0,0,0-.49,3.65,57.08,57.08,0,0,0,10.35,32.82c4.29,6.17,10,11.55,18,13.4a2,2,0,0,0,1.52,1.45,11,11,0,0,0,1.24,1.67c.7.63,1.74,1.27,2.33.15s-.45-1.6-1.43-1.74C480.54,432.69,479.83,432.72,479.13,432.69Z"/><path class="cls-3" d="M331.09,813.06c-19.06,3.4-38,1.73-56.95-1.18-30.65-4.7-61-10.71-90.8-19.33a137.48,137.48,0,0,1-18.88-6.69c8.27-3.05,14.48-8.87,19-16.07,6.09-9.73,9.43-20.74,11.93-31.91,2.16-9.64,3.08-19.55,5.09-29.17a252.64,252.64,0,0,0,5.05-44.86c.58-21.32,2.82-42.6,1.86-64-.14-3,0-6,0-8.95l15.8,29.17a6.76,6.76,0,0,0-.71,4.34c2.09,14.2,4.74,28.29,6.32,42.59,1.68,15.17,1.43,30.31.54,45.38a316.12,316.12,0,0,1-3.76,33.17c-2.39,14.24-4.71,28.35-10.9,41.53-.7,1.49-1.91,3,.49,5.61,2.1-4.71,6.07-7.22,10-9.73.14-.09.1-.47.15-.72a166.61,166.61,0,0,0,25.2-60c3.43-16.3,6-32.68,6-49.39,0-2.39-.39-4.89,1-8.16,4.43,4.38,8.44,8.64,13,12.3s9.57,6.28,13.18,10.84c-.86,7.73,1,15.3,1.27,23a221.82,221.82,0,0,1-5.29,54.56c-2.74,12.51-6.27,24.46-13.25,35.26a1.23,1.23,0,0,0,.75,1.74c10.34-6.49,20.78-23.93,22.57-37.72,6.28-9.61,9.93-20.35,13.38-31.17a189.11,189.11,0,0,0,6.56-27.35l36.64,22.16c0,12.07.21,24.1-1.28,36.18a162.29,162.29,0,0,1-8.35,35.83C335,804.73,330.88,808,331.09,813.06Z"/><path class="cls-6" d="M574.75,864c-.61-3.92.64-7.22,3-10.39,11.2-15.3,20-32,28.4-48.92,5.84-11.79,12.8-23,18.64-34.8q10.92-22,20.78-44.57c8-18.17,15.7-36.46,23-54.9,8.17-20.53,14.78-41.6,21.41-62.67,5.15-16.34,9.61-32.82,12.34-49.7,3.19-19.76,7.85-39.24,10-59.21,1.73-15.95,3.47-31.93,5.31-47.87,1-9,2.31-18.18,2-27.42-.1-3.62-2.69-7.08-.89-10.8,2.65-.24,3.16,1.85,3.35,3.33.65,4.9,1.63,9.73,2.09,14.68a401.94,401.94,0,0,1,1,56.58c-.69,14.63-.09,29.35-1.54,43.87-1.67,16.68-4.14,33.32-6.7,49.93-3.36,21.78-7.38,43.41-12.44,64.81-6.29,26.58-15.34,52.34-24.45,78.07-6.64,18.73-13.92,37.16-21.61,55.47-3.86,9.19-8.6,17.93-13,26.82-7.54,15.12-14.53,30.53-24.31,44.43a16.44,16.44,0,0,0-3.26,7.46c-9.75,3-20,3-29.95,4.33C583.57,863.07,579.25,864.45,574.75,864Z"/><path class="cls-3" d="M274.68,239.84C279.2,247,282,255,285.27,262.76a4.86,4.86,0,0,1-.72,5.49c-.31.39-.58.81-.87,1.22-24.46,35-38,74.65-48.59,115.53-.93,3.59-1.85,7.25-.64,11.06,3.09-.64,2.68-3.34,3.11-5.31,6.3-28.67,17.94-55.31,31.46-81.13,5.72-10.92,12.91-21.09,20-32.52,3.91,7.78,3.71,15,4.74,22a24.71,24.71,0,0,1-4.07,18.28c-11.49,17.16-21.55,35.14-29.06,54.5-8.76,22.61-15.06,45.8-17.58,69.93-.47,4.48-2.27,7-6.29,9-8.44,4.19-16.59,9-24.86,13.51,1.94-13.83,1.26-27.74,1.51-41.63a9.16,9.16,0,0,1,.14-1.48c2-10.7,2.35-21.6,3.85-32.38,1.57-11.3,3.63-22.44,6.12-33.52,3.58-16,9.36-31.37,14.57-46.89C246.45,283.53,257.65,260.12,274.68,239.84Z"/><path class="cls-7" d="M655.19,850.53C667,835,674.07,816.86,683.51,800c6.91-12.33,12.46-25.39,17.93-38.44,10.66-25.38,20.71-51,29-77.28a542.63,542.63,0,0,0,19.23-80.07c1.86-12,5-23.75,6.35-35.78,2-17.19,5.73-34.11,7.09-51.43,1.47-18.8,3.2-37.54,2.79-56.42,0-1.48-.06-3,1.38-4,2.22,3.11,1.32,6.74,1.35,10.08.28,32.3.86,64.59-1.06,96.88a797,797,0,0,1-17.26,123c-5.08,23.32-10.09,46.7-19.19,68.77-9.64,23.36-18.7,47.09-33.36,68.08-4.27,6.11-9.78,11.28-13.24,18a5.31,5.31,0,0,1-3.48,2.59C672.51,846.45,664.16,849.72,655.19,850.53Z"/><path class="cls-8" d="M482.26,375.22c.54-14.5,3.75-28.86,11.37-42.13a64.48,64.48,0,0,1,21-21.77c6.36-4.2,13.66-4.61,20.86-3.49,18.2,2.84,32.14,12.43,39.79,29.15,11.69,25.56,12.11,50.79-4.78,74.93-16.23,23.19-45.29,24.41-63.33,16.32a33.89,33.89,0,0,1-16.31-15.77C484.89,401,482.39,388.71,482.26,375.22Zm86.89-1.82c.59-11.84-1-21.28-5.39-30.14-5-9.95-13.82-13.34-24.29-9.53a25.66,25.66,0,0,0-10.21,7.2,52.94,52.94,0,0,0-13.55,28.41c-1.81,12.11-2.88,24.15,1.73,35.94,5.23,13.39,17.79,18,30.19,10.77A38.89,38.89,0,0,0,565.49,394C567.9,386.68,569.67,379.21,569.15,373.4Z"/><path class="cls-6" d="M207.37,590.94c0,3-.15,6,0,8.95,1,21.36-1.28,42.64-1.86,64a252.64,252.64,0,0,1-5.05,44.86c-2,9.62-2.93,19.53-5.09,29.17-2.5,11.17-5.84,22.18-11.93,31.91-4.49,7.2-10.7,13-19,16.07-9.89-3.24-19.45-7.28-29-11.42-.11-1.8,1.22-1.48,1.91-1.56,14.16-1.74,23.28-10.33,29.83-22.18,6.44-11.68,8.95-24.69,11.62-37.54,3.18-15.32,4.56-30.94,5.86-46.49,2-24.23,3.28-48.52,4.67-72.8.63-10.9.77-21.83,1.2-32.74.06-1.62-.56-3.38,1.24-5.5C196.83,567.79,203.59,578.68,207.37,590.94Z"/><path class="cls-9" d="M392.56,729.53c3.93-2.4,7.82.07,11.35.81,17,3.61,33.93,2.48,51.09,1.4,34.53-2.17,65.74-14.62,96-29.88,22.37-11.29,44-24,65.45-37.1,1.93-1.19,3.69-2.56,6.15-2,.54,3.39-.85,6.33-2.25,9.23-4.42,9.17-9,18.25-13.29,27.48a13.4,13.4,0,0,1-7.65,7.51c-21.47,8.43-42.72,17.47-64.35,25.46-15.13,5.59-31.11,8.24-47,11-13.75,2.42-27.45,4-41.44,2.89-18.07-1.46-35-6.76-51.25-14.5C394.21,731.3,393,730.88,392.56,729.53Z"/><path class="cls-6" d="M713.55,224.77a324.34,324.34,0,0,0-50.07-34.55c-18.66-10.62-38.32-18.74-58.42-26-1-.37-2.6-.18-2.77-2.6,3.63.46,7.19.66,10.63,1.39,38.06,8.14,71.74,25.4,102.89,48.42,18.52,13.68,34.94,29.54,50.26,46.45,16,17.65,29.24,37.44,41,58.28,13.56,24,22.89,49.51,29.51,76.08a265.92,265.92,0,0,1,5.73,33.59c1.24,10.69.92,21.31,1.17,32,0,1.59.53,4.08-2,4-2-.05-2.47-2.21-2.44-4,.09-5.23-.93-10.35-1.39-15.51-1.34-15.14-5-29.76-9.07-44.29-6.51-23-16-44.91-27.33-65.9a344.2,344.2,0,0,0-37.57-56.21,368.8,368.8,0,0,0-27.46-30.33c-1.62-1.56-3.29-3.09-3.42-5.57,3.8-7.63,2-11.68-6.09-13.25C722.38,225.85,718,225.4,713.55,224.77Z"/><path class="cls-7" d="M781.13,492.27a2.72,2.72,0,0,1,2.42,2.43q1.62,14.37,3.2,28.74C790,553.65,788,584,787.92,614.2c0,13-1.86,26.09-3.61,39.1-1.85,13.73-3.29,27.52-6.63,41C769.77,726,760.81,757.48,749,788a201.33,201.33,0,0,1-15.83,32c-1.16,1.9-2.16,3.89-3.23,5.85-5.25,3.37-11.33,4.57-17.49,7.47-.51-3,.93-4.49,1.88-6,11.41-18.49,19.9-38.28,27.5-58.62C755.72,731.45,764.2,692.9,771.08,654c4-22.71,7.24-45.59,8.54-68.73,1-18.36,1.73-36.73,2.45-55.1.39-10-1.06-19.84-1.31-29.77C780.69,497.68,780.13,494.94,781.13,492.27Z"/><path class="cls-6" d="M274.68,239.84c-17,20.28-28.23,43.69-36.59,68.57-5.21,15.52-11,30.87-14.57,46.89-2.49,11.08-4.55,22.22-6.12,33.52-1.5,10.78-1.86,21.68-3.85,32.38a9.16,9.16,0,0,0-.14,1.48c-.25,13.89.43,27.8-1.51,41.63l-13,11c-2.22-1.53-1-3.36-.83-4.86,2.57-28.94,4.51-58,8-86.79,4.63-38,11.32-75.66,29-110.31a268.3,268.3,0,0,1,30.1-46.93,19.19,19.19,0,0,1,2.31-1.9C270.37,229.63,273.1,234.43,274.68,239.84Z"/><path class="cls-4" d="M429.55,867.83a26.09,26.09,0,0,1-14.94-1.08,48.84,48.84,0,0,1,5.65-8.64c8.23-11.08,16.66-22,23.91-33.79s14.35-24.17,22.44-35.71c2.82-4,6.93-8,6.48-13.81,11.81-2.73,22.52-8.34,33.25-13.39a3.73,3.73,0,0,1,.51,4.1c-5.37,15.75-10,31.72-16.75,47-11.27,25.66-29.15,44.1-56.28,52.78C432.22,865.81,430.27,865.81,429.55,867.83Z"/><path class="cls-6" d="M764.07,811.14a18,18,0,0,1,2.38-8.41c12-21.28,20.63-44,27.55-67.4,5.21-17.56,9.37-35.41,12.89-53.38q4.2-21.45,6.74-43.19c1.43-12.26,3.4-24.49,4.13-36.8.54-8.89,1.59-17.78,1.72-26.68.27-18.4.11-36.81.11-55.21,0-15.38-1.91-30.58-4.18-45.75-.42-2.82-.06-5.76-.06-8.86,4.24,4,3,9.27,3.81,13.78,1.79,9.69,2.29,19.62,3.47,29.43,2,16.49,2.39,33.07,3.32,49.63.59,10.41,1.6,20.85.86,31.18-1,13.82-.47,27.72-2.51,41.49-.94,6.33-.81,12.8-1.47,19.23a611.57,611.57,0,0,1-11.46,70.93A454.92,454.92,0,0,1,792.77,783c-2,5.27-6.21,9.74-6,15.85C779.71,803.87,772,807.62,764.07,811.14Z"/><path class="cls-9" d="M429.55,867.83c.72-2,2.67-2,4.27-2.53,27.13-8.68,45-27.12,56.28-52.78,6.72-15.29,11.38-31.26,16.75-47a3.73,3.73,0,0,0-.51-4.1c-10.73,5.05-21.44,10.66-33.25,13.39-4.69,0-9.37.19-14,.06-4.39-.11-8.93.48-13-1.94a9.05,9.05,0,0,1,.1-1.48c2.39-10.4,1.22-8.31,10.39-8.24,25.54.18,50.48-3,74.44-12.37,2-.79,4-2,6.42-1.51l-.1-.11c.66,1.25.23,2.4-.32,3.53-9.49,19.51-15.48,40.19-20.21,61.26a27.33,27.33,0,0,1-8.91,14.91,193.33,193.33,0,0,1-43.5,29.62A87.58,87.58,0,0,1,429.55,867.83Z"/><path class="cls-6" d="M567.32,141.07a1,1,0,0,0,0-.81c16.06-1.61,32.11-3.12,48.29-3,50.43.43,99.34,8.63,146.07,28.23a176,176,0,0,1,35.13,19.42,254.79,254.79,0,0,1,68.54,73.83,12.78,12.78,0,0,1,.81,2.06c-3.33.45-4.79-2.24-6.66-4.09-9.15-9.07-18-18.42-27.41-27.27A316.89,316.89,0,0,0,793.63,198c-10.6-7.26-20.76-15.15-32.44-20.91-19-9.37-39.15-15.35-59.54-20.66-19.62-5.12-39.58-8.23-59.69-10.82-7.59-1-15.33-.32-22.82-2.44a8.73,8.73,0,0,0-7.23.65C597.07,142.51,582.23,141.19,567.32,141.07Z"/><path class="cls-10" d="M444.66,432.81c2.34-1.4.88-3,.13-4.42-2.91-5.53-4.52-11.53-6.49-17.4-.63-1.89-1.45-3.72-.06-6.16,3.55,1.36,4.56,4.76,6,7.63,4.17,8.22,8.95,16,15.41,22.65A48,48,0,0,0,481,448c18,5.28,36.24,8.41,54.94,6.86a129.7,129.7,0,0,0,42.29-10.57c5.21-2.32,10.37-4.82,15.33-7.63,18.78-10.65,32.55-25.7,39.73-46.33,2.28-6.54,4.35-13.15,6.61-19.7.76-2.2.26-4.43.49-6.63l3.26.08c3.09,1.46,3.63,4.54,4.43,7.33,4,14.05,6.44,28.28,4.33,43-.45,3.17-1,6.31-1.57,9.47l-20.73,6.09c-.17-.18-.35-.35-.53-.53.47-3.08,2.48-5.4,4-7.89a69,69,0,0,0,10.1-30.87c.62-6.65,1.83-13.2-1.4-20.16-.6,3.9-1.25,7.25-1.62,10.63-2.53,23.33-13.11,42.48-30.25,58.17-7.69,7-17.3,10.77-26.78,14.39-14.45,5.53-29.61,8-45.06,9.33-17.35,1.52-34.2-.64-50.83-5.05a97.07,97.07,0,0,1-38.69-20.21C447.43,436.28,445.51,435,444.66,432.81Z"/><path class="cls-4" d="M458.21,217.68c21,11.85,43.46,20.4,65.25,30.48,1.06.49,2.35.75,3.09,2.3-2,2-4.83,2.17-7.32,2.76a174,174,0,0,0-30.09,10.61c-2.52,1.11-4.76,3.15-8.18,1.66-2.09-.91-3,1.9-4.35,3.3-3.74,4.06-4.75,4.2-9.06.8-12.41-9.78-26.47-16.4-41.22-21.74-1.37-.5-2.72-1.1-4.08-1.65,0-1.91,1.13-3.22,2.37-4.48,7.33-7.48,15.33-14.05,24.71-18.89C452.36,221.27,455.89,220.49,458.21,217.68Z"/><path class="cls-3" d="M397.05,771.82a34.15,34.15,0,0,0,10.85-12.46c1.71-3.32,3.75-4,7.18-2.74a111.2,111.2,0,0,0,10.74,2.94c6.55,1.71,6.57,1.7,6.74,8.16a35.79,35.79,0,0,1-.17,5.18c-.81,6.54-.84,6.56-7.39,7.94-13.67,2.88-26.29,8.65-39,14.15-13.85,6-27.37,12.85-42.3,16-3.14.66-6.33,1.13-9.5,1.68,1.18-3.41,4.39-5.09,6.54-7.69,2-2.37,5-4,5.48-7.44,6.49-5,9.79-12.31,13.68-19.11A123.21,123.21,0,0,0,372.74,747c.83-3.32,1.78-4.92,5.41-2.93s7.54,3.58,11.32,5.34c0,3.38,1.29,6.48.54,10.17-2.28,11.18-5.49,21.87-11.95,31.42-.11.17.41.77.94,1.73,7.47-4.24,13.47-9.63,16.48-17.92,1.27-.66,2.78-1.18,1.63-3.1Z"/><path class="cls-6" d="M564.26,238.41c-6.89-4.52-14.8-6.87-22.32-9.88-19-7.58-36.68-17.49-54.3-27.62-9.06-5.21-13.25-15.33-11.45-25.55a13,13,0,0,1,4.92-8.1c9.54-7.46,21-11,32.08-15.13a5.25,5.25,0,0,1,5.25.7c-3.9,2.85-7.7,5.52-11.38,8.34-4.57,3.51-8.63,7.51-10.66,13.1-1.56,4.28-1.16,7.95,2.22,11.57,8.43,9,19.73,13,30.34,18.38,18.65,9.38,38.9,14.78,57.76,23.63,2.13,1,4,1.9,5,4.08Z"/><path class="cls-11" d="M261,488.88c.28,3.33-2.23,4.09-4.59,4.9-3.28,1.14-6.64,2.05-9.89,3.26-12,4.46-19.4,12.58-22.91,25.24-4.42,15.91-2.28,31.4.73,47,2.16,11.15,4.44,22.34,9.34,32.75a7,7,0,0,1,.22,4.39c-14.29-23.44-25.53-48.18-30.18-75.4-2.18-12.77.52-25.26,6.32-36.82a30.48,30.48,0,0,1,14.32-13.62,100.44,100.44,0,0,1,10.37-4.07c7.52-2.69,14.54-4.43,18.9,5.34A14.33,14.33,0,0,0,261,488.88Z"/><path class="cls-6" d="M856.85,744.87c-2.78-2.3-.73-4.79.19-6.74,4.84-10.37,8.46-21.17,12-32a491.71,491.71,0,0,0,16.41-65.42c2.91-16,5.95-32.05,8.39-48.15,1.63-10.74,1.88-21.68,3.53-32.41,1.32-8.58.46-17.33,2.51-25.8a22.74,22.74,0,0,0,.29-3.71c1.75-23.29,1.62-46.61,1.52-69.94,0-1.21,0-2.42,0-3.75,2.16.34,1.49,1.75,1.49,2.61.2,32,2.68,64,1.39,96-.71,17.52-1.79,35-3.94,52.48-2,16.18-4.58,32.27-6.48,48.45-2,17-6.86,33.39-11.2,49.88-1,3.79-2.71,7.52-2.07,11.63l0-.08a1.87,1.87,0,0,0-1.4,1.89A178.3,178.3,0,0,1,856.85,744.87Z"/><path class="cls-10" d="M629.91,344.62c-4-.1-5.34-3.23-6.66-6.12-7.43-16.23-7.08-32.29.27-48.64,7.11-15.8,18.16-28.08,31.5-38.66a12.59,12.59,0,0,0,1.81-2.3c3.22-2.19,6.33-4.53,9.65-6.6,2.54-1.58,5.84-2.77,6.68-6.3,10.83-.65,21.63-.3,33.34.12-2.33,4.17-5.66,4.81-8.36,6.16a130.2,130.2,0,0,0-45.82,37.4C637.71,298.79,629.47,320.24,629.91,344.62Z"/><path class="cls-12" d="M673.16,236c-.84,3.53-4.14,4.72-6.68,6.3-3.32,2.07-6.43,4.41-9.65,6.6-10.5,1.64-21.06,3-31.47,5-9.24,1.81-18.6,2.46-27.87,3.91A201.39,201.39,0,0,0,575,262.25c-13.84,3.83-28,6.11-42,9.07,1.58-3.61,5.55-5.38,7.89-9.76-9.12,1.22-13.48,7.19-18,12.88-3-.36-5.67.62-8.45,1.41-3.68,1-7.13,2.92-11.06,3.07.42-8.95,2.27-11.4,10-14.05,4.73-1.62,9.66-2.2,14.46-3.37,13.73-3.32,27.48-6.67,41-10.78,15-4.57,30.1-8.4,45.76-9.71C634.08,239.37,653.54,236.74,673.16,236Z"/><path class="cls-11" d="M446,772.92c4.07,2.42,8.61,1.83,13,1.94,4.68.13,9.36,0,14-.06.45,5.8-3.66,9.79-6.48,13.81-8.09,11.54-15.1,23.74-22.44,35.71S428.49,847,420.26,858.11a48.84,48.84,0,0,0-5.65,8.64c-6-1-8-5.33-8.65-10.57-.51-4.29.88-8.25,2.64-12.2,3.7-8.25,9.11-15.4,14.43-22.53,10.84-14.52,18.75-30.27,22.45-48.06C445.52,773.21,445.85,773.08,446,772.92Z"/><path class="cls-7" d="M860.14,565.93c-.11-4.83-.54-9.67.42-15.17a5.9,5.9,0,0,1,3.6,5.16c.65,6.4,1.52,12.82,1.57,19.24a387.51,387.51,0,0,0,2.91,43.74c.73,6-1.36,11.79-1.24,17.78.29,14.17-2.26,28.08-4,42.08a344.35,344.35,0,0,1-16.31,69.31,11.51,11.51,0,0,0-.52,5.87l0-.18c-1.1.4-1.31,1.39-1.59,2.34-5.64,5.59-10.51,12-17.92,15.59l0,0c0-.49-.21-1.06,0-1.45,12.17-25.3,18.16-52.46,23.53-79.73,3.68-18.73,7.65-37.44,9.78-56.45,2.35-21,2.69-42.11,2.4-63.22C862.7,568.7,862.38,566.83,860.14,565.93Z"/><path class="cls-11" d="M434.22,448.7c-2.49,2.87-6.18,2.47-9.38,3.39-10.88,3.11-22.18,4.79-32.3,10.38-7.74,4.27-13,14.16-11.64,22.88s3.48,16.89,8.54,24.19c2,2.86,2.82,5.82-.32,8.56-8.74-8.55-15.43-18.65-21.73-29a39.61,39.61,0,0,1-6.19-22.59c.3-7.63,3.56-13.16,10.67-16.41,11.88-5.42,24.47-5.95,37.11-5.15,6.28.4,12.8.4,18.73,3.63C429.41,449.47,432,448.69,434.22,448.7Z"/><path class="cls-7" d="M225.34,782.28c-.05.25,0,.63-.15.72-4,2.51-7.94,5-10,9.73-2.4-2.56-1.19-4.12-.49-5.61,6.19-13.18,8.51-27.29,10.9-41.53a316.12,316.12,0,0,0,3.76-33.17c.89-15.07,1.14-30.21-.54-45.38-1.58-14.3-4.23-28.39-6.32-42.59a6.76,6.76,0,0,1,.71-4.34c5.44,6.16,9,13.64,14,20.12a10.19,10.19,0,0,1,1.58,4.9c2.22,14.75,3.81,29.55,3.36,44.47-.89,29.79-6,58.68-19.7,85.53C220.5,778.82,221,781.28,225.34,782.28Z"/><path class="cls-7" d="M589.14,728.83a3.35,3.35,0,0,1-.54,2.93c-10.75,18.2-20.42,37-32.28,54.56-3.57,5.28-3.74,5.46-8.85,1.45-11.15-8.75-10.63-4.74-5-18.24,3.73-8.92,7.69-17.81,13-26,1.51-2.29,2.92-4.59,5.66-5.72a239.33,239.33,0,0,1,26-9.28A5.19,5.19,0,0,1,589.14,728.83Z"/><path class="cls-12" d="M337.26,198.13c-2.06,1.6-4.08,1.21-6.18,0-11.85-6.89-25.11-10.41-37.68-15.6-9-3.73-18.63-5.95-30.08-8.58,11.58,23.57,21.68,45.86,29.51,69.58-4-.09-3.43-5-6.81-4.53l.11-.11c.43-1.52.18-2.7-1.56-3.12l.12.14c.33-1.5.05-2.68-1.63-3.13l.16.2a1.73,1.73,0,0,0-1.19-1.9c-12.6-24.27-25.25-48.51-36.89-75.26,8.61,3.17,15.51,5.61,22.35,8.23,20.84,8,41.25,16.91,60.77,27.78C331.46,193.59,335,194.93,337.26,198.13Z"/><path class="cls-3" d="M443.28,204.08c-6.94,1.94-13.44,3.5-19.79,5.57C408.78,214.44,395,221.24,381.64,229c-4.16,2.44-4.23,2.33-6.4-2.11-1.63-3.35-3.23-6.72-4.9-10.05-2.09-4.19-2.18-4.34,2.36-6.44a243.62,243.62,0,0,1,59.65-18.36c2.75-.49,4.59-.42,5.79,2.69S441.21,200.4,443.28,204.08Z"/><path class="cls-10" d="M316.43,429.65c2.38-.39,4.39.7,6.32,1.79,7.73,4.38,16.27,6,24.87,7,8,.91,15.74-1.49,23.29-3.89,21.24-6.75,38.47-19.07,51.37-37.4,10.61-15.09,19.82-30.87,25.44-48.55a23.23,23.23,0,0,1,1.39-3.43c.18-.37.74-.56,1.89-1.36-3.06,22.78-11,43-22.57,62-1.21-.3-3.49-2-3.25.51.47,4.81-2.64,6.45-5.74,8.48-7.06,4.59-14.07,9.25-21.13,13.85-6.24,4.08-12.65,7.69-20.32,8.41a14.34,14.34,0,0,0-6.38,1.8c-10,6.51-20.55,3.94-31,2.13a54.93,54.93,0,0,1-20.78-7.66C318.44,432.4,316.78,431.61,316.43,429.65Z"/><path class="cls-7" d="M289.66,764.7c-1.79,13.79-12.23,31.23-22.57,37.72a1.23,1.23,0,0,1-.75-1.74c7-10.8,10.51-22.75,13.25-35.26a221.82,221.82,0,0,0,5.29-54.56c-.23-7.65-2.13-15.22-1.27-23,4.6,1.43,7.94,4.94,12,7.31,3.5,2.06,2.8,5.47,2.55,8.68A255.31,255.31,0,0,1,289,755C288.07,758.21,286.46,761.7,289.66,764.7Z"/><path class="cls-9" d="M458.21,217.68c-2.32,2.81-5.85,3.59-8.88,5.15-9.38,4.84-17.38,11.41-24.71,18.89-1.24,1.26-2.37,2.57-2.37,4.48C411,243.73,399.92,240,386.82,240c8.31-6.3,16.59-10.12,24.63-14.12a148,148,0,0,1,35.06-12C451.35,212.85,455.31,213.33,458.21,217.68Z"/><path class="cls-10" d="M484.94,420.85c-4.47-.55-5.81-4.71-7.63-7.57-16.9-26.55-18.49-67.31.55-93.69,1-1.37,1.7-3.11,3.63-3.57,5.42,4.82,5.38,4.8,2.2,10.66-9.7,17.81-12.15,36.82-9.79,56.76A119.65,119.65,0,0,0,484.94,420.85Z"/><path class="cls-6" d="M407.42,141.15c-.79,2-2.82,1.8-4.32,2.52a545,545,0,0,0-63.2,36c-1.86,1.21-4,2.07-4.31,4.71l-15-7.55c.29-2.92,2.54-3.34,4.07-4.39,18.88-12.87,40.43-19.54,61.85-26.48C393.32,143.74,400.16,141.48,407.42,141.15Z"/><path class="cls-7" d="M346.2,797.52c-.48,3.47-3.52,5.07-5.48,7.44-2.15,2.6-5.36,4.28-6.54,7.69-.92,1-2,.75-3.09.41-.21-5.1,3.93-8.33,5.52-12.71A162.29,162.29,0,0,0,345,764.52c1.49-12.08,1.3-24.11,1.28-36.18.89.41,1.81.77,2.67,1.25,13.14,7.3,13.59,7.41,10.21,21.62s-5.4,28.87-12.39,42A4.74,4.74,0,0,0,346.2,797.52Z"/><path class="cls-9" d="M282.2,400.5a209.56,209.56,0,0,0-16.52,34.56c-2.67,7.44-5,14.89-6.14,22.72-.21,1.5-.38,3-2.06,3.59-.75-8.71,1.12-17.21,2.3-25.73a250.22,250.22,0,0,1,13.8-53.84c.49-1.3.64-2.93,2.88-3.94C278.39,385.49,280.29,393,282.2,400.5Z"/><path class="cls-5" d="M650.86,423.82c.53-3.16,1.12-6.3,1.57-9.47,2.11-14.67-.32-28.9-4.33-43-.8-2.79-1.34-5.87-4.43-7.33-.79-6.69-4.5-12.58-5.3-19.28-.21-1.7-1-3.33-.51-5.72a53.66,53.66,0,0,1,8,15c6.84,19.39,13.22,38.93,15.92,59.44,1.06,8,1.15,8.06-6.48,9.93A26.87,26.87,0,0,1,650.86,423.82Z"/><path class="cls-7" d="M395.48,774.77c-3,8.29-9,13.68-16.48,17.92-.53-1-1.05-1.56-.94-1.73,6.46-9.55,9.67-20.24,11.95-31.42.75-3.69-.49-6.79-.54-10.17.24,0,.5-.18.71-.13,12.5,2.82,12.42,2.8,8.65,14.85-.78,2.5-2.29,4.91-1.78,7.73l.06-.15C395.36,772.07,395.61,773.52,395.48,774.77Z"/><path class="cls-9" d="M662.91,470c-2.43-3-1.93-7-3.09-10.43-3-8.92-9.06-13.1-18.16-13.5-2.2-.1-4.46.26-6.5-.95,7.8-4.44,16.44-4.66,25.06-5,2.38-.1,3.77.86,3.65,3.42C663.47,452.38,664.9,461.28,662.91,470Z"/><path class="cls-13" d="M525.25,827.15A198.86,198.86,0,0,1,532.4,798c1-3.12,2.64-2.86,5-1.35,8.14,5.21,8.29,5.62,2.81,13.53-3.11,4.49-6.26,9-9.52,13.33C529.58,825,528.69,827,525.25,827.15Z"/><path class="cls-5" d="M497.17,281.91c.12,3.87,1.6,8.51,0,11.38s-6.36,4.17-9.78,6c-1.46.8-2.77,2.06-4.91,1.92a20.81,20.81,0,0,1-3.15-11.64C485.5,287.62,490.82,283.56,497.17,281.91Z"/><path class="cls-12" d="M497.17,281.91c-6.35,1.65-11.67,5.71-17.87,7.7-.27-2-.6-3.91-.8-5.87-.22-2.13.32-3.87,2.48-4.9,6.15-2.93,12.27-5.94,19.72-9.56C499.24,274.49,498.21,278.2,497.17,281.91Z"/><path class="cls-5" d="M503.29,278.92c3.93-.15,7.38-2,11.06-3.07,2.78-.79,5.49-1.77,8.45-1.41-1.61,3.85-3.45,7.62-4.76,11.56-.74,2.25-2,2.95-4.1,3.49-7.75,2-9.61.9-10.83-6.92A18,18,0,0,1,503.29,278.92Z"/><path class="cls-12" d="M472.08,296.43c-7.39,3.82-12.91,9.62-17.44,16.46-.41.61-.73,1.28-1.15,1.89a2.15,2.15,0,0,1-2.49,1.05c-1.53-.46-1.62-1.71-1.33-2.95.34-1.43.88-2.81,1.33-4.2,3-.19,3.1-2.84,4-4.72a48.88,48.88,0,0,1,15.36-18.29C472.43,289.27,471.43,293,472.08,296.43Z"/><path class="cls-10" d="M497.75,301.06c1.85,0,3.69.05,4.48,2,.88,2.2-1.11,3-2.37,4.07-1.49,1.3-3.06,2.54-4.41,4-1.65,1.73-3.34,2.22-5.1.43s-5.56-2.94-5.11-5.87c.47-3.13,4.22-2.67,6.72-3.35C493.86,301.82,495.81,301.48,497.75,301.06Z"/><path class="cls-7" d="M780,481.71c3.23,2.21,2.89,4.85,1,7.7C778.63,487.09,779.45,484.39,780,481.71Z"/><path class="cls-6" d="M869.11,265.35c-3.33,0-3.27-2.27-3.09-4.62A7.85,7.85,0,0,1,869.11,265.35Z"/><path class="cls-11" d="M235.21,609c1.8.53,1.83,2,1.88,3.47A4.68,4.68,0,0,1,235.21,609Z"/><path class="cls-5" d="M283.06,232.76c1.68.45,2,1.63,1.63,3.13C283.29,235.29,283,234.11,283.06,232.76Z"/><path class="cls-5" d="M284.57,235.75c1.74.42,2,1.6,1.56,3.12C284.73,238.27,284.46,237.11,284.57,235.75Z"/><path class="cls-5" d="M302.66,325a4.8,4.8,0,0,1,1.26-3.2c.25.21.5.42.76.61a4.75,4.75,0,0,1-1.47,3Z"/><path class="cls-5" d="M300.94,327.77a3.81,3.81,0,0,1,1.72-2.79l.55.42a4.8,4.8,0,0,1-1.51,3C301.44,328.18,301.19,328,300.94,327.77Z"/><path class="cls-11" d="M233.63,606.14c1.83.37,2,1.69,1.78,3.18C234.17,608.62,233.87,607.4,233.63,606.14Z"/><path class="cls-6" d="M408.81,140.57l-1.67.86C407.31,140.4,408,140.45,408.81,140.57Z"/><path class="cls-5" d="M282,231.06a1.73,1.73,0,0,1,1.19,1.9C282.25,232.69,282,232,282,231.06Z"/><path class="cls-10" d="M630.13,429.91c-.3.26-.78.8-.85.75-.91-.65-.19-.94.33-1.27C629.78,429.56,630,429.73,630.13,429.91Z"/><path class="cls-6" d="M872,269.93c-.52-.79-1-1.59-1.57-2.38A2.87,2.87,0,0,1,872,269.93Z"/><path class="cls-6" d="M870.23,267l-1.34-1.71A1.68,1.68,0,0,1,870.23,267Z"/><path class="cls-14" d="M567.32,141.07c14.91.12,29.75,1.44,44.59,2.77l46.4,8.22c1.05,1.72,3,1.61,4.59,2.1a215.63,215.63,0,0,1,70.17,36.91c7.23,5.67,13.85,12.15,21.25,17.56a212.79,212.79,0,0,1,50.21,51.44,609.19,609.19,0,0,1,36.68,59.6c5.49,10.34,8.24,21.82,12.68,32.59C864.08,377,867.57,403,868.61,429.39c.77,19.35.29,38.76.41,58.15,0,2.71-.48,5.46.47,8.13-.7,4.66-1.39,9.33-2.11,14a26.65,26.65,0,0,1-3.77,10.77c-2.71-.61-2.29-2.36-2.39-3.72-3-38.9-5.81-77.82-9-116.7-1.62-19.75-8-38.27-15.35-56.57C820.2,302,795.25,266.11,763.76,234.66c-9.5-9.48-19.32-18.65-29.62-27.29-27.09-22.73-57.32-39.16-92.16-46.67-24.52-5.29-49.11-10.12-73.85-14.23-.25,0-.5-.05-.74-.11-2-.51-5.41.39-5.47-2.47S565.38,141.89,567.32,141.07Z"/><path class="cls-7" d="M869.49,495.67c-1-2.67-.46-5.42-.47-8.13-.12-19.39.36-38.8-.41-58.15-1-26.38-4.53-52.38-14.72-77.13-4.44-10.77-7.19-22.25-12.68-32.59a609.19,609.19,0,0,0-36.68-59.6,212.79,212.79,0,0,0-50.21-51.44c-7.4-5.41-14-11.89-21.25-17.56a215.63,215.63,0,0,0-70.17-36.91c-1.57-.49-3.54-.38-4.59-2.1,4.13-1.84,8.12,0,12,.84a163.62,163.62,0,0,1,42.91,16.45c14.16,7.79,28.4,15.29,41,25.48,20.49,16.55,40.27,33.79,56.54,54.79s32,42.54,43,66.83c7.77,17.12,14.54,34.86,17.65,53.58,1.74,10.48,2.32,21.15,3.3,31.75,2,22.06,1.87,44.17,1.47,66.27a123.83,123.83,0,0,1-2.83,22.82C872.91,493.2,872.18,495.19,869.49,495.67Z"/><path class="cls-14" d="M387.09,640.05c8.22,2.11,13.71,8.6,21.43,10.65,1.41-2.08.39-4.24-.06-6.24a191.32,191.32,0,0,0-41.66-83.15,18.4,18.4,0,0,0-7.92-5.25c-14.13-5.38-26.47-13.64-37.65-23.72a29.57,29.57,0,0,1-7-8.62,1.55,1.55,0,0,1,.44-2,1.45,1.45,0,0,1,2,0,10.52,10.52,0,0,1,1.14,1c13.54,14.5,30.71,22.48,49.52,27.45A267.11,267.11,0,0,0,441,559.26a217.38,217.38,0,0,0,71.54-13.1,142.23,142.23,0,0,0,52.82-34.11c1.69-1.73,3.82-3.19,4.57-5.8-3.42-1.43-6.64,2-10,.34-.46-3.11,2.16-3.78,3.93-4.75,8.5-4.66,17-9.29,25.69-13.62A49.17,49.17,0,0,1,610.35,483c9-.26,14.87,4,18.13,11.68,2.93,6.88,3.65,14.14-.71,20.85-3.1-.46-3.21-2.43-3.81-3.94a54.19,54.19,0,0,0-7-12.24,9.77,9.77,0,0,0-6.87-4c-5.23-.7-6.06,0-5.61,5.37.78,9.16,1.72,18.3,2.48,27.46,1.11,13.22-.06,26.33-2.22,39.36a226.67,226.67,0,0,1-19.3,61.62c-15.69,32.64-42.59,49-77.1,54a138.71,138.71,0,0,1-69-7.35c-19.65-7.31-36.17-19.55-51.53-33.5C387.49,642.09,387.5,641.45,387.09,640.05ZM589.78,516.11a18.81,18.81,0,0,0-3.08-11c-2.47.66-3.36,2.57-4.59,4.06C561.37,534.22,535.22,551,504,560a257.14,257.14,0,0,1-50.49,9,200.92,200.92,0,0,1-56.29-3c-3.88-.78-7.81-2.43-13-1.53L393.54,576c1.28,2.13,2.5,4.3,3.83,6.39,13.57,21.39,22.48,44.74,29.12,69.05C425,662.81,433.14,665.4,441.33,668c2.13.67,4.25,1.41,6.43,1.9a183.15,183.15,0,0,0,47.33,4.56,104.1,104.1,0,0,0,41.7-10c15.41-7.43,27.92-17.86,36.2-33.14a173.28,173.28,0,0,0,20.64-68A133.5,133.5,0,0,0,589.78,516.11Z"/><path class="cls-14" d="M419.1,703.83l-4.18-1c-2.55-2.08-5.74-2.74-8.72-3.81a134,134,0,0,1-39.5-22.14c-13-10.64-24.67-22.5-28.48-39.84,2.58-16.14,14.31-20.56,29.87-19.08a36,36,0,0,1,14.1,4.24c1.7.93,3.81,2,3.35,4.35-.57,2.84-3.34,1.17-5,1.87-2.22-.89-4.55-.52-7-1.5-5.8-2.34-12.22-2-18.25,0-6.26,2-8.72,7.11-6.8,13.52a39.52,39.52,0,0,0,8.07,14.11,110.77,110.77,0,0,0,20,18.77c20.51,14.7,43.61,23.09,68.13,28l9.29,2.54c-4.38,3.27-8.65,3.21-12.73,2.92-6.33-.44-12.64-1.41-18.95-2.16A2.4,2.4,0,0,0,419.1,703.83Z"/><path class="cls-11" d="M444.75,701.34c-24.52-4.94-47.62-13.33-68.13-28a110.77,110.77,0,0,1-20-18.77,39.52,39.52,0,0,1-8.07-14.11c-1.92-6.41.54-11.48,6.8-13.52,6-2,12.45-2.3,18.25,0,2.43,1,4.76.61,7,1.5-2.3,2.25-5.19,1.2-7.82,1.33-7.39.36-10.52,4.39-8,11.29,1.62,4.4,3.47,9.07,6.48,12.53a139.42,139.42,0,0,0,19.2,18.65c12.91,10.06,27.39,16.78,42.69,22.23C437.23,696,442.24,696.77,444.75,701.34Z"/><path class="cls-11" d="M655.3,489.82c-1.94,3.92-.93,8.85-2.76,13.3-.79,1.93-1.38,3.89-3.77,4-2.87.13-3.38-2.18-4.21-4.35-1.12-2.87-1-5.8-1.23-8.77-.39-6.45-2.77-12-7.88-16.22-2.37-1.95-4.94-3.44-8.09-3.24-4.76.31-9.19-2.08-14-1.59a3.55,3.55,0,0,1-3.7-2c-.75-1.66.56-2.74,1.52-3.86,5.86-6.85,16.3-9.39,25.92-6.29s16.16,11,16.63,20.55C653.9,484.11,654.92,486.63,655.3,489.82Z"/><path class="cls-9" d="M338.22,637.07c3.81,17.34,15.45,29.2,28.48,39.84a134,134,0,0,0,39.5,22.14c3,1.07,6.17,1.73,8.72,3.81-2.77,2.77-5.87.39-8.21-.25-23.3-6.39-44.66-16.44-61.61-34.32-7.24-7.64-10.9-16.45-9.35-27.11C336,639.4,336.11,637.67,338.22,637.07Z"/><path class="cls-14" d="M595.51,656.94a4.9,4.9,0,0,1-5.75,4.25c-2.65-.4-3.82-2.11-3.54-4.63a4.58,4.58,0,0,1,4.89-4.41A4.45,4.45,0,0,1,595.51,656.94Z"/><path class="cls-9" d="M419.1,703.83a2.4,2.4,0,0,1,3.26.81C420.75,706.46,419.84,705.48,419.1,703.83Z"/><path class="cls-14" d="M324.26,296.22c-.9-9-.14-17.82,4.11-26,1.21-2.33,2.27-4.9,6.47-6.45-3.8,12.41-5.27,24-.2,35.36,1.78,4,3.29,8.18,7.14,11.5,4.38-4.94,8.39-9,6.08-16.35-2.47-7.81-1.23-15.77,2.38-23.1,1.75-3.57,3.06-7.92,8.12-8.47l-.1-.1c-1.87,5.12-4,10.16-5.13,15.53-1.11,5.2-1.58,10.32,1.27,15.92,5-4.13,10-8.08,14.79-12.22,1.6-1.38,1-3.75,1.6-5.62,1.63-4.89,2.64-10.1,8.08-13.57.17,5.4-4.76,9.35-2.29,14.91,6.31-1.43,12.5-3.92,19.09-4.63,1.92-.2,2.64-2.1,3.61-3.52a18.9,18.9,0,0,1,5.58-5.92c.87-.53,1.79-1,2.69-.19s.48,1.76-.09,2.61c-1.36,2.05-3.39,3.67-4.13,7.11,7.4,1.33,14.26,4.39,21.75,7.25-4.58,8.61-5.68,17.83-4.55,27.41a21.76,21.76,0,0,0,2.42,8.55c18.47,31.79,7,71.22-18,94.27-12.76,11.76-27.62,18.45-45.2,17.91-12.08-.37-21-6-27.41-16.42-13.16-21.34-12.83-43.73-6.34-66.78a81.87,81.87,0,0,1,7.73-19.34c2.38-4.08,2-7.24-.81-10.77-3.57-4.53-5.79-9.83-7.8-15.2A4.31,4.31,0,0,0,324.26,296.22Zm11.44,82c.48,10.49,1.88,20.45,6.58,29.84,4,7.9,10.38,11.06,18.69,11.11,13,.07,24.35-4.47,34.23-12.7,10.72-8.93,18.86-19.88,23.37-33.12,6.93-20.39,5-39.76-8.4-57.2s-38.29-17.66-51.54-.51C344.38,334.05,337.25,355.26,335.7,378.2Zm83.46-94.73c-5.27-1.85-9.92-2.23-14.55-2.63-1.63-.14-3.11.48-2.95,2.43.62,7.51,1.7,14.84,9.8,19.24A50.23,50.23,0,0,1,419.16,283.47ZM393,282.56c-2.49-.52-4.74.76-7.08,1.34a57.59,57.59,0,0,0-5.52,2.07c-2.63.95-2.62,2.45-1.13,4.48,1.83,2.47,10.57,4.91,13.51,3.14s.54-4.94.94-7.45A4.48,4.48,0,0,0,393,282.56Zm-23.23,10.12c-1.11.17-1.43,1.14-1.48,2.11a3.19,3.19,0,0,0,1.92.5,1.2,1.2,0,0,0,1.16-1.51C371.14,293.05,370.78,292.44,369.74,292.68ZM367,296.12c-.14-.16-.27-.44-.43-.46s-.35.23-.53.35c.15.16.28.44.44.45S366.84,296.24,367,296.12Z"/><path class="cls-12" d="M324.26,296.22a4.31,4.31,0,0,1,.84,3.66c-11.76,16-15.9,35-20.59,53.69a110.75,110.75,0,0,0-2.66,14.57c-.75,6.78,1.64,13.19,3.29,19.62A78.7,78.7,0,0,0,312.05,405c1.14,2.16,2.85,4.12,2.85,6.77l-.08.08c-3.63-.43-5.44-3.23-7.26-5.83-7.77-11.06-13.44-23-14.82-36.64-.84-8.31,1.59-16.15,3.81-24,1.61-5.7,3.42-11.34,5.15-17a4.8,4.8,0,0,0,1.51-3,4.75,4.75,0,0,0,1.47-3c4.69-6.51,8.33-13.73,13.39-20A27,27,0,0,1,324.26,296.22Z"/><path class="cls-12" d="M477.58,431.26c-7.93-1.85-13.68-7.23-18-13.4A57.08,57.08,0,0,1,449.26,385a12.51,12.51,0,0,1,.49-3.65,3,3,0,0,1,2.65-2.28,2.67,2.67,0,0,1,2.92,1.81,51.45,51.45,0,0,1,2.83,8.42c2,10.57,6.87,20.11,10.56,30.08,1.81,4.88,6.39,7.52,9,11.74Z"/><path class="cls-12" d="M479.13,432.68c.7,0,1.41,0,2.11.11,1,.14,2,.64,1.43,1.74s-1.63.48-2.33-.15a11,11,0,0,1-1.24-1.67Z"/><path class="cls-10" d="M452.21,337.11c0,.7,0,1.42-.06,2.11a3.16,3.16,0,0,1-.49,1.18c-.9-.25-.92-1-.65-1.67a6.85,6.85,0,0,1,1.27-1.56Z"/><path class="cls-14" d="M566.79,269.46c.7-.91,2.08-1.19,2.38-.42.47,1.18-1,.93-1.74,1.12C567.22,269.93,567,269.69,566.79,269.46Z"/><path class="cls-10" d="M452.28,337.17l.45-1.92c1.36,1.05.09,1.36-.52,1.86Z"/><path class="cls-14" d="M358.36,262.69l0-.56s-.15.45-.14.46Z"/><path class="cls-12" d="M477.67,431.16a2,2,0,0,1,1.46,1.53l0,0a2,2,0,0,1-1.52-1.45Z"/><path class="cls-12" d="M314.9,411.75c.22.23.45.46.67.7l-.75-.62Z"/><path class="cls-14" d="M569.15,373.4c.52,5.81-1.25,13.28-3.66,20.6a38.89,38.89,0,0,1-17.86,22.05c-12.4,7.21-25,2.62-30.19-10.77-4.61-11.79-3.54-23.83-1.73-35.94a52.94,52.94,0,0,1,13.55-28.41,25.66,25.66,0,0,1,10.21-7.2c10.47-3.81,19.31-.42,24.29,9.53C568.19,352.12,569.74,361.56,569.15,373.4Zm-20.54-13.79a33.94,33.94,0,0,0-1.28-6.21c-1.67-4.52-6.35-5.86-10.3-3.22-5.28,3.53-7.47,14.17-4,19.49,3.24,5,9.51,5.09,12.93.18C547.86,367.1,548.26,363.91,548.61,359.61Zm5.7,31c.09-3.45-1.64-5.7-4.41-5.72-3.22,0-6.32,3.85-6.37,8,0,3.05,2,5.54,4.69,5.72C551.44,398.74,554.19,395.14,554.31,390.57Z"/><path class="cls-8" d="M589.78,516.11a133.5,133.5,0,0,1,3.85,47.25,173.28,173.28,0,0,1-20.64,68c-8.28,15.28-20.79,25.71-36.2,33.14a104.1,104.1,0,0,1-41.7,10,183.15,183.15,0,0,1-47.33-4.56c-2.18-.49-4.3-1.23-6.43-1.9-8.19-2.57-16.37-5.16-14.84-16.49-6.64-24.31-15.55-47.66-29.12-69.05-1.33-2.09-2.55-4.26-3.83-6.39a13.16,13.16,0,0,1,5.88.4,172.58,172.58,0,0,0,36.11,4.22c13.73.27,27.31-1.42,40.71-3.62C520.92,569.7,559.83,551.12,589.78,516.11Z"/><path class="cls-15" d="M589.78,516.11c-29.95,35-68.86,53.59-113.54,60.93-13.4,2.2-27,3.89-40.71,3.62a172.58,172.58,0,0,1-36.11-4.22,13.16,13.16,0,0,0-5.88-.4l-9.28-11.57c5.17-.9,9.1.75,13,1.53a200.92,200.92,0,0,0,56.29,3A257.14,257.14,0,0,0,504,560c31.2-9,57.35-25.77,78.09-50.85,1.23-1.49,2.12-3.4,4.59-4.06A18.81,18.81,0,0,1,589.78,516.11Z"/><path class="cls-8" d="M335.7,378.2c1.55-22.94,8.68-44.15,22.93-62.58,13.25-17.15,38.25-16.79,51.54.51s15.33,36.81,8.4,57.2c-4.51,13.24-12.65,24.19-23.37,33.12-9.88,8.23-21.26,12.77-34.23,12.7-8.31,0-14.73-3.21-18.69-11.11C337.58,398.65,336.18,388.69,335.7,378.2Zm16.43,3.85c-.31,2.85.32,7.54,1.76,12.05,3.56,11.12,13.42,14.92,23.63,9.23a26.61,26.61,0,0,0,7.06-5.41,73.56,73.56,0,0,0,19-42.73c1-10.66-4.5-18.5-12.92-24.39-4.13-2.88-8.71-3.14-13.48-1.28-7.06,2.75-12,7.77-15.61,14.22C355.23,355,352.77,367.34,352.13,382.05Z"/><path class="cls-5" d="M419.16,283.47a50.23,50.23,0,0,0-7.7,19c-8.1-4.4-9.18-11.73-9.8-19.24-.16-1.95,1.32-2.57,2.95-2.43C409.24,281.24,413.89,281.62,419.16,283.47Z"/><path class="cls-5" d="M393,282.56a4.48,4.48,0,0,1,.72,3.58c-.4,2.51,2,5.67-.94,7.45s-11.68-.67-13.51-3.14c-1.49-2-1.5-3.53,1.13-4.48a57.59,57.59,0,0,1,5.52-2.07C388.23,283.32,390.48,282,393,282.56Z"/><path class="cls-10" d="M369.74,292.68c1-.24,1.4.37,1.6,1.1a1.2,1.2,0,0,1-1.16,1.51,3.19,3.19,0,0,1-1.92-.5C368.31,293.82,368.63,292.85,369.74,292.68Z"/><path class="cls-10" d="M367,296.12c-.17.12-.36.36-.52.34s-.29-.29-.44-.45c.18-.12.37-.36.53-.35S366.87,296,367,296.12Z"/><path class="cls-8" d="M548.61,359.61c-.35,4.3-.75,7.49-2.67,10.24-3.42,4.91-9.69,4.81-12.93-.18-3.45-5.32-1.26-16,4-19.49,4-2.64,8.63-1.3,10.3,3.22A33.94,33.94,0,0,1,548.61,359.61Z"/><path class="cls-8" d="M554.31,390.57c-.12,4.57-2.87,8.17-6.09,8-2.68-.18-4.72-2.67-4.69-5.72.05-4.11,3.15-8,6.37-8C552.67,384.87,554.4,387.12,554.31,390.57Z"/><path class="cls-14" d="M352.13,382.05c.64-14.71,3.1-27,9.4-38.31,3.6-6.45,8.55-11.47,15.61-14.22,4.77-1.86,9.35-1.6,13.48,1.28,8.42,5.89,13.95,13.73,12.92,24.39a73.56,73.56,0,0,1-19,42.73,26.61,26.61,0,0,1-7.06,5.41c-10.21,5.69-20.07,1.89-23.63-9.23C352.45,389.59,351.82,384.9,352.13,382.05ZM365.44,359c-.15,2.83.26,4.7,2.23,5.84,2.34,1.35,4.36.34,6-1.24a21,21,0,0,0,6.84-15.07c.07-2.36-.61-4.52-3-5.42-2.71-1-4.89.22-6.45,2.34A34.29,34.29,0,0,0,365.44,359Zm11.07,27.54c2.95,0,6.51-4.19,6.64-7.9.09-2.56-1-4.37-3.76-4.52-2.95-.16-7.07,4.18-7.21,7.42A4.55,4.55,0,0,0,376.51,386.49Z"/><path class="cls-8" d="M365.44,359a34.29,34.29,0,0,1,5.62-13.55c1.56-2.12,3.74-3.35,6.45-2.34,2.41.9,3.09,3.06,3,5.42a21,21,0,0,1-6.84,15.07c-1.66,1.58-3.68,2.59-6,1.24C365.7,363.65,365.29,361.78,365.44,359Z"/><path class="cls-8" d="M376.51,386.49a4.55,4.55,0,0,1-4.33-5c.14-3.24,4.26-7.58,7.21-7.42,2.76.15,3.85,2,3.76,4.52C383,382.3,379.46,386.47,376.51,386.49Z"/></g></g></svg>