<?xml version="1.0" encoding="utf-8"?>
<!-- Generator: Adobe Illustrator 26.0.2, SVG Export Plug-In . SVG Version: 6.00 Build 0)  -->
<svg version="1.1" id="Layer_1" xmlns="http://www.w3.org/2000/svg" xmlns:xlink="http://www.w3.org/1999/xlink" x="0px" y="0px"
	 viewBox="0 0 927.3 999.8" style="enable-background:new 0 0 927.3 999.8;" xml:space="preserve">
<style type="text/css">
	.st0{fill:#FFFFFF;}
	.st1{clip-path:url(#SVGID_00000034056291120464480860000008035969910565031836_);}
	.st2{clip-path:url(#SVGID_00000057139666913681026200000008096198436216540054_);}
	
		.st3{clip-path:url(#SVGID_00000133522849372673271130000012257517171591728062_);fill:url(#SVGID_00000147219259635230395980000005644550922555362453_);}
	.st4{opacity:0.35;clip-path:url(#SVGID_00000169541318998843434150000011413611181610186657_);}
	.st5{clip-path:url(#SVGID_00000142177663053754417480000005763962326718001051_);fill:#FFFFFF;}
	.st6{clip-path:url(#SVGID_00000141450257719505328570000017495032081598416268_);fill:#FFFFFF;}
	.st7{clip-path:url(#SVGID_00000003070262861182548070000014120209454316674441_);fill:#FFFFFF;}
	.st8{opacity:0.71;clip-path:url(#SVGID_00000169541318998843434150000011413611181610186657_);}
	.st9{clip-path:url(#SVGID_00000123416847544151480120000016663522098107562117_);fill:#010101;}
	.st10{clip-path:url(#SVGID_00000068656894500042968630000008261622010220743343_);fill:#010101;}
	.st11{clip-path:url(#SVGID_00000077291756237592124830000010155596102812917687_);fill:#FFFFFF;}
	.st12{clip-path:url(#SVGID_00000060003344149502874560000010878102868460548517_);fill:#FFFFFF;}
	.st13{clip-path:url(#SVGID_00000055676473953991194380000010131402099367110034_);fill:#FFFFFF;}
	.st14{clip-path:url(#SVGID_00000141433815251101172060000007429203345252153729_);fill:#010101;}
</style>
<g>
	<path class="st0" d="M195.4,801.9l-19.6,70.9H164L149.9,822l-14.1,50.8H124l-19.6-70.9h12.7l13.7,51.7l14.3-51.7h10.2l14.3,51.7
		l13.7-51.7H195.4z"/>
	<path class="st0" d="M250.1,832.3v18.8h-35.5v7.4l4.9,4.9h16.2l7.2-7.2l7.2,7.3l-9.3,9.3h-27l-10.8-10.8v-29.6l10.8-10.8h25.4
		L250.1,832.3z M238.4,842.1v-6.4l-4.9-4.9h-14l-4.9,4.9v6.4H238.4z"/>
	<path class="st0" d="M309.9,830.6v42.1h-11.7v-37.6l-3.9-3.9h-10.1l-8.1,8.1v33.4h-11.7v-51.3h10.4l0.3,9.3l9.3-9.3h16.3
		L309.9,830.6z"/>
	<path class="st0" d="M399,872.8h-12.3v-49.1l-20.9,38.7h-6L339,823.9v48.9h-11.8v-70.9h12.3l23.6,43.9l23.6-43.9H399V872.8z"/>
	<path class="st0" d="M460.4,830.6v42.1h-10.4l-0.3-9.3l-9.3,9.3h-17.9l-8.7-8.7v-12.8l7.7-7.7l27.2-1.9v-6.9l-4-4h-15.9l-6.7,6.7
		l-7.3-7.4l8.7-8.7h27.6L460.4,830.6z M448.7,854.7v-4l-20.6,1.4l-2.6,2.7v5.3l3.1,3.2h11.6L448.7,854.7z"/>
	<path class="st0" d="M508.3,821.5v11.2H496l-7.8,7.8v32.3h-11.7v-51.3H487l0.4,10.2l10.2-10.2H508.3z"/>
	<path class="st0" d="M553.3,872.8L531.9,849v23.8h-11.7v-75.1h11.7v46.8l20.8-23h14.3l-22.6,24.8l24.2,26.5H553.3z"/>
	<path class="st0" d="M622.8,832.3v18.8h-35.5v7.4l4.9,4.9h16.2l7.2-7.2l7.2,7.3l-9.3,9.3h-27l-10.8-10.8v-29.6l10.8-10.8H612
		L622.8,832.3z M611.2,842.1v-6.4l-4.9-4.9h-14l-4.9,4.9v6.4H611.2z"/>
	<path class="st0" d="M656,831.3v26.8l4.9,4.8h10.8v9.9h-17.1l-10.3-10.2v-31.3h-12.1v-9.8h12.7l2-19.6h9.1v19.6h15.7v9.8H656z"/>
	<path class="st0" d="M685.1,798.3h11.7v12.4h-11.7V798.3z M685.1,821.5h11.7v51.3h-11.7V821.5z"/>
	<path class="st0" d="M759.1,830.6v42.1h-11.7v-37.6l-3.9-3.9h-10.1l-8.1,8.1v33.4h-11.7v-51.3h10.4l0.3,9.3l9.3-9.3h16.3
		L759.1,830.6z"/>
	<path class="st0" d="M819.4,882.4l-12.3,12.3H782l-7.5-7.5l7.3-7.3l5.4,5.4h14.2l6.4-6.5v-15.4l-9.2,9.2h-14.8l-10.8-10.8v-25.9
		l14.4-14.4h32.1V882.4z M807.7,853.8v-22.5h-15.1l-8,8v17.9l5.5,5.4h8.7L807.7,853.8z"/>
</g>
<g>
	<g>
		<defs>
			<rect id="SVGID_1_" x="200" y="100" width="525" height="600"/>
		</defs>
		<clipPath id="SVGID_00000081629463888962890710000013679399036412186764_">
			<use xlink:href="#SVGID_1_"  style="overflow:visible;"/>
		</clipPath>
		<g style="clip-path:url(#SVGID_00000081629463888962890710000013679399036412186764_);">
			<defs>
				<rect id="SVGID_00000176724327993983520910000018282492529985801894_" x="200" y="100" width="525" height="600"/>
			</defs>
			<clipPath id="SVGID_00000047762916234304731560000001178542765305255051_">
				<use xlink:href="#SVGID_00000176724327993983520910000018282492529985801894_"  style="overflow:visible;"/>
			</clipPath>
			<g style="clip-path:url(#SVGID_00000047762916234304731560000001178542765305255051_);">
				<defs>
					<polygon id="SVGID_00000031191594196803671610000004272267633308059532_" points="715.7,100 553.8,213.9 462.8,213.9 
						462.2,213.9 371.2,213.9 209.3,100 224,298.2 200,436.5 338.8,548.5 354.7,578.7 363.9,634.4 393.4,673.4 425.5,700 455.8,700 
						471.4,700 499.5,700 531.6,673.4 561.1,634.4 570.3,578.7 586.2,548.5 725,436.5 701,298.2 					"/>
				</defs>
				<clipPath id="SVGID_00000031181886018526522410000013257477735871408300_">
					<use xlink:href="#SVGID_00000031191594196803671610000004272267633308059532_"  style="overflow:visible;"/>
				</clipPath>
				
					<linearGradient id="SVGID_00000096032063226101052130000004491943266653590703_" gradientUnits="userSpaceOnUse" x1="-845.2817" y1="-1.3333" x2="-844.2817" y2="-1.3333" gradientTransform="matrix(524.9953 0 0 -524.9953 443968.9688 -300)">
					<stop  offset="0" style="stop-color:#0098A7"/>
					<stop  offset="0.326" style="stop-color:#1C50C6"/>
					<stop  offset="0.5" style="stop-color:#292FD5"/>
					<stop  offset="0.7406" style="stop-color:#923FC7"/>
					<stop  offset="1" style="stop-color:#FF4FB9"/>
				</linearGradient>
				
					<rect x="200" y="100" style="clip-path:url(#SVGID_00000031181886018526522410000013257477735871408300_);fill:url(#SVGID_00000096032063226101052130000004491943266653590703_);" width="525" height="600"/>
			</g>
			<g style="clip-path:url(#SVGID_00000047762916234304731560000001178542765305255051_);">
				<defs>
					<rect id="SVGID_00000011025697010915300440000010567811289525412012_" x="200" y="100" width="525" height="600"/>
				</defs>
				<clipPath id="SVGID_00000135675442202911977970000015870757131046506402_">
					<use xlink:href="#SVGID_00000011025697010915300440000010567811289525412012_"  style="overflow:visible;"/>
				</clipPath>
				<g style="opacity:0.35;clip-path:url(#SVGID_00000135675442202911977970000015870757131046506402_);">
					<g>
						<defs>
							<rect id="SVGID_00000034787878548617771170000016907815469730247303_" x="200" y="298.2" width="154.7" height="280.5"/>
						</defs>
						<clipPath id="SVGID_00000081630705244937865450000005504851572399794605_">
							<use xlink:href="#SVGID_00000034787878548617771170000016907815469730247303_"  style="overflow:visible;"/>
						</clipPath>
						<polygon style="clip-path:url(#SVGID_00000081630705244937865450000005504851572399794605_);fill:#FFFFFF;" points="
							200,436.5 338.8,548.5 354.7,578.7 339.2,504.5 244.9,437 224,298.2 						"/>
					</g>
				</g>
				<g style="opacity:0.35;clip-path:url(#SVGID_00000135675442202911977970000015870757131046506402_);">
					<g>
						<defs>
							<rect id="SVGID_00000109748710842137801530000001775962530259606419_" x="570.3" y="298.2" width="154.7" height="280.5"/>
						</defs>
						<clipPath id="SVGID_00000139973383436778127220000018157598055872511903_">
							<use xlink:href="#SVGID_00000109748710842137801530000001775962530259606419_"  style="overflow:visible;"/>
						</clipPath>
						<polygon style="clip-path:url(#SVGID_00000139973383436778127220000018157598055872511903_);fill:#FFFFFF;" points="
							725,436.5 586.2,548.5 570.3,578.7 585.8,504.5 680.1,437 701,298.2 						"/>
					</g>
				</g>
				<g style="opacity:0.35;clip-path:url(#SVGID_00000135675442202911977970000015870757131046506402_);">
					<g>
						<defs>
							<rect id="SVGID_00000062189984461175212620000017766971595740284819_" x="209.3" y="100" width="506.4" height="494.7"/>
						</defs>
						<clipPath id="SVGID_00000168828879859194046740000004786612047337950357_">
							<use xlink:href="#SVGID_00000062189984461175212620000017766971595740284819_"  style="overflow:visible;"/>
						</clipPath>
						<polygon style="clip-path:url(#SVGID_00000168828879859194046740000004786612047337950357_);fill:#FFFFFF;" points="
							545.5,254.7 715.7,100 553.8,213.9 553.8,213.9 371.2,213.9 209.3,100 379.5,254.7 462.5,594.7 						"/>
					</g>
				</g>
				<g style="opacity:0.71;clip-path:url(#SVGID_00000135675442202911977970000015870757131046506402_);">
					<g>
						<defs>
							<rect id="SVGID_00000088105309462498259830000013172454235969745075_" x="313.3" y="352.5" width="78.3" height="51"/>
						</defs>
						<clipPath id="SVGID_00000174564532659763896410000008047228881400907451_">
							<use xlink:href="#SVGID_00000088105309462498259830000013172454235969745075_"  style="overflow:visible;"/>
						</clipPath>
						<path style="clip-path:url(#SVGID_00000174564532659763896410000008047228881400907451_);fill:#010101;" d="M313.3,352.5
							c0,0,47.4,5.2,78.3,29.4c-7,6.3-22.8,18-42.4,21.6C325.1,379.8,313.3,352.5,313.3,352.5"/>
					</g>
				</g>
				<g style="opacity:0.71;clip-path:url(#SVGID_00000135675442202911977970000015870757131046506402_);">
					<g>
						<defs>
							<rect id="SVGID_00000139993902444710857830000013234691960596927138_" x="533.4" y="352" width="78.3" height="51"/>
						</defs>
						<clipPath id="SVGID_00000105419079416577064130000003672773584771379369_">
							<use xlink:href="#SVGID_00000139993902444710857830000013234691960596927138_"  style="overflow:visible;"/>
						</clipPath>
						<path style="clip-path:url(#SVGID_00000105419079416577064130000003672773584771379369_);fill:#010101;" d="M611.7,352
							c0,0-47.4,5.2-78.3,29.4c7,6.3,22.8,18,42.4,21.6C599.9,379.3,611.7,352,611.7,352"/>
					</g>
				</g>
				<g style="opacity:0.35;clip-path:url(#SVGID_00000135675442202911977970000015870757131046506402_);">
					<g>
						<defs>
							<rect id="SVGID_00000070107092999571061220000009748393827571814330_" x="354.7" y="578.7" width="70.9" height="121.3"/>
						</defs>
						<clipPath id="SVGID_00000142173449599297544560000008182293142200552885_">
							<use xlink:href="#SVGID_00000070107092999571061220000009748393827571814330_"  style="overflow:visible;"/>
						</clipPath>
						<polygon style="clip-path:url(#SVGID_00000142173449599297544560000008182293142200552885_);fill:#FFFFFF;" points="
							425.5,700 354.7,578.7 363.9,634.4 393.4,673.4 						"/>
					</g>
				</g>
				<g style="opacity:0.35;clip-path:url(#SVGID_00000135675442202911977970000015870757131046506402_);">
					<g>
						<defs>
							<rect id="SVGID_00000100363043108299165170000004401190668714179473_" x="499.5" y="578.7" width="70.9" height="121.3"/>
						</defs>
						<clipPath id="SVGID_00000143587203459033056370000011556889272813480361_">
							<use xlink:href="#SVGID_00000100363043108299165170000004401190668714179473_"  style="overflow:visible;"/>
						</clipPath>
						<polygon style="clip-path:url(#SVGID_00000143587203459033056370000011556889272813480361_);fill:#FFFFFF;" points="
							499.5,700 570.3,578.7 561.1,634.4 531.6,673.4 						"/>
					</g>
				</g>
				<g style="opacity:0.35;clip-path:url(#SVGID_00000135675442202911977970000015870757131046506402_);">
					<g>
						<defs>
							<rect id="SVGID_00000001625331477593549580000016586772875182610871_" x="425.5" y="644.9" width="74" height="55.1"/>
						</defs>
						<clipPath id="SVGID_00000144304830004741126000000009065401955316789642_">
							<use xlink:href="#SVGID_00000001625331477593549580000016586772875182610871_"  style="overflow:visible;"/>
						</clipPath>
						<polygon style="clip-path:url(#SVGID_00000144304830004741126000000009065401955316789642_);fill:#FFFFFF;" points="
							462.5,644.9 425.5,700 455.8,700 471.4,700 499.5,700 						"/>
					</g>
				</g>
				<g style="opacity:0.71;clip-path:url(#SVGID_00000135675442202911977970000015870757131046506402_);">
					<g>
						<defs>
							<rect id="SVGID_00000066501793751528894430000000431256642286155447_" x="420.6" y="593" width="83.8" height="52.2"/>
						</defs>
						<clipPath id="SVGID_00000008107117240097516650000004563391544541267389_">
							<use xlink:href="#SVGID_00000066501793751528894430000000431256642286155447_"  style="overflow:visible;"/>
						</clipPath>
						<path style="clip-path:url(#SVGID_00000008107117240097516650000004563391544541267389_);fill:#010101;" d="M462.5,594.7
							c-9.9-0.3-27.2-4-39.5,0.4c-4.2,1.5-1.8,13.8-0.4,18.1c2.8,9,14,26.1,22.4,30.4c3.3,1.7,17.6,1.2,17.6,1.2s13.2,1.3,17.6-0.7
							c8.6-3.8,19.6-21.4,22.4-30.4c1.4-4.3,3.8-16.4-0.4-18.1C488.5,590.4,470.9,595,462.5,594.7"/>
					</g>
				</g>
			</g>
		</g>
	</g>
</g>
</svg>
