<svg width="263" height="65" viewBox="0 0 263 65" fill="none" xmlns="http://www.w3.org/2000/svg">
<g clip-path="url(#clip0_141_3664)">
<path d="M85.1166 46.7167H81.1795C81.0543 46.7306 80.9152 46.7167 80.79 46.6889C80.6647 46.6472 80.5534 46.5776 80.4561 46.4802C80.3587 46.3828 80.2891 46.2715 80.2474 46.1463C80.2056 46.0211 80.1917 45.882 80.2196 45.7568V18.2524C80.2056 18.1272 80.2196 17.988 80.2474 17.8628C80.2891 17.7376 80.3587 17.6263 80.4561 17.5289C80.5534 17.4316 80.6647 17.362 80.79 17.3203C80.9152 17.2785 81.0543 17.2646 81.1795 17.2785H92.1423C93.1718 17.2229 94.2013 17.362 95.1613 17.6959C96.1212 18.0298 97.0255 18.5584 97.7767 19.2401C98.4863 19.9775 99.0288 20.84 99.3766 21.8C99.7244 22.7599 99.8775 23.7616 99.8079 24.7772V28.3387C99.8079 31.7889 98.4306 34.0845 95.6899 35.2113V35.3922L100.629 45.6037C100.907 46.3411 100.629 46.7028 99.8357 46.7028H96.0934C95.6899 46.7306 95.2725 46.6611 94.8969 46.522C94.6048 46.3411 94.3961 46.0629 94.2987 45.7429L89.6798 35.8652H86.5774C86.2157 35.8652 86.0349 36.0322 86.0349 36.3661V45.7568C86.0488 45.882 86.0349 46.0211 85.9931 46.1324C85.9514 46.2576 85.8818 46.3689 85.7983 46.4524C85.701 46.5498 85.6036 46.6193 85.4784 46.6611C85.3532 46.7028 85.2279 46.7167 85.1027 46.7028L85.1166 46.7167ZM86.5913 31.2046H91.1684C91.9475 31.2742 92.7266 31.0516 93.3387 30.5786C93.5892 30.3143 93.7839 29.9943 93.9092 29.6604C94.0344 29.3126 94.0761 28.9509 94.0344 28.5891V25.0276C94.0622 24.652 94.0344 24.2764 93.9092 23.9286C93.7839 23.5668 93.6031 23.2469 93.3387 22.9686C92.7127 22.4956 91.9475 22.273 91.1684 22.3287H86.5913C86.5913 22.3287 86.4522 22.3287 86.3827 22.3426C86.3131 22.3565 86.2574 22.3982 86.2018 22.4539C86.1461 22.4956 86.1183 22.5652 86.0905 22.6208C86.0627 22.6904 86.0627 22.7599 86.0766 22.8295V30.7038C86.0766 30.7038 86.0766 30.8429 86.0905 30.9125C86.1183 30.982 86.1461 31.0377 86.2018 31.0933C86.2574 31.149 86.3131 31.1768 86.3827 31.2046C86.4522 31.2325 86.5218 31.2325 86.5913 31.2185V31.2046Z" fill="black"/>
<path d="M116.001 46.7179H110.811C109.796 46.7874 108.766 46.6483 107.792 46.3144C106.819 45.9805 105.928 45.4658 105.163 44.798C104.467 44.0606 103.939 43.1842 103.591 42.2381C103.243 41.2921 103.104 40.2765 103.174 39.2609V24.7783C103.104 23.7767 103.243 22.7611 103.591 21.8011C103.939 20.8551 104.467 19.9786 105.163 19.2413C105.928 18.5596 106.819 18.0448 107.792 17.7109C108.766 17.3771 109.782 17.2379 110.811 17.3075H116.001C117.016 17.2379 118.046 17.3771 119.02 17.7109C119.993 18.0448 120.884 18.5596 121.649 19.2413C122.345 19.9786 122.887 20.8551 123.221 21.8011C123.569 22.7472 123.708 23.7628 123.638 24.7783V39.2609C123.708 40.2626 123.569 41.2782 123.221 42.2381C122.873 43.1842 122.345 44.0606 121.649 44.798C120.884 45.4658 119.993 45.9805 119.02 46.3144C118.046 46.6483 117.03 46.7735 116.001 46.7179ZM111.744 41.6817H115.041C115.792 41.7512 116.543 41.5286 117.141 41.0695C117.614 40.4713 117.837 39.7339 117.768 38.9827V25.0288C117.837 24.2775 117.614 23.5402 117.141 22.9419C116.543 22.4689 115.792 22.2463 115.041 22.3298H111.744C111.368 22.2881 111.006 22.3298 110.644 22.4272C110.283 22.5385 109.963 22.7054 109.671 22.9419C109.212 23.5402 108.989 24.2775 109.072 25.0288V38.9827C109.003 39.7339 109.212 40.4713 109.671 41.0695C110.255 41.5425 110.992 41.7651 111.744 41.6817V41.6817Z" fill="black"/>
<path d="M139.525 46.7179H134.489C133.474 46.7874 132.444 46.6483 131.47 46.3144C130.496 45.9805 129.606 45.4658 128.841 44.798C128.145 44.0606 127.603 43.1842 127.269 42.2381C126.921 41.2921 126.782 40.2765 126.851 39.2609V24.7783C126.782 23.7628 126.921 22.7611 127.269 21.8011C127.617 20.8551 128.145 19.9786 128.841 19.2413C129.606 18.5596 130.496 18.0448 131.47 17.7109C132.444 17.3771 133.46 17.2379 134.489 17.3075H139.525C140.541 17.2518 141.57 17.391 142.53 17.7249C143.49 18.0588 144.381 18.5735 145.146 19.2552C145.842 19.9925 146.384 20.8551 146.732 21.815C147.08 22.7611 147.219 23.7767 147.163 24.7783V26.9208C147.177 27.0599 147.163 27.1991 147.121 27.3243C147.08 27.4495 146.996 27.5747 146.899 27.6721C146.801 27.7695 146.676 27.839 146.551 27.8947C146.426 27.9364 146.287 27.9503 146.148 27.9364H142.266C141.612 27.9364 141.292 27.6025 141.292 26.9208V25.0427C141.362 24.2914 141.139 23.5541 140.666 22.9558C140.068 22.4828 139.317 22.2602 138.565 22.3437H135.421C135.06 22.302 134.684 22.3437 134.336 22.4411C133.988 22.5524 133.654 22.7193 133.376 22.9558C132.903 23.5402 132.667 24.2914 132.75 25.0427V38.9966C132.681 39.7479 132.903 40.4991 133.376 41.0834C133.961 41.5425 134.698 41.7651 135.435 41.6956H138.579C139.331 41.7651 140.082 41.5425 140.68 41.0834C141.153 40.4852 141.376 39.7479 141.306 38.9966V37.1185C141.306 36.4507 141.626 36.1168 142.28 36.1168H146.161C146.301 36.1029 146.44 36.1168 146.565 36.1585C146.69 36.2003 146.815 36.2698 146.913 36.3672C147.01 36.4646 147.08 36.5759 147.135 36.715C147.177 36.8402 147.191 36.9793 147.177 37.1185V39.2748C147.247 40.2765 147.094 41.2921 146.746 42.2381C146.398 43.1842 145.855 44.0606 145.16 44.7841C144.395 45.4519 143.518 45.9805 142.544 46.3005C141.584 46.6344 140.555 46.7596 139.539 46.704L139.525 46.7179Z" fill="black"/>
<path d="M155.233 46.7166H151.295C151.17 46.7305 151.031 46.7166 150.906 46.6749C150.781 46.6331 150.669 46.5636 150.572 46.4662C150.475 46.3688 150.405 46.2575 150.363 46.1323C150.322 46.0071 150.308 45.8819 150.322 45.7428V18.2523C150.322 18.1271 150.322 17.9879 150.377 17.8766C150.419 17.7514 150.489 17.6401 150.586 17.5567C150.683 17.4593 150.781 17.3897 150.906 17.348C151.031 17.3062 151.156 17.2784 151.282 17.2923H155.219C155.358 17.2784 155.483 17.2923 155.608 17.3341C155.733 17.3758 155.845 17.4454 155.942 17.5427C156.04 17.6401 156.109 17.7514 156.151 17.8766C156.193 18.0018 156.206 18.141 156.179 18.2662V31.3019H156.276C156.652 30.3141 157.125 29.3542 157.709 28.4638L164.735 18.2662C164.916 17.9462 165.18 17.6958 165.514 17.5288C165.848 17.3619 166.195 17.2784 166.571 17.3062H171.148C171.482 17.3062 171.691 17.4036 171.774 17.5984C171.844 17.7932 171.774 18.0575 171.524 18.3636L162.745 30.3976L172.553 45.5897C172.762 45.9514 172.804 46.2297 172.665 46.4245C172.553 46.5358 172.428 46.6192 172.275 46.6749C172.122 46.7305 171.969 46.7444 171.816 46.7166H168.435C168.018 46.7723 167.601 46.7166 167.211 46.5358C166.835 46.3688 166.502 46.0906 166.265 45.7567L159.198 34.5434L156.276 37.9241V45.7567C156.304 45.8958 156.276 46.0349 156.248 46.1601C156.206 46.2853 156.123 46.4105 156.026 46.5079C155.928 46.6053 155.803 46.6749 155.664 46.7027C155.525 46.7444 155.386 46.7444 155.247 46.7027L155.233 46.7166Z" fill="black"/>
<path d="M190.374 46.7169H175.252C175.113 46.7308 174.987 46.7169 174.862 46.689C174.737 46.6473 174.626 46.5777 174.528 46.4803C174.431 46.383 174.361 46.2717 174.32 46.1465C174.278 46.0212 174.264 45.8821 174.292 45.7569V18.2525C174.278 18.1273 174.292 17.9882 174.32 17.863C174.361 17.7378 174.431 17.6265 174.528 17.5291C174.626 17.4317 174.737 17.3621 174.862 17.3204C174.987 17.2787 175.127 17.2647 175.252 17.2787H190.374C190.986 17.2787 191.293 17.5986 191.293 18.2525V21.3549C191.293 21.9949 190.986 22.3288 190.374 22.3288H180.705C180.33 22.3288 180.149 22.4957 180.149 22.8296V28.8119C180.149 29.1458 180.33 29.3127 180.705 29.3127H188.594C188.719 29.3127 188.858 29.3127 188.983 29.3684C189.108 29.424 189.22 29.4796 189.317 29.577C189.414 29.6744 189.484 29.7857 189.526 29.897C189.567 30.0222 189.595 30.1474 189.581 30.2726V33.3333C189.581 33.4585 189.581 33.5977 189.526 33.7229C189.484 33.8481 189.414 33.9594 189.317 34.0568C189.22 34.1541 189.108 34.2237 188.983 34.2654C188.858 34.3072 188.733 34.335 188.594 34.3211H180.691C180.316 34.3211 180.135 34.488 180.135 34.8219V41.152C180.135 41.4859 180.316 41.6528 180.691 41.6528H190.36C190.973 41.6528 191.279 41.9728 191.279 42.6128V45.7291C191.348 46.3969 190.986 46.7169 190.374 46.7169V46.7169Z" fill="black"/>
<path d="M203.772 46.7171H199.891C199.209 46.7171 198.875 46.3971 198.875 45.7572V22.8159C198.875 22.8159 198.875 22.6768 198.861 22.6073C198.833 22.5377 198.806 22.4821 198.75 22.4403C198.694 22.3986 198.639 22.3568 198.569 22.329C198.5 22.3012 198.43 22.3012 198.36 22.3151H193.088C192.949 22.329 192.823 22.3151 192.698 22.2734C192.573 22.2316 192.462 22.1621 192.364 22.0647C192.267 21.9673 192.197 21.856 192.156 21.7308C192.114 21.6056 192.1 21.4665 192.128 21.3413V18.2388C192.114 18.1136 192.128 17.9745 192.156 17.8493C192.197 17.7241 192.267 17.6128 192.364 17.5154C192.462 17.418 192.573 17.3485 192.698 17.3067C192.823 17.265 192.962 17.2511 193.088 17.265H210.534C210.659 17.265 210.798 17.265 210.909 17.3206C211.034 17.3624 211.146 17.4319 211.229 17.5293C211.327 17.6267 211.396 17.738 211.438 17.8493C211.48 17.9745 211.507 18.0997 211.494 18.2249V21.3273C211.494 21.4526 211.494 21.5917 211.438 21.703C211.396 21.8282 211.327 21.9395 211.229 22.023C211.132 22.1203 211.034 22.1899 210.909 22.2316C210.784 22.2734 210.659 22.3012 210.534 22.2873H205.261C204.899 22.2873 204.704 22.4542 204.704 22.7881V45.7154C204.718 45.8406 204.704 45.9658 204.677 46.091C204.635 46.2163 204.565 46.3276 204.482 46.411C204.384 46.5084 204.287 46.578 204.162 46.6197C204.037 46.6614 203.911 46.6754 203.786 46.6614L203.772 46.7171Z" fill="black"/>
<path d="M219.298 18.2523V45.7567C219.312 45.8819 219.298 46.021 219.27 46.1462C219.228 46.2714 219.159 46.3827 219.061 46.4801C218.964 46.5775 218.853 46.6471 218.727 46.6888C218.602 46.7305 218.463 46.7444 218.338 46.7166H214.415C214.275 46.7305 214.15 46.7166 214.025 46.6749C213.9 46.6331 213.789 46.5636 213.691 46.4662C213.594 46.3688 213.524 46.2575 213.482 46.1323C213.441 46.0071 213.427 45.8819 213.441 45.7428V18.2523C213.441 18.1271 213.441 17.9879 213.496 17.8766C213.538 17.7514 213.608 17.6401 213.705 17.5567C213.802 17.4593 213.9 17.3897 214.025 17.348C214.15 17.3062 214.275 17.2784 214.401 17.2923H218.324C218.463 17.2784 218.588 17.2923 218.713 17.3341C218.839 17.3758 218.95 17.4454 219.047 17.5427C219.145 17.6401 219.214 17.7514 219.256 17.8766C219.298 18.0018 219.312 18.141 219.284 18.2662L219.298 18.2523Z" fill="black"/>
<path d="M222.914 45.7574V43.0445C222.859 42.2515 223.067 41.4585 223.513 40.8047L235.755 22.8997V22.7188H224.709C224.57 22.7327 224.445 22.7188 224.319 22.691C224.194 22.6493 224.083 22.5797 223.986 22.4823C223.888 22.3849 223.819 22.2736 223.777 22.1484C223.735 22.0232 223.721 21.8841 223.749 21.7589V18.2808C223.735 18.1556 223.749 18.0165 223.777 17.8913C223.819 17.7661 223.888 17.6548 223.986 17.5574C224.083 17.46 224.194 17.3904 224.319 17.3487C224.445 17.307 224.584 17.2931 224.709 17.307H241.167C241.793 17.307 242.085 17.627 242.085 18.2808V22.2041C242.099 23.0527 241.863 23.8735 241.39 24.5831L229.87 41.1525V41.3333H241.612C242.224 41.3333 242.531 41.6255 242.531 42.2376V45.7157C242.531 46.4113 242.224 46.7591 241.612 46.7591H223.874C223.735 46.7869 223.596 46.7591 223.457 46.7313C223.318 46.6895 223.207 46.6061 223.109 46.5087C223.012 46.4113 222.942 46.2861 222.9 46.1469C222.859 46.0078 222.859 45.8687 222.9 45.7435L222.914 45.7574Z" fill="black"/>
<path d="M262.022 46.7179H246.899C246.774 46.7319 246.635 46.7179 246.509 46.6762C246.384 46.6345 246.273 46.5649 246.176 46.4675C246.078 46.3701 246.009 46.2588 245.967 46.1336C245.925 46.0084 245.911 45.8832 245.925 45.7441V18.2536C245.925 18.1284 245.925 17.9893 245.981 17.878C246.023 17.7528 246.092 17.6415 246.189 17.558C246.287 17.4606 246.398 17.391 246.509 17.3493C246.635 17.3076 246.76 17.2797 246.885 17.2937H262.008C262.634 17.2937 262.926 17.6136 262.926 18.2675V21.3699C262.926 22.0099 262.62 22.3438 262.008 22.3438H252.339C251.977 22.3438 251.796 22.5107 251.796 22.8446V28.8269C251.796 29.1608 251.977 29.3277 252.339 29.3277H260.241C260.38 29.3138 260.505 29.3277 260.63 29.3694C260.756 29.4112 260.867 29.4807 260.964 29.5781C261.062 29.6755 261.131 29.7868 261.173 29.912C261.215 30.0372 261.229 30.1763 261.201 30.3016V33.3622C261.215 33.4874 261.201 33.6266 261.173 33.7518C261.145 33.877 261.062 33.9883 260.964 34.0857C260.867 34.1831 260.756 34.2526 260.63 34.2944C260.505 34.3361 260.366 34.35 260.241 34.3361H252.339C251.977 34.3361 251.796 34.503 251.796 34.8369V41.167C251.796 41.5009 251.977 41.6678 252.339 41.6678H262.008C262.634 41.6678 262.926 41.9878 262.926 42.6278V45.7441C262.926 46.4258 262.634 46.7458 262.008 46.7458L262.022 46.7179Z" fill="black"/>
<path d="M6.66394 24.8474C6.3857 26.5725 6.23266 28.2976 6.23266 30.0366C6.23266 30.7044 6.26049 31.3583 6.30222 32.0261C6.35787 32.9025 6.41352 33.7651 6.56655 34.6137C6.56655 34.6972 6.56655 34.7668 6.58047 34.8502H6.2744C1.27992 33.8764 0.139122 31.7895 0 29.6888C0.500839 25.4317 5.42575 21.7589 7.79083 20.2285C7.28999 21.731 6.92827 23.2753 6.66394 24.8474V24.8474Z" fill="black"/>
<path d="M38.5229 0C31.2329 0.0278244 24.1795 2.50419 18.5033 7.02566C12.8271 11.5471 8.86214 17.8354 7.26224 24.8611C6.73358 27.2122 6.45534 29.6051 6.46925 32.012C6.46925 32.9858 6.46925 33.9457 6.59446 34.8918C7.19268 34.9613 9.57167 35.0726 10.1421 35.0865H10.6986C10.5873 34.071 10.5316 33.0415 10.5316 32.012C10.5177 24.6385 13.4532 17.5572 18.6981 12.3123C23.943 7.08131 31.0799 4.11801 38.5368 4.07627C45.9938 4.11801 53.1168 7.08131 58.3756 12.3123C63.6205 17.5433 66.556 24.6385 66.5421 32.012C66.5699 39.3854 63.6344 46.4806 58.3756 51.7116C53.1307 56.9565 45.9938 59.9198 38.5368 59.9476C32.3737 59.9198 26.3915 57.8886 21.5083 54.1741C16.6251 50.4456 13.1193 45.2425 11.5194 39.3437L11.0603 39.4272C9.78035 39.6497 8.56999 39.8445 7.48484 39.9558C9.22386 46.8145 13.2306 52.8942 18.865 57.2487C24.4994 61.6032 31.4277 63.9822 38.5647 63.9961C47.0928 63.9543 55.2732 60.5598 61.2833 54.5636C67.2933 48.5675 70.6601 40.4567 70.6323 31.998C70.6601 23.5394 67.2933 15.4147 61.2694 9.41855C55.2454 3.43631 47.065 0.0417366 38.5229 0Z" fill="black"/>
<path d="M13.2453 38.9689C14.7478 44.4642 18.045 49.3335 22.6082 52.7976C27.1714 56.2618 32.778 58.1538 38.5238 58.1538C41.9879 58.1538 45.4103 57.4582 48.5962 56.1365C51.7821 54.8149 54.6758 52.8811 57.1244 50.4465C59.559 48.0118 61.4928 45.132 62.8005 41.96C64.1083 38.788 64.7761 35.3935 64.7622 31.9711C64.7761 28.5487 64.1083 25.1541 62.8005 21.9821C61.4928 18.8101 59.559 15.9303 57.1244 13.4957C54.6897 11.061 51.796 9.12725 48.5962 7.80559C45.4103 6.48394 41.9879 5.78833 38.5238 5.77441C35.0596 5.77441 31.6372 6.47002 28.4513 7.79168C25.2654 9.11334 22.3578 11.0471 19.9232 13.4818C17.4885 15.9164 15.5547 18.7962 14.247 21.9682C12.9392 25.1402 12.2715 28.5348 12.2854 31.9572C12.2854 32.9867 12.341 34.0162 12.4662 35.0457C15.2069 35.0457 18.5598 34.9761 22.3021 34.9761V36.9377C19.4919 37.5916 16.2782 38.3707 13.2314 38.9689H13.2453ZM40.0958 40.3323C38.162 41.2366 29.7591 43.2678 29.2304 43.393C29.6895 43.0174 36.3117 37.7307 35.2683 35.1013C38.6351 34.1553 41.9462 33.0145 45.2016 31.6928C42.9478 35.0457 42.0714 39.3724 40.0958 40.3323ZM35.63 18.671C37.8282 18.5319 40.7497 21.843 44.4086 23.6098C57.9452 21.3839 59.6981 24.0272 59.6981 24.0272L24.7924 36.256V34.2109L29.9817 31.1085C31.0947 30.3155 34.058 25.5576 34.058 25.5576C33.6406 22.6499 24.6533 21.37 24.6533 21.37C24.6533 21.37 33.418 18.8241 35.63 18.671V18.671Z" fill="black"/>
</g>
<defs>
<clipPath id="clip0_141_3664">
<rect width="262.927" height="64.01" fill="white"/>
</clipPath>
</defs>
</svg>
