<?xml version="1.0" encoding="utf-8"?>
<!-- Generator: Adobe Illustrator 25.4.1, SVG Export Plug-In . SVG Version: 6.00 Build 0)  -->
<svg version="1.1" id="Layer_1" xmlns="http://www.w3.org/2000/svg" xmlns:xlink="http://www.w3.org/1999/xlink" x="0px" y="0px"
	 viewBox="0 0 240 50" style="enable-background:new 0 0 240 50;" xml:space="preserve">
<style type="text/css">
	.st0{fill:#FFFFFF;}
	.st1{fill:#D5D6D5;}
	.st2{fill:#0A080B;}
</style>
<g>
	<g>
		<path class="st0" d="M22.37,4.801C16.705,4.703,11.363,6.566,7.322,10.05c-3.958,3.412-6.184,7.978-6.268,12.856
			c-0.244,13.828,4.47,15.229,9.598,16.396c1.363,0.311,2.236,1.644,1.977,3.018c-0.018,0.092-0.03,0.185-0.031,0.28
			c-0.007,0.403,0.136,0.782,0.402,1.066c0.143,0.152,0.453,0.41,0.919,0.417c0.595,0.015,1.126-0.405,1.308-1.012
			c0.367-1.225,1.577-2.002,2.846-1.827c1.27,0.175,2.222,1.25,2.243,2.531c0.012,0.789,0.593,1.416,1.319,1.427
			c0.733,0.017,1.333-0.591,1.372-1.38c0.061-1.16,0.879-2.124,1.98-2.391c0.115-0.028,0.231-0.048,0.35-0.06
			c1.275-0.13,2.454,0.687,2.78,1.927c0.161,0.613,0.683,1.047,1.269,1.057c0.47,0.009,0.788-0.239,0.936-0.385
			c0.276-0.274,0.432-0.648,0.438-1.051c0.002-0.098-0.006-0.19-0.019-0.283c-0.213-1.383,0.741-2.66,2.081-2.947
			c5.146-0.981,9.977-2.216,10.22-16.048C43.22,13.457,33.946,5.005,22.37,4.801z"/>
		<path d="M38.072,21.931c-1.413-3.927-5.528-6.042-9.191-4.724c-3.662,1.318-5.486,5.57-4.072,9.497
			c1.413,3.927,5.528,6.042,9.191,4.724C37.662,30.11,39.486,25.858,38.072,21.931z"/>
		<g>
			<path class="st1" d="M21.515,41.367c-0.119,0.012-0.235,0.032-0.35,0.06c-0.545,0.132-1.02,0.436-1.369,0.849
				c0.314,0.424,0.51,0.939,0.519,1.5c0.012,0.788,0.593,1.415,1.319,1.427c0.733,0.017,1.333-0.591,1.372-1.38
				c0.033-0.624,0.29-1.187,0.687-1.619C23.153,41.614,22.358,41.281,21.515,41.367z"/>
			<path class="st1" d="M22.37,4.801c-0.782-0.014-1.556,0.014-2.323,0.074c10.867,0.87,19.344,9.02,19.174,18.761
				C38.977,37.468,34.146,38.704,29,39.685c-1.044,0.224-1.846,1.051-2.051,2.059c0.558,0.34,0.991,0.881,1.168,1.554
				c0.16,0.613,0.682,1.047,1.268,1.057c0.47,0.009,0.788-0.24,0.935-0.385c0.276-0.275,0.432-0.648,0.439-1.051
				c0.002-0.098-0.006-0.191-0.019-0.283c-0.213-1.383,0.742-2.66,2.081-2.947c5.146-0.981,9.977-2.217,10.221-16.049
				C43.22,13.456,33.946,5.005,22.37,4.801z"/>
		</g>
		<path class="st2" d="M22.501,30.469c-2.162-0.314-4.141,4.244-3.221,4.96c1.266,0.986,2.056-0.348,2.748-0.389
			c0.394-0.023,1.895,1.29,2.921,0.354C25.976,34.458,24.058,30.695,22.501,30.469z"/>
		<g>
			<g>
				<path d="M8.373,30.943c-0.608,0.065-1.24-0.141-1.699-0.614c-0.792-0.817-0.773-2.122,0.044-2.915l8.465-8.214
					c0.818-0.792,2.122-0.772,2.915,0.044c0.792,0.817,0.773,2.122-0.044,2.915l-8.465,8.214
					C9.244,30.707,8.815,30.896,8.373,30.943z"/>
			</g>
			<g>
				<path d="M16.713,31.069c-0.608,0.065-1.24-0.141-1.699-0.614L6.8,21.99c-0.792-0.817-0.773-2.122,0.044-2.915
					c0.818-0.792,2.122-0.772,2.915,0.044l8.214,8.465c0.792,0.817,0.773,2.122-0.044,2.915
					C17.584,30.832,17.155,31.022,16.713,31.069z"/>
			</g>
		</g>
	</g>
	<g>
		<path class="st0" d="M65.223,28.687c0-0.254-0.044-0.491-0.132-0.713s-0.238-0.428-0.449-0.62s-0.488-0.368-0.83-0.527
			c-0.342-0.159-0.767-0.308-1.274-0.444c-0.619-0.169-1.209-0.381-1.772-0.635s-1.06-0.56-1.489-0.918s-0.773-0.774-1.03-1.25
			s-0.386-1.022-0.386-1.641c0-0.599,0.127-1.143,0.381-1.631s0.605-0.905,1.055-1.25s0.98-0.61,1.592-0.796
			s1.276-0.278,1.992-0.278c0.742,0,1.421,0.107,2.036,0.322s1.144,0.516,1.587,0.903s0.788,0.848,1.035,1.382
			s0.371,1.12,0.371,1.758h-2.676c-0.013-0.319-0.07-0.612-0.171-0.879s-0.25-0.496-0.449-0.688s-0.446-0.342-0.742-0.449
			c-0.296-0.107-0.643-0.161-1.04-0.161c-0.365,0-0.688,0.044-0.972,0.132s-0.522,0.212-0.718,0.371s-0.343,0.349-0.444,0.566
			s-0.151,0.454-0.151,0.708c0,0.267,0.067,0.508,0.2,0.723s0.327,0.408,0.581,0.581s0.562,0.33,0.923,0.474s0.77,0.276,1.226,0.4
			c0.651,0.188,1.25,0.42,1.797,0.693s1.017,0.598,1.411,0.972s0.7,0.801,0.918,1.279s0.327,1.011,0.327,1.597
			c0,0.625-0.125,1.18-0.376,1.665s-0.597,0.896-1.04,1.23s-0.97,0.589-1.582,0.762s-1.279,0.259-2.002,0.259
			c-0.449,0-0.897-0.041-1.343-0.122s-0.873-0.207-1.279-0.376c-0.406-0.169-0.786-0.381-1.138-0.635s-0.656-0.55-0.913-0.889
			s-0.459-0.723-0.605-1.152s-0.22-0.905-0.22-1.426h2.695c0.013,0.43,0.088,0.798,0.225,1.104s0.327,0.557,0.571,0.752
			s0.537,0.339,0.879,0.43s0.718,0.137,1.128,0.137c0.365,0,0.688-0.042,0.972-0.127c0.284-0.085,0.522-0.202,0.718-0.352
			s0.345-0.33,0.449-0.542S65.223,28.941,65.223,28.687z"/>
		<path class="st0" d="M73.914,28.033l-1.23,1.143v3.223h-2.715v-15h2.715v8.574l0.82-0.938l2.92-3.203h3.262l-3.984,4.404
			l4.541,6.162h-3.33L73.914,28.033z"/>
		<path class="st0" d="M87.069,32.593c-0.813,0-1.553-0.134-2.217-0.4c-0.664-0.266-1.233-0.63-1.709-1.089
			s-0.842-0.999-1.099-1.621s-0.386-1.287-0.386-1.997v-0.391c0-0.808,0.127-1.545,0.381-2.212s0.608-1.242,1.064-1.724
			s0.996-0.856,1.621-1.123s1.306-0.4,2.041-0.4c0.762,0,1.44,0.125,2.036,0.376s1.101,0.604,1.514,1.06s0.728,1.004,0.942,1.646
			s0.322,1.35,0.322,2.124v1.152h-7.168c0.052,0.358,0.158,0.686,0.317,0.981s0.363,0.552,0.61,0.767s0.53,0.381,0.85,0.498
			s0.667,0.176,1.045,0.176c0.267,0,0.532-0.026,0.796-0.078s0.516-0.129,0.757-0.229s0.466-0.227,0.674-0.376
			s0.391-0.325,0.547-0.527l1.357,1.465c-0.169,0.241-0.389,0.477-0.659,0.708s-0.589,0.437-0.957,0.615
			c-0.368,0.178-0.776,0.324-1.226,0.435S87.589,32.593,87.069,32.593z M86.746,23.833c-0.306,0-0.586,0.054-0.84,0.161
			s-0.477,0.262-0.669,0.464s-0.354,0.442-0.483,0.723s-0.228,0.593-0.293,0.938h4.453v-0.215c-0.013-0.286-0.068-0.557-0.166-0.811
			s-0.237-0.474-0.42-0.659s-0.405-0.332-0.669-0.439S87.091,23.833,86.746,23.833z"/>
		<path class="st0" d="M93.51,17.398h5.908v12.793h3.027v2.207h-8.936v-2.207h3.164V19.615h-3.164v-2.217H93.51z"/>
		<path class="st0" d="M109.073,32.593c-0.813,0-1.553-0.134-2.217-0.4c-0.664-0.266-1.233-0.63-1.709-1.089
			s-0.842-0.999-1.099-1.621s-0.386-1.287-0.386-1.997v-0.391c0-0.808,0.127-1.545,0.381-2.212s0.608-1.242,1.064-1.724
			s0.996-0.856,1.621-1.123s1.306-0.4,2.041-0.4c0.762,0,1.44,0.125,2.036,0.376s1.101,0.604,1.514,1.06s0.728,1.004,0.942,1.646
			s0.322,1.35,0.322,2.124v1.152h-7.168c0.052,0.358,0.158,0.686,0.317,0.981s0.363,0.552,0.61,0.767s0.53,0.381,0.85,0.498
			s0.667,0.176,1.045,0.176c0.267,0,0.532-0.026,0.796-0.078s0.516-0.129,0.757-0.229s0.466-0.227,0.674-0.376
			s0.391-0.325,0.547-0.527l1.357,1.465c-0.169,0.241-0.389,0.477-0.659,0.708s-0.589,0.437-0.957,0.615
			c-0.368,0.178-0.776,0.324-1.226,0.435S109.593,32.593,109.073,32.593z M108.75,23.833c-0.306,0-0.586,0.054-0.84,0.161
			s-0.477,0.262-0.669,0.464s-0.354,0.442-0.483,0.723s-0.228,0.593-0.293,0.938h4.453v-0.215c-0.013-0.286-0.068-0.557-0.166-0.811
			s-0.237-0.474-0.42-0.659s-0.405-0.332-0.669-0.439C109.4,23.887,109.095,23.833,108.75,23.833z"/>
		<path class="st0" d="M119.928,19.244v2.588h3.945v2.002h-3.945v4.541c0,0.384,0.044,0.705,0.132,0.962s0.213,0.462,0.376,0.615
			s0.359,0.262,0.591,0.327s0.49,0.098,0.776,0.098c0.208,0,0.422-0.01,0.64-0.029s0.427-0.044,0.625-0.073s0.384-0.061,0.557-0.093
			s0.32-0.065,0.444-0.098l0.264,1.865c-0.188,0.11-0.41,0.207-0.664,0.288s-0.524,0.148-0.811,0.2s-0.584,0.093-0.894,0.122
			s-0.613,0.044-0.913,0.044c-0.579,0-1.105-0.076-1.577-0.229s-0.876-0.391-1.211-0.713s-0.594-0.732-0.776-1.23
			s-0.273-1.096-0.273-1.792v-4.805h-2.412v-2.002h2.412v-2.588H119.928z"/>
		<path class="st0" d="M125.578,27.017c0-0.769,0.11-1.479,0.332-2.134s0.545-1.223,0.972-1.704s0.947-0.859,1.562-1.133
			c0.615-0.274,1.32-0.41,2.114-0.41s1.501,0.137,2.119,0.41s1.141,0.651,1.567,1.133s0.75,1.05,0.972,1.704
			s0.332,1.365,0.332,2.134v0.205c0,0.774-0.11,1.489-0.332,2.144s-0.544,1.223-0.967,1.704s-0.944,0.857-1.562,1.128
			c-0.618,0.271-1.321,0.405-2.109,0.405c-0.794,0-1.502-0.135-2.124-0.405c-0.622-0.27-1.146-0.646-1.572-1.128
			s-0.75-1.05-0.972-1.704s-0.332-1.369-0.332-2.144L125.578,27.017L125.578,27.017z M128.293,27.222
			c0,0.442,0.042,0.857,0.127,1.245s0.218,0.726,0.4,1.016s0.418,0.52,0.708,0.688s0.64,0.254,1.05,0.254
			c0.397,0,0.739-0.085,1.025-0.254s0.52-0.398,0.698-0.688s0.311-0.628,0.396-1.016s0.127-0.803,0.127-1.245v-0.205
			c0-0.43-0.042-0.837-0.127-1.221s-0.217-0.723-0.396-1.016s-0.412-0.524-0.698-0.693s-0.635-0.254-1.045-0.254
			c-0.403,0-0.749,0.085-1.035,0.254s-0.521,0.4-0.703,0.693s-0.315,0.632-0.4,1.016s-0.127,0.791-0.127,1.221L128.293,27.222
			L128.293,27.222z"/>
		<path class="st0" d="M140.412,21.831l0.166,1.465c0.378-0.527,0.837-0.936,1.377-1.226s1.14-0.435,1.797-0.435
			c0.534,0,1.022,0.078,1.465,0.234s0.825,0.405,1.147,0.747s0.573,0.781,0.752,1.318s0.269,1.189,0.269,1.958v6.504h-2.715v-6.465
			c0-0.417-0.047-0.76-0.142-1.03s-0.229-0.483-0.405-0.64s-0.388-0.266-0.635-0.327s-0.527-0.093-0.84-0.093
			c-0.462,0-0.856,0.093-1.182,0.278s-0.589,0.441-0.791,0.767v7.51h-2.725V21.83L140.412,21.831L140.412,21.831z"/>
		<path class="st0" d="M167.233,26.509h-6.094v5.889h-2.754V18.179h9.609v2.236h-6.855v3.867h6.094V26.509z"/>
		<path class="st0" d="M170.032,21.831h5.752v8.359h2.861v2.207h-8.613V30.19h3.008v-6.143h-3.008V21.831z M172.844,19.126
			c0-0.208,0.037-0.402,0.112-0.581s0.181-0.332,0.317-0.459s0.301-0.227,0.493-0.298s0.405-0.107,0.64-0.107
			c0.481,0,0.864,0.135,1.147,0.405s0.425,0.617,0.425,1.04s-0.142,0.77-0.425,1.04s-0.666,0.405-1.147,0.405
			c-0.234,0-0.447-0.036-0.64-0.107s-0.356-0.171-0.493-0.298s-0.242-0.28-0.317-0.459S172.844,19.334,172.844,19.126z"/>
		<path class="st0" d="M183.772,21.831l0.166,1.465c0.378-0.527,0.837-0.936,1.377-1.226s1.14-0.435,1.797-0.435
			c0.534,0,1.022,0.078,1.465,0.234s0.825,0.405,1.147,0.747s0.573,0.781,0.752,1.318s0.269,1.189,0.269,1.958v6.504h-2.715v-6.465
			c0-0.417-0.047-0.76-0.142-1.03s-0.229-0.483-0.405-0.64s-0.388-0.266-0.635-0.327s-0.527-0.093-0.84-0.093
			c-0.462,0-0.856,0.093-1.182,0.278s-0.589,0.441-0.791,0.767v7.51h-2.725V21.83L183.772,21.831L183.772,21.831z"/>
		<path class="st0" d="M199.915,32.398c-0.065-0.13-0.12-0.28-0.166-0.449c-0.046-0.169-0.085-0.349-0.117-0.537
			c-0.149,0.163-0.322,0.315-0.518,0.459c-0.196,0.144-0.412,0.269-0.649,0.376s-0.5,0.192-0.786,0.254s-0.596,0.093-0.928,0.093
			c-0.54,0-1.037-0.078-1.489-0.234s-0.842-0.374-1.167-0.654s-0.579-0.613-0.762-1.001s-0.273-0.809-0.273-1.265
			c0-1.113,0.415-1.975,1.245-2.583s2.068-0.913,3.716-0.913h1.514v-0.625c0-0.508-0.166-0.91-0.498-1.206s-0.811-0.444-1.436-0.444
			c-0.554,0-0.957,0.119-1.211,0.356s-0.381,0.555-0.381,0.952h-2.715c0-0.449,0.1-0.876,0.298-1.279s0.488-0.759,0.869-1.064
			s0.847-0.549,1.396-0.728s1.18-0.269,1.89-0.269c0.638,0,1.232,0.078,1.782,0.234s1.027,0.388,1.431,0.693s0.72,0.691,0.947,1.157
			s0.342,1.004,0.342,1.616v4.531c0,0.566,0.036,1.035,0.107,1.406s0.176,0.69,0.312,0.957v0.166h-2.753V32.398z M197.327,30.494
			c0.273,0,0.527-0.032,0.762-0.098s0.446-0.149,0.635-0.254s0.352-0.223,0.488-0.356s0.244-0.269,0.322-0.405v-1.816h-1.387
			c-0.423,0-0.784,0.041-1.084,0.122s-0.544,0.195-0.732,0.342s-0.329,0.322-0.42,0.527s-0.137,0.428-0.137,0.669
			c0,0.364,0.129,0.667,0.386,0.908S196.806,30.494,197.327,30.494z"/>
		<path class="st0" d="M207.776,21.831l0.166,1.465c0.378-0.527,0.837-0.936,1.377-1.226s1.14-0.435,1.797-0.435
			c0.534,0,1.022,0.078,1.465,0.234s0.825,0.405,1.147,0.747s0.573,0.781,0.752,1.318s0.269,1.189,0.269,1.958v6.504h-2.715v-6.465
			c0-0.417-0.047-0.76-0.142-1.03s-0.229-0.483-0.405-0.64s-0.388-0.266-0.635-0.327s-0.527-0.093-0.84-0.093
			c-0.462,0-0.856,0.093-1.182,0.278s-0.589,0.441-0.791,0.767v7.51h-2.725V21.83L207.776,21.831L207.776,21.831z"/>
		<path class="st0" d="M234.446,32.593c-0.813,0-1.553-0.134-2.217-0.4c-0.664-0.266-1.233-0.63-1.709-1.089
			s-0.842-0.999-1.099-1.621s-0.386-1.287-0.386-1.997v-0.391c0-0.808,0.127-1.545,0.381-2.212s0.608-1.242,1.064-1.724
			s0.996-0.856,1.621-1.123s1.306-0.4,2.041-0.4c0.762,0,1.44,0.125,2.036,0.376s1.101,0.604,1.514,1.06s0.728,1.004,0.942,1.646
			s0.322,1.35,0.322,2.124v1.152h-7.168c0.052,0.358,0.158,0.686,0.317,0.981s0.363,0.552,0.61,0.767s0.53,0.381,0.85,0.498
			s0.667,0.176,1.045,0.176c0.267,0,0.532-0.026,0.796-0.078s0.516-0.129,0.757-0.229s0.466-0.227,0.674-0.376
			s0.391-0.325,0.547-0.527l1.357,1.465c-0.169,0.241-0.389,0.477-0.659,0.708s-0.589,0.437-0.957,0.615
			c-0.368,0.178-0.776,0.324-1.226,0.435S234.967,32.593,234.446,32.593z M234.124,23.833c-0.306,0-0.586,0.054-0.84,0.161
			s-0.477,0.262-0.669,0.464s-0.354,0.442-0.483,0.723s-0.228,0.593-0.293,0.938h4.453v-0.215c-0.013-0.286-0.068-0.557-0.166-0.811
			s-0.237-0.474-0.42-0.659s-0.405-0.332-0.669-0.439S234.468,23.833,234.124,23.833z"/>
		<path class="st0" d="M223.816,29.458c-0.101,0.202-0.242,0.374-0.425,0.518s-0.394,0.254-0.635,0.332s-0.495,0.117-0.762,0.117
			c-0.437,0-0.796-0.088-1.079-0.264s-0.508-0.408-0.674-0.698c-0.081-0.142-0.149-0.294-0.206-0.457
			c-0.048-0.17-0.083-0.345-0.083-0.53c0-0.51,0.195-0.97,0.505-1.326c-0.311-0.355-0.505-0.815-0.505-1.325
			c0-0.203,0.04-0.394,0.097-0.578c0.057-0.158,0.123-0.309,0.202-0.448c0.166-0.293,0.389-0.527,0.669-0.703
			s0.635-0.264,1.064-0.264c0.293,0,0.563,0.051,0.811,0.151s0.459,0.236,0.635,0.405s0.31,0.371,0.4,0.605s0.13,0.481,0.117,0.742
			h2.559c0.013-0.625-0.091-1.189-0.312-1.694s-0.532-0.935-0.933-1.289s-0.877-0.63-1.431-0.825s-1.155-0.293-1.807-0.293
			c-0.813,0-1.528,0.14-2.144,0.42s-1.131,0.661-1.548,1.143s-0.729,1.047-0.938,1.694s-0.312,1.343-0.312,2.085v0.293
			c0,0.742,0.105,1.438,0.317,2.085s0.524,1.213,0.938,1.694s0.93,0.861,1.548,1.138c0.618,0.277,1.338,0.415,2.158,0.415
			c0.605,0,1.18-0.096,1.724-0.288s1.021-0.457,1.431-0.796s0.734-0.742,0.972-1.211s0.35-0.977,0.337-1.523h-2.559
			C223.961,29.032,223.917,29.256,223.816,29.458z M220.021,25.342c0.009-0.027,0.015-0.057,0.024-0.084
			C220.035,25.285,220.03,25.315,220.021,25.342z"/>
		<rect x="151.389" y="29.397" class="st0" width="3" height="3"/>
	</g>
</g>
</svg>
