<svg id="图层_1" data-name="图层 1" xmlns="http://www.w3.org/2000/svg" viewBox="0 0 145 55"><defs><style>.cls-1{fill:none;stroke:#00ff71;stroke-miterlimit:10;stroke-width:4px;}.cls-2{fill:#00ff71;}</style></defs><title>LOGO_Heng</title><path class="cls-1" d="M2.28,32S10.11,35.34,13,33s1-11,14.16-11.42C42.31,21.07,34,26.3,34,26.3S26.17,33,35.93,34.39s16.15-10,16.15-10m0,3.11a24.9,24.9,0,1,1-24.9-25A24.95,24.95,0,0,1,52.08,27.51Z"/><path class="cls-2" d="M81.89,40.66V42H70L65.31,26.7h-.25L60.37,42H48.49V40.66h7.68l-7.3-21h4.05l5.61,16.1,5-16.1h3.38l5,16.1,5.61-16.1h4l-7.29,21Zm25.67,0V42h-7.1l-2.24-5.09H87.07L84.84,42H77.73V40.66h3.7l9.21-21h4l9.21,21ZM96.7,33.46l-4-9.22L88.6,33.46Zm28.81,7.2V42H103.2V40.66h8.48l-8.38-21h4.2l6.86,16.71,6.85-16.71h4.21l-8.42,21Zm3.1,0v-21h15.65v3.56H132.37v5.92h10.68V32.5H132.37v6h12.27l.08,3.59-19.2,0V40.66Z"/></svg>