<svg width="170" height="36" viewBox="0 0 170 36" fill="none" xmlns="http://www.w3.org/2000/svg">
<path d="M36.7566 18.4753C36.7531 20.8112 36.3049 23.125 35.4362 25.2925C35.3682 25.462 35.0226 26.1114 35.0107 26.1289C34.7295 26.5389 34.2572 27.0833 33.7242 27.0833C33.0461 27.0833 32.7134 26.6227 32.5296 25.7936C32.5011 25.6665 32.4148 24.8281 32.4037 24.5398C32.3817 23.9447 32.333 23.3247 32.2503 22.6872C31.9334 20.1413 31.051 17.699 29.6681 15.5402C28.0646 13.0528 25.771 10.9441 22.8461 9.26654C22.7891 9.17902 22.7432 9.10624 22.6871 9.01872C22.5853 7.94122 22.1411 6.92496 21.42 6.11957C20.1932 4.73771 18.2708 4.09284 16.4027 4.44752C15.3248 4.64927 14.4775 5.1145 13.8839 5.82938C13.8012 5.92894 13.7429 6.04655 13.7137 6.17278C13.6845 6.29901 13.6852 6.43034 13.7158 6.55624C13.8957 7.3997 13.9832 8.26032 13.9767 9.12282L13.8665 9.3605C12.7989 10.3011 11.8933 11.4117 11.186 12.6475C9.88297 14.8843 8.49541 18.6991 9.28935 24.1713C9.30514 24.2792 9.342 24.3829 9.39782 24.4765C9.45364 24.5701 9.52732 24.6517 9.61465 24.7167C9.62292 24.7231 9.66611 24.7545 9.73962 24.8042C9.83978 24.8714 9.996 24.9719 10.1991 25.0889C10.6805 25.3612 11.1863 25.5879 11.7098 25.766C11.9202 25.8378 12.1426 25.9042 12.376 25.9622C14.563 26.5057 16.5598 25.9696 18.3756 24.6043C19.1107 24.0515 20.0691 22.3933 19.754 22.0248C19.4691 21.6922 17.8454 23.1414 17.4943 23.4011C14.744 25.4371 12.2565 23.5495 11.2733 22.9092L11.1309 22.6798C10.6659 18.9368 10.9728 16.3408 12.5671 13.5595L12.5947 13.5125C12.7941 13.1671 12.999 12.8511 13.2021 12.5637L13.4952 12.1417C13.5243 12.0999 13.5629 12.0658 13.608 12.0422C13.653 12.0186 13.7031 12.0063 13.7539 12.0063C13.8047 12.0063 13.8548 12.0186 13.8998 12.0422C13.9449 12.0658 13.9835 12.0999 14.0126 12.1417C14.059 12.2078 14.0774 12.2896 14.064 12.3693C13.996 12.823 13.8449 13.2603 13.6184 13.659C13.3978 14.0505 14.4243 13.7355 14.7918 13.0906C15.1446 12.4585 15.3773 11.7663 15.4782 11.0491C15.5398 10.6558 15.5701 10.2587 15.6005 9.85152C15.6187 9.76714 15.6236 9.68042 15.6152 9.5945C15.6526 8.66999 15.5968 7.74406 15.4488 6.83077C15.504 6.7193 15.5564 6.6106 15.6115 6.49821C15.7953 6.39963 15.9304 6.43648 16.3365 6.36002C17.6386 6.11589 18.971 6.5544 19.8146 7.5042C20.3604 8.1062 20.6699 8.88618 20.6857 9.69952C20.6852 9.70257 20.6852 9.70568 20.6857 9.70873C20.672 9.94826 20.6481 10.1694 20.6159 10.3739C20.4036 11.7226 19.8266 12.3472 19.368 12.6116C19.3466 12.624 19.3294 12.6428 19.3189 12.6653C19.3084 12.6878 19.3051 12.7129 19.3093 12.7374C19.3135 12.7619 19.325 12.7845 19.3425 12.8022C19.3599 12.8199 19.3822 12.8318 19.4066 12.8363C20.1068 12.9672 21.7039 13.0565 22.3628 11.3531L22.6522 11.261L22.8314 11.2039C23.9951 11.9722 25.0122 12.9431 25.8344 14.0708C27.7807 16.7074 28.6426 19.9612 28.8861 22.5905C28.8821 24.8741 28.2973 27.1191 27.1872 29.1132C26.0771 31.1074 24.4782 32.7848 22.5416 33.9872C20.605 35.1896 18.3946 35.8772 16.1192 35.985C13.8438 36.0928 11.5786 35.6173 9.53746 34.6034C6.64438 33.0153 4.23174 30.6748 2.55337 27.8282C0.875003 24.9816 -0.00703983 21.7341 4.23144e-05 18.4274C4.23144e-05 8.35635 8.05893 0.17296 18.0641 0.0025305C28.3146 -0.166978 36.7824 8.20158 36.7566 18.4753Z" fill="#FF7000"/>
<path d="M48.2422 18.9429C48.2422 17.0633 48.6365 15.3917 49.4252 13.9278C50.2322 12.4459 51.3693 11.2983 52.8366 10.485C54.3039 9.6537 55.9912 9.23804 57.8987 9.23804C60.3197 9.23804 62.3555 9.87961 64.0062 11.1627C65.6569 12.4278 66.7206 14.1537 67.1975 16.3404H61.3926C61.0441 15.6176 60.5581 15.0664 59.9345 14.6868C59.3293 14.3073 58.6231 14.1176 57.8161 14.1176C56.5689 14.1176 55.5694 14.5603 54.8174 15.4459C54.0838 16.3133 53.7169 17.479 53.7169 18.9429C53.7169 20.4248 54.0838 21.6085 54.8174 22.4941C55.5694 23.3615 56.5689 23.7953 57.8161 23.7953C58.6231 23.7953 59.3293 23.6055 59.9345 23.226C60.5581 22.8465 61.0441 22.2953 61.3926 21.5724H67.1975C66.7206 23.7591 65.6569 25.4941 64.0062 26.7772C62.3555 28.0423 60.3197 28.6748 57.8987 28.6748C55.9912 28.6748 54.3039 28.2682 52.8366 27.4549C51.3693 26.6236 50.2322 25.476 49.4252 24.0121C48.6365 22.5302 48.2422 20.8404 48.2422 18.9429Z" fill="#FF7000"/>
<path d="M79.9026 13.1959C81.6633 13.1959 83.0572 13.7832 84.0843 14.9579C85.1297 16.1145 85.6524 17.6868 85.6524 19.6748V28.5392H80.2602V20.3796C80.2602 19.5121 80.031 18.8344 79.5724 18.3465C79.1139 17.8404 78.4995 17.5874 77.7292 17.5874C76.9222 17.5874 76.2894 17.8404 75.8309 18.3465C75.3724 18.8344 75.1431 19.5121 75.1431 20.3796V28.5392H69.7509V8.479H75.1431V15.5001C75.62 14.8133 76.2619 14.2621 77.0689 13.8465C77.8942 13.4127 78.8388 13.1959 79.9026 13.1959Z" fill="#FF7000"/>
<path d="M103.357 20.7591C103.357 21.1748 103.33 21.5904 103.275 22.0061H93.068C93.1231 22.8374 93.3523 23.4609 93.7558 23.8766C94.1777 24.2742 94.7096 24.473 95.3515 24.473C96.2502 24.473 96.8921 24.0754 97.2773 23.2802H103.027C102.789 24.3284 102.321 25.2682 101.624 26.0995C100.945 26.9127 100.083 27.5543 99.038 28.0242C97.9926 28.4941 96.8371 28.729 95.5716 28.729C94.0493 28.729 92.6921 28.4127 91.4999 27.7802C90.3261 27.1477 89.3999 26.2441 88.7212 25.0694C88.061 23.8947 87.7308 22.5121 87.7308 20.9218C87.7308 19.3314 88.061 17.9579 88.7212 16.8013C89.3815 15.6266 90.2986 14.723 91.4724 14.0904C92.6645 13.4579 94.0309 13.1417 95.5716 13.1417C97.0939 13.1417 98.4419 13.4489 99.6157 14.0633C100.79 14.6778 101.707 15.5633 102.367 16.72C103.027 17.8585 103.357 19.2049 103.357 20.7591ZM97.855 19.4308C97.855 18.7802 97.6349 18.2742 97.1947 17.9127C96.7546 17.5332 96.2043 17.3435 95.5441 17.3435C94.8838 17.3435 94.3427 17.5242 93.9209 17.8856C93.499 18.229 93.2239 18.7441 93.0956 19.4308H97.855Z" fill="#FF7000"/>
<path d="M120.31 20.7591C120.31 21.1748 120.283 21.5904 120.228 22.0061H110.021C110.076 22.8374 110.305 23.4609 110.709 23.8766C111.13 24.2742 111.662 24.473 112.304 24.473C113.203 24.473 113.845 24.0754 114.23 23.2802H119.98C119.741 24.3284 119.274 25.2682 118.577 26.0995C117.898 26.9127 117.036 27.5543 115.991 28.0242C114.945 28.4941 113.79 28.729 112.524 28.729C111.002 28.729 109.645 28.4127 108.453 27.7802C107.279 27.1477 106.353 26.2441 105.674 25.0694C105.014 23.8947 104.684 22.5121 104.684 20.9218C104.684 19.3314 105.014 17.9579 105.674 16.8013C106.334 15.6266 107.251 14.723 108.425 14.0904C109.617 13.4579 110.984 13.1417 112.524 13.1417C114.047 13.1417 115.395 13.4489 116.569 14.0633C117.742 14.6778 118.659 15.5633 119.32 16.72C119.98 17.8585 120.31 19.2049 120.31 20.7591ZM114.808 19.4308C114.808 18.7802 114.588 18.2742 114.148 17.9127C113.707 17.5332 113.157 17.3435 112.497 17.3435C111.837 17.3435 111.296 17.5242 110.874 17.8856C110.452 18.229 110.177 18.7441 110.048 19.4308H114.808Z" fill="#FF7000"/>
<path d="M129.092 28.729C127.698 28.729 126.451 28.5031 125.35 28.0513C124.268 27.5814 123.406 26.9489 122.764 26.1537C122.141 25.3404 121.792 24.4278 121.719 23.4158H126.946C127.019 23.9037 127.249 24.2832 127.634 24.5543C128.019 24.8254 128.496 24.9609 129.064 24.9609C129.505 24.9609 129.853 24.8706 130.11 24.6898C130.367 24.5091 130.495 24.2742 130.495 23.985C130.495 23.6055 130.284 23.3254 129.862 23.1447C129.44 22.9639 128.744 22.7651 127.771 22.5483C126.671 22.3314 125.754 22.0874 125.02 21.8164C124.287 21.5453 123.645 21.1025 123.095 20.488C122.563 19.8736 122.297 19.0423 122.297 17.9941C122.297 17.0904 122.544 16.2772 123.04 15.5543C123.535 14.8133 124.259 14.226 125.213 13.7923C126.185 13.3585 127.35 13.1417 128.707 13.1417C130.724 13.1417 132.311 13.6296 133.466 14.6055C134.622 15.5814 135.291 16.8645 135.475 18.4549H130.605C130.513 17.967 130.293 17.5965 129.945 17.3435C129.615 17.0724 129.165 16.9368 128.597 16.9368C128.157 16.9368 127.817 17.0182 127.579 17.1808C127.359 17.3435 127.249 17.5694 127.249 17.8585C127.249 18.22 127.46 18.5001 127.881 18.6989C128.303 18.8796 128.982 19.0694 129.917 19.2682C131.036 19.5031 131.962 19.7651 132.696 20.0543C133.448 20.3435 134.099 20.8133 134.649 21.4639C135.218 22.0965 135.502 22.9639 135.502 24.0664C135.502 24.9519 135.236 25.7471 134.704 26.4519C134.191 27.1567 133.448 27.717 132.476 28.1326C131.522 28.5302 130.394 28.729 129.092 28.729Z" fill="#FF7000"/>
<path d="M153.945 13.3314V28.5392H148.525V26.3706C148.066 27.0573 147.434 27.6176 146.627 28.0513C145.82 28.467 144.893 28.6748 143.848 28.6748C142.051 28.6748 140.629 28.0965 139.584 26.9398C138.557 25.7651 138.043 24.1748 138.043 22.1688V13.3314H143.408V21.4911C143.408 22.3585 143.637 23.0453 144.096 23.5513C144.572 24.0392 145.196 24.2832 145.966 24.2832C146.755 24.2832 147.379 24.0392 147.837 23.5513C148.296 23.0453 148.525 22.3585 148.525 21.4911V13.3314H153.945Z" fill="#FF7000"/>
<path d="M163.589 28.729C162.195 28.729 160.948 28.5031 159.847 28.0513C158.765 27.5814 157.903 26.9489 157.261 26.1537C156.637 25.3404 156.289 24.4278 156.216 23.4158H161.443C161.516 23.9037 161.745 24.2832 162.131 24.5543C162.516 24.8254 162.993 24.9609 163.561 24.9609C164.001 24.9609 164.35 24.8706 164.607 24.6898C164.863 24.5091 164.992 24.2742 164.992 23.985C164.992 23.6055 164.781 23.3254 164.359 23.1447C163.937 22.9639 163.24 22.7651 162.268 22.5483C161.168 22.3314 160.251 22.0874 159.517 21.8164C158.783 21.5453 158.141 21.1025 157.591 20.488C157.059 19.8736 156.793 19.0423 156.793 17.9941C156.793 17.0904 157.041 16.2772 157.536 15.5543C158.031 14.8133 158.756 14.226 159.71 13.7923C160.682 13.3585 161.846 13.1417 163.203 13.1417C165.221 13.1417 166.807 13.6296 167.963 14.6055C169.118 15.5814 169.788 16.8645 169.971 18.4549H165.102C165.01 17.967 164.79 17.5965 164.441 17.3435C164.111 17.0724 163.662 16.9368 163.093 16.9368C162.653 16.9368 162.314 17.0182 162.076 17.1808C161.855 17.3435 161.745 17.5694 161.745 17.8585C161.745 18.22 161.956 18.5001 162.378 18.6989C162.8 18.8796 163.479 19.0694 164.414 19.2682C165.533 19.5031 166.459 19.7651 167.193 20.0543C167.945 20.3435 168.596 20.8133 169.146 21.4639C169.714 22.0965 169.999 22.9639 169.999 24.0664C169.999 24.9519 169.733 25.7471 169.201 26.4519C168.687 27.1567 167.945 27.717 166.973 28.1326C166.019 28.5302 164.891 28.729 163.589 28.729Z" fill="#FF7000"/>
</svg>

