<svg width="521" height="135" fill="none" xmlns="http://www.w3.org/2000/svg"><path d="M154.309 52.727h-23.865V35.3h69.597v17.427h-23.754V113h-21.978V52.727zm51.729.111h21.09V113h-21.09V52.838zm10.545-6.66c-3.848 0-6.956-1.073-9.324-3.219-2.368-2.146-3.552-4.81-3.552-7.992 0-3.182 1.184-5.846 3.552-7.992 2.368-2.146 5.476-3.219 9.324-3.219s6.956 1.036 9.324 3.108c2.368 1.998 3.552 4.588 3.552 7.77 0 3.33-1.184 6.105-3.552 8.325-2.368 2.146-5.476 3.219-9.324 3.219zm62.102 5.661c5.476 0 10.434 1.295 14.874 3.885 4.514 2.516 8.066 6.142 10.656 10.878 2.664 4.662 3.996 10.101 3.996 16.317 0 6.216-1.332 11.692-3.996 16.428-2.59 4.662-6.142 8.288-10.656 10.878-4.44 2.516-9.398 3.774-14.874 3.774-7.03 0-12.617-2.109-16.761-6.327v26.862h-21.09V52.838h20.091v5.994c3.922-4.662 9.842-6.993 17.76-6.993zm-4.44 45.399c3.7 0 6.734-1.258 9.102-3.774 2.368-2.59 3.552-6.105 3.552-10.545 0-4.44-1.184-7.918-3.552-10.434-2.368-2.59-5.402-3.885-9.102-3.885s-6.734 1.295-9.102 3.885c-2.368 2.516-3.552 5.994-3.552 10.434 0 4.44 1.184 7.955 3.552 10.545 2.368 2.516 5.402 3.774 9.102 3.774zm55.127-44.511h-23.865V35.3h69.597v17.427H351.35V113h-21.978V52.727zm77.043 61.272c-6.438 0-12.247-1.332-17.427-3.996-5.18-2.664-9.25-6.364-12.21-11.1-2.886-4.736-4.329-10.101-4.329-16.095 0-5.92 1.443-11.248 4.329-15.984 2.96-4.736 6.993-8.399 12.099-10.989 5.18-2.664 11.026-3.996 17.538-3.996 6.512 0 12.358 1.332 17.538 3.996 5.18 2.59 9.213 6.253 12.099 10.989 2.886 4.662 4.329 9.99 4.329 15.984s-1.443 11.359-4.329 16.095c-2.886 4.736-6.919 8.436-12.099 11.1-5.18 2.664-11.026 3.996-17.538 3.996zm0-16.761c3.7 0 6.734-1.258 9.102-3.774 2.368-2.59 3.552-6.142 3.552-10.656 0-4.44-1.184-7.918-3.552-10.434-2.368-2.516-5.402-3.774-9.102-3.774s-6.734 1.258-9.102 3.774c-2.368 2.516-3.552 5.994-3.552 10.434 0 4.514 1.184 8.066 3.552 10.656 2.368 2.516 5.402 3.774 9.102 3.774zm71.042-5.328l-6.216 6.327V113h-21.09V30.638h21.09v43.179l21.534-20.979h24.975L492.775 78.59 519.859 113h-25.53l-16.872-21.09z" fill="#000"/><path fill-rule="evenodd" clip-rule="evenodd" d="M87.794 48.32c8.643 6.175 19.231 9.809 30.667 9.809V36.134a31.01 31.01 0 01-6.441-.674v17.314a52.583 52.583 0 01-30.666-9.809V87.85c0 22.454-18.211 40.655-40.675 40.655a40.493 40.493 0 01-22.644-6.877c7.387 7.549 17.687 12.232 29.083 12.232 22.465 0 40.677-18.201 40.677-40.655V48.32zm7.945-22.19a30.65 30.65 0 01-7.945-17.947l-.86-5.306h-7.347c1.536 8.759 8.88 18.718 16.152 23.254zm-63.496 78.268a18.515 18.515 0 01-3.795-11.258c0-10.27 8.33-18.596 18.606-18.596a18.639 18.639 0 015.645.871V52.929a41.04 41.04 0 00-6.438-.37V70.06a18.654 18.654 0 00-5.647-.871c-10.276 0-18.606 8.326-18.606 18.596 0 7.262 4.164 13.549 10.235 16.612z" fill="#EE1D52"/><path fill-rule="evenodd" clip-rule="evenodd" d="M112.018 35.46v-4.68a30.673 30.673 0 01-16.282-4.65 30.757 30.757 0 0016.282 9.331zM81.688 5.354a31.609 31.609 0 01-.337-2.525V0H60.148l-.931 87.85c-.036 10.24-8.35 18.532-18.606 18.532-3.011 0-5.854-.714-8.371-1.984 3.4 4.459 8.768 7.338 14.811 7.338 10.254 0 18.57-8.292 18.607-18.533l9.488-45.024-9.488-42.825h16.03zM46.259 52.56v-4.984a41.033 41.033 0 00-5.58-.379C18.21 47.196 0 65.398 0 87.85c0 14.076 7.157 26.481 18.033 33.778-7.173-7.329-11.593-17.36-11.593-28.425 0-22.166 17.748-40.189 39.818-40.644z" fill="#25F5EF"/><path fill-rule="evenodd" clip-rule="evenodd" d="M81.353 42.965c8.645 6.175 19.232 9.808 30.667 9.808V35.46a30.781 30.781 0 01-16.282-9.33c-7.272-4.535-12.32-14.648-13.855-23.406H66.272l-.612 90.478c-.036 10.242-8.352 18.534-18.607 18.534-6.043 0-11.411-2.879-14.811-7.338-6.072-3.063-10.235-9.35-10.235-16.612 0-10.27 8.33-18.597 18.606-18.597 1.969 0 3.866.307 5.646.871V52.558c-22.069.456-39.818 18.48-39.818 40.645 0 11.065 4.42 21.096 11.594 28.425a40.5 40.5 0 0022.643 6.876c22.464 0 40.675-18.202 40.675-40.654V42.965z" fill="#000"/><path d="M66.576 40.285l-.306-37.65c-1.683 9.642-7.5 15.304-7.5 15.304s-2.907 3.368-6.733 5.663c-.766.919-5.05 4.898-7.653 5.97-3.826 2.448-10.713 3.978-14.998 3.825v19.897c12.243-.153 21.58-1.378 30.61-7.5 1.53-1.377 3.52-2.755 6.58-5.51z" fill="#25F5EF"/><path d="M35.968 32.786c10.714-2.296 16.223-9.336 16.223-9.336-3.52 2.602-11.937 5.05-16.376 4.591l.153 4.745zm22.188-18.978c1.227-2.755 1.838-6.309 1.992-7.074.214-1.071 0-4.098 0-4.098h6.12c-.781 3.541-2.602 9.335-5.204 12.55-3.212 5.05-8.877 8.264-8.877 8.264s3.673-3.673 5.969-9.642z" fill="#25F5EF"/><path d="M66.577 40.285c6.965-15.825 10.871-28.325-.153-37.409-2.143 9.643-5.663 12.615-5.663 12.615s-4.438 5.816-8.57 7.958c-.766.919-3.215 2.908-5.051 4.439-4.132 2.755-6.734 3.826-11.173 4.897V50.08c9.336.153 19.131-3.367 22.04-4.745 1.683-.918 4.897-2.449 8.57-5.05z" fill="#000"/></svg>