<svg xmlns="http://www.w3.org/2000/svg" viewBox="0 0 786.77 119.71"><defs><style>.a{fill:#fff;}</style></defs><path class="a" d="M233.92,26.79l-7.65,38.26h-.66L218,26.79H177.8V40.73l.2,0c8.91,1.85,16.13,4,21.48,6.43a40.32,40.32,0,0,1,4,2.07h.1v.07c5,3,7.5,6.42,7.5,10.19q0,4-3.85,7.52l5.32,25.87h26.74l8.88-43.65h.56V92.92H274V26.79ZM199.48,71.85c-5.35,2.42-12.57,4.58-21.48,6.43l-.2,0v14.6H203V70.05A38.82,38.82,0,0,1,199.48,71.85ZM197.33,54.3c-4.64-2.19-11.37-4.27-19.53-6V70.78c8.16-1.76,14.89-3.84,19.53-6A17.36,17.36,0,0,0,203,60.94V58.11A17.17,17.17,0,0,0,197.33,54.3Z"/><path class="a" d="M337.55,26.79V59.67h-.65L322,26.79H289.56V92.92h25.23V60h.66l15.77,32.88h31.56V26.79Z"/><path class="a" d="M378.36,26.79V92.92h25.23V26.79Z"/><path class="a" d="M466.79,26.79l-9.63,43.65h-1.71l-9.63-43.65H417.28l20.79,66.13h36.37l20.79-66.13Z"/><path class="a" d="M564.57,46.63V26.79H508.93V92.92h55.64V73.08H534.15V68.83h27.68V50.88H534.15V46.63Z"/><path class="a" d="M633.25,70.15c5.48-4,8.23-10.3,8.23-19.08,0-16.25-9.36-24.28-28.54-24.28H579.21V92.92h25.23V75.25h5.48l8.5,17.67h27ZM610.49,56.36h-6V45.68h6c4.15,0,6.42,1.42,6.42,5.39S614.64,56.36,610.49,56.36Z"/><path class="a" d="M694.47,52.3c-6.33-1.52-13.32-2.93-13.32-6.24,0-2.55,1.89-3.59,4.82-3.59,3.11,0,5.66,1.79,5.66,5.2H715C715,30.28,699.67,25,686.06,25c-10.77,0-30.51,1-30.51,22.87,0,10.86,6.8,15.3,22.38,19.65,7.37,2.07,11.53,2.64,11.53,5.76,0,2.08-1.7,3.21-5.2,3.21-3.3,0-7.46-1.41-7.46-5.86H653c0,10.68,8.69,24.1,33.54,24.1,17.1,0,30.42-4.16,30.42-23C717,55.51,700.8,53.81,694.47,52.3Z"/><path class="a" d="M786.77,46.63V26.79H731.12V92.92h55.65V73.08H756.35V68.83H784V50.88H756.35V46.63Z"/><path class="a" d="M162.54,45.56c-.19-.8-.4-1.59-.63-2.38-.29-1-.61-2-1-3-.28-.82-.58-1.62-.9-2.42a59.85,59.85,0,0,0-111.26,0c-.32.8-.62,1.6-.9,2.42-.35,1-.67,2-1,3-.23.79-.44,1.58-.63,2.38a60.06,60.06,0,0,0-.17,27.91c2.95.42,6,.82,9.12,1.18a51.51,51.51,0,0,1,.21-30.27c.25-.8.53-1.59.82-2.37.37-1,.78-2,1.21-3,.37-.81.75-1.61,1.15-2.4a51.33,51.33,0,0,1,91.56,0c.4.79.78,1.59,1.15,2.4.43,1,.84,2,1.21,3,.29.78.57,1.57.82,2.37a51.51,51.51,0,0,1,.21,30.27c3.13-.36,6.17-.76,9.12-1.18a60.06,60.06,0,0,0-.17-27.91Zm-12,36.84a51.34,51.34,0,0,1-92.26,0c-3.34-.36-6.6-.74-9.77-1.16a59.85,59.85,0,0,0,111.8,0C157.15,81.66,153.89,82,150.55,82.4Z"/><path class="a" d="M204.25,52.47c-.39-.29-.79-.56-1.23-.83-6.15-3.9-16.2-6.71-25.22-8.59l-.26-.06c-4.2-.87-8.7-1.66-13.45-2.36.33,1,.62,2,.89,3,4.21.64,8.22,1.35,12,2.14l.84.17C190,48.54,198.73,51.74,203,55a9.75,9.75,0,0,1,2.22,2.25,4,4,0,0,1,.76,2.25,3.31,3.31,0,0,1-.12.87A7.31,7.31,0,0,1,203,64c-4.29,3.3-13.06,6.5-25.22,9.08l-.84.18c-3.71.77-7.65,1.47-11.79,2.11-1,.16-2,.31-3.07.45q-4.5.64-9.29,1.17l-3.15.34a447.58,447.58,0,0,1-45.24,2.17,447.58,447.58,0,0,1-45.24-2.17L56,77q-4.78-.53-9.29-1.17c-1-.14-2.06-.29-3.07-.45C40.81,75,38,74.48,35.39,74a12.08,12.08,0,0,1-1,2.7c3.24.62,6.64,1.19,10.18,1.71,1,.16,2.07.31,3.12.45,3.09.43,6.27.81,9.54,1.17l3.26.33c13.58,1.33,28.52,2,44,2s30.39-.7,44-2l3.26-.33c3.27-.36,6.45-.74,9.54-1.17,1.05-.14,2.1-.29,3.12-.45,4.67-.68,9.09-1.46,13.23-2.32l.26-.06c9-1.88,19.07-4.69,25.22-8.59a17.59,17.59,0,0,0,3.69-3,7.3,7.3,0,0,0,2.12-4.89C208.83,56.87,207.09,54.53,204.25,52.47ZM31.3,43C17,46,0,51.24,0,59.53c0,4.34,4.69,7.86,11.22,10.66a11.66,11.66,0,0,1,.51-2.85C6,64.82,2.84,62.12,2.84,59.53c0-4.84,10.86-10,29-13.76,3.76-.79,7.77-1.5,12-2.14.27-1,.56-2,.89-3C40,41.33,35.5,42.12,31.3,43Z"/><path class="a" d="M32.93,71a1.62,1.62,0,0,1,0,.22c0,.15,0,.31,0,.45v0l0,.22c0,.22-.05.43-.08.64l0,.28q-.06.32-.15.63l-.1.35c-.07.21-.14.42-.22.62s-.09.23-.15.35a7,7,0,0,1-.52,1l-.2.31a4.59,4.59,0,0,1-.35.51c-.12.17-.25.33-.38.48s0,0,0,0l-.07.09c-.1.12-.21.23-.32.34l-.11.12-.43.4-.31.27-.38.3c-.21.14-.42.29-.64.42a7.16,7.16,0,0,1-.66.36,3.18,3.18,0,0,1-.32.16l-.14.06-.5.2-.05,0-.52.17-.31.09-.11,0-.41.09-.41.07-.08,0-.45,0-.34,0H23l-.51,0-.42,0-.45-.08-.44-.1-.21,0h0l-.73-.23-.43-.17h0l-.4-.18c-.14-.06-.27-.14-.41-.21L18.58,79l-.43-.28a6.34,6.34,0,0,1-.68-.51,7.68,7.68,0,0,1-.67-.61,3.19,3.19,0,0,1-.31-.33,2.29,2.29,0,0,1-.21-.23l0,0c-.12-.14-.22-.27-.33-.42a3.32,3.32,0,0,1-.26-.36l-.27-.42-.21-.37c-.08-.15-.16-.3-.23-.46s-.12-.24-.17-.37-.19-.49-.27-.74-.09-.27-.13-.41l-.06-.25c-.06-.22-.1-.45-.14-.68a1.87,1.87,0,0,1,0-.25c0-.13,0-.26-.05-.39a3,3,0,0,1,0-.42.49.49,0,0,1,0-.12v-.06c0-.12,0-.23,0-.35s0-.23,0-.34,0-.18,0-.26,0-.11,0-.16,0-.35.06-.53h0c0-.08,0-.16,0-.25l.06-.35s0,0,0,0a4.37,4.37,0,0,1,.12-.52.14.14,0,0,1,0-.06,0,0,0,0,1,0,0,3.57,3.57,0,0,1,.12-.4c0-.07.05-.15.08-.23a2.08,2.08,0,0,1,.12-.32c.06-.15.12-.3.19-.44a2.56,2.56,0,0,1,.11-.24,4.23,4.23,0,0,1,.25-.47,8.84,8.84,0,0,1,.68-1c.11-.14.22-.29.34-.43s0,0,0,0l.05,0c.14-.17.29-.32.44-.47s.34-.33.51-.48l.34-.28a4.35,4.35,0,0,1,.43-.32L18.4,63l.26-.16.4-.22.24-.12c.1-.06.2-.1.3-.15s.43-.18.64-.26l.34-.11.42-.13h0l.49-.12.07,0,.61-.1h0a4,4,0,0,1,.5-.05l.19,0h.6A9.45,9.45,0,0,1,32.93,71Z"/></svg>