<svg width="65" height="66" viewBox="0 0 65 66" fill="none" xmlns="http://www.w3.org/2000/svg">
                        <path
                            d="M57.087 21.7116C57.1059 21.7432 57.1251 21.7745 57.144 21.8054C58.6054 24.1912 58.9598 27.1896 58.8777 29.9239C58.8089 32.2358 58.7159 34.5781 58.6759 36.8884C58.6291 39.6179 58.3516 42.5838 56.8853 44.9794C56.8793 44.9887 56.8737 44.9983 56.8684 45.0075C56.8628 45.0171 56.8572 45.0268 56.8516 45.0356C55.5626 47.0685 53.5886 48.1614 51.2073 48.3229C49.3035 48.4524 47.297 48.5177 45.3454 48.5224C42.4578 48.5299 39.5994 47.3325 37.4399 45.4297C37.4062 45.4 37.3721 45.3699 37.3376 45.3402C34.5329 42.8982 29.8277 42.6319 27.0209 45.1948C24.5061 47.4913 24.5958 51.5641 27.3612 53.5728C30.1301 55.5843 34.7872 55.6492 37.6129 53.6733C37.779 53.557 37.9455 53.4298 38.0968 53.2986C40.309 51.3809 43.2864 50.1721 46.2262 50.1695C47.6157 50.1684 49.0404 50.1199 50.3986 50.1107C52.9138 50.0936 55.3698 51.1638 56.9146 53.2808C56.9961 53.3919 57.0848 53.4999 57.1739 53.6042C58.4827 55.1265 61.236 55.7413 62.1338 53.4512C63.2442 50.6194 63.5755 47.6094 61.7666 44.9091C61.6924 44.7979 61.6498 44.6455 61.5884 44.5247C60.2089 41.7979 59.6823 38.7004 59.6865 35.7044C59.6889 34.0795 59.7313 32.4024 59.8034 30.7766C59.9345 27.8079 60.4623 24.7667 61.7192 22.0212C61.787 21.8731 61.8564 21.7138 61.915 21.5501C62.432 20.0933 62.6298 18.561 62.6818 17.0035C62.7267 15.661 62.6119 14.1853 62.1191 12.9342C61.223 10.6588 58.5541 11.4242 57.3028 12.8946C55.2759 15.2762 55.5795 19.1601 57.087 21.7116ZM52.743 58.0776C50.3548 56.1933 46.6178 56.2541 44.0476 57.7473C44.0171 57.765 43.9866 57.7826 43.9565 57.8007C41.5661 59.2225 38.6259 59.4927 35.9189 59.5211C33.6082 59.5454 31.2474 59.6408 28.9492 59.6848C26.2449 59.736 23.3051 59.4377 20.9141 57.988C20.9045 57.9823 20.8953 57.9763 20.886 57.9711C20.8764 57.9655 20.8668 57.9599 20.8575 57.9539C18.8321 56.6626 17.7134 54.6933 17.6394 52.3165C17.5799 50.4211 17.6625 48.4013 17.6347 46.4541C17.594 43.6283 18.6482 40.7572 20.5551 38.6561C20.5836 38.6244 20.6125 38.5923 20.641 38.5606C23.2003 35.7052 22.7911 30.9398 20.2857 28.2114C18.1407 25.8753 14.1171 25.128 12.0642 28.0372C10.0964 30.8252 10.1026 35.4469 12.064 38.25C12.1872 38.4261 12.3216 38.6015 12.46 38.7624C14.4675 41.0948 15.8904 44.202 15.8645 47.3175C15.8529 48.7158 15.8711 50.1501 15.8298 51.5155C15.7553 53.9758 14.6381 56.3618 12.4996 57.7909C12.3877 57.8659 12.2773 57.9498 12.173 58.0316C11.0934 58.8809 10.222 60.6198 11.0518 61.8773C12.1091 63.4794 14.8198 63.9073 16.6153 63.911C17.7548 63.9135 18.9091 63.6026 19.9298 63.1886C20.8081 62.832 21.6695 62.2603 22.5457 61.9144C24.8222 61.0166 27.4543 60.6838 29.9583 60.5928C31.5949 60.5331 33.2724 60.4903 34.9022 60.4912C37.8789 60.4926 40.9443 61.0143 43.6783 62.3257C43.8264 62.3967 43.9989 62.4529 44.1514 62.5307C46.7903 63.8682 50.0888 63.9618 52.7834 62.8177C53.573 62.4823 54.3517 61.7212 54.3408 60.8004C54.3283 59.7472 53.5435 58.7096 52.743 58.0776ZM27.3102 2.21673C30.6436 3.02739 34.3545 3.00875 37.6943 2.22093C38.3222 2.07291 39.7698 1.59874 39.73 1.29902C39.6891 0.994086 38.2483 0.875646 37.6164 0.849532C35.9099 0.780023 34.2015 0.783934 32.4947 0.783039C30.7899 0.78254 29.0843 0.777228 27.3795 0.84735C26.7785 0.87219 25.3011 0.955564 25.2522 1.28778C25.1997 1.64446 26.7187 2.07306 27.3102 2.21673ZM63.4915 38.3716C63.6408 39.0072 64.124 40.4813 64.414 40.44C64.7093 40.3983 64.8256 38.9555 64.8513 38.3183C64.9194 36.6139 64.9177 34.9063 64.9172 33.2007C64.9171 31.4947 64.9206 29.7875 64.8495 28.0818C64.8242 27.4772 64.7434 26.0075 64.408 25.9529C64.0573 25.8959 63.6381 27.3897 63.5006 27.9638C62.6975 31.306 62.7053 35.0217 63.4915 38.3716ZM1.50716 28.0687C1.36349 27.4564 0.94011 25.9225 0.593052 25.959C0.262444 25.9935 0.177467 27.4732 0.153425 28.059C0.0833051 29.7654 0.0882157 31.4722 0.0891126 33.1782C0.0896103 34.8838 0.0860989 36.591 0.156006 38.2954C0.182122 38.9354 0.276891 40.3525 0.60229 40.4228C0.916853 40.491 1.3846 38.968 1.50815 38.4295C2.26949 35.1042 2.28934 31.3993 1.50716 28.0687ZM37.6151 64.2007C34.2688 63.4422 30.5639 63.4259 27.2306 64.2137C26.6729 64.3453 25.2076 64.7794 25.2602 65.1056C25.3148 65.441 26.7893 65.5185 27.4024 65.5442C29.1072 65.6153 30.8128 65.6118 32.5172 65.6119C34.2244 65.6124 35.9336 65.6149 37.6392 65.5464C38.2623 65.5211 39.7063 65.3756 39.7336 65.1092C39.7665 64.7986 38.2707 64.3492 37.6151 64.2007ZM7.79772 44.8716C7.77726 44.8367 7.75639 44.8021 7.73593 44.768C6.1698 42.1949 5.85024 38.9963 5.90826 36.0806C5.94467 34.2354 6.01397 32.3444 6.03152 30.4883C6.05904 27.5678 6.32568 24.3905 7.85661 21.8075C7.86263 21.7975 7.86825 21.7878 7.87426 21.7778C7.89352 21.7449 7.91278 21.7104 7.93203 21.6783C9.2704 19.4668 11.3992 18.2633 13.9571 18.2494C15.2506 18.2422 16.6224 18.3149 17.9444 18.2721C21.1739 18.1675 24.2502 19.5435 26.5369 21.7171C26.575 21.7536 26.6135 21.7921 26.6528 21.829C29.4768 24.4989 34.3662 24.6011 37.23 21.958C39.7584 19.6238 40.2099 15.2689 37.2479 13.0821C34.3818 10.9655 29.5647 11.0968 26.7186 13.1806C26.6792 13.2095 26.6407 13.2384 26.6026 13.2677C24.1841 15.1292 21.1132 16.4579 18.0378 16.4934C16.6745 16.5094 15.2642 16.5458 13.9369 16.4767C11.4714 16.3486 9.21961 15.1552 7.69563 13.0897C7.67598 13.0628 7.65551 13.0359 7.63625 13.0102C7.00227 12.178 5.97227 11.3815 4.90381 11.3827C3.99062 11.3834 3.22512 12.1128 2.8749 12.9301C1.65974 15.7671 1.82402 18.8257 3.19074 21.6167C3.22044 21.6768 3.24292 21.7442 3.2694 21.806C4.53142 24.729 5.07285 27.9176 5.07784 31.0544C5.08033 32.5654 5.05274 34.121 5.00106 35.6324C4.89772 38.6697 4.40117 41.7767 3.19966 44.6185C3.16275 44.706 3.12664 44.7967 3.09174 44.8894C2.1462 47.4046 1.83665 50.9185 2.89121 53.4479C3.80934 55.6507 6.36793 55.1368 7.64334 53.5661C9.56909 51.1934 9.29644 47.3966 7.79772 44.8716ZM12.0443 8.48743C14.3029 10.5222 18.0864 10.3483 20.5964 8.88794C20.6277 8.86948 20.659 8.85103 20.6895 8.83257C23.1112 7.37144 26.0815 7.0735 28.8363 7.02631C31.1437 6.98672 33.4849 6.9054 35.7959 6.8301C38.5183 6.74158 41.5343 7.05591 43.9128 8.51971C43.9221 8.52574 43.9317 8.53135 43.9413 8.53697C43.9509 8.54259 43.961 8.54861 43.9698 8.55422C46.0322 9.87036 47.1449 11.8882 47.1791 14.3024C47.2065 16.2523 47.0847 18.3507 46.9889 20.3364C46.8418 23.3957 45.7242 26.2612 43.6933 28.5521C43.664 28.5854 43.6319 28.6191 43.6014 28.6536C41.0237 31.5563 41.16 36.3843 43.8355 39.1649C46.1944 41.6162 50.3199 41.8876 52.4779 39.037C54.6091 36.2221 54.6365 31.4945 52.6073 28.63C52.4813 28.4519 52.3425 28.2777 52.1988 28.1172C50.0907 25.7676 48.7672 22.5488 48.8517 19.3715C48.8894 17.9504 48.9085 16.4964 48.9811 15.1077C49.1141 12.5583 50.2451 10.1932 52.4377 8.68108C52.552 8.60205 52.6656 8.5174 52.7703 8.43355C54.3446 7.16576 55.0205 4.5165 52.7508 3.5731C51.4215 3.02053 49.9449 2.55262 48.4873 2.59948C46.9422 2.64955 45.4741 3.27819 44.0494 3.83461C43.9134 3.88797 43.7814 3.94212 43.6578 3.99909C40.8886 5.266 37.8116 5.79986 34.8177 5.92167C33.2 5.98738 31.5297 6.0238 29.9131 6.0201C26.9461 6.01311 23.8887 5.49134 21.1892 4.1206C21.0443 4.04717 20.8638 3.995 20.7269 3.90793C18.2673 2.34782 14.8557 2.47402 12.2334 3.57083C9.98375 4.51157 10.5344 7.12679 12.0443 8.48743Z"
                            fill="url(#paint0_linear_1_15920)" />
                        <defs>
                            <linearGradient id="paint0_linear_1_15920" x1="31.6" y1="76.3841" x2="30.1093" y2="4.91221"
                                gradientUnits="userSpaceOnUse">
                                <stop stop-color="#EC1C24" />
                                <stop offset="1" stop-color="#8A0F12" />
                            </linearGradient>
                        </defs>
                    </svg>