<svg id="svg" version="1.1" xmlns="http://www.w3.org/2000/svg" xmlns:xlink="http://www.w3.org/1999/xlink" width="400" height="114.52631578947368" viewBox="0, 0, 400,114.52631578947368"><g id="svgg"><path id="path0" d="M273.750 32.591 C 273.039 32.966,272.333 33.678,272.333 34.021 C 272.333 34.182,272.258 34.360,272.167 34.417 C 271.849 34.613,271.947 74.497,272.267 75.271 C 272.609 76.100,272.936 76.460,273.702 76.851 C 274.452 77.234,297.936 77.347,299.907 76.977 C 304.035 76.202,306.976 74.578,308.745 72.099 C 312.762 66.465,311.023 57.932,305.250 54.946 C 304.792 54.709,304.496 54.512,304.594 54.508 C 305.080 54.486,307.203 53.004,308.113 52.052 C 309.643 50.449,310.245 49.013,310.498 46.358 C 311.183 39.166,308.318 34.875,301.446 32.801 C 299.817 32.309,274.646 32.118,273.750 32.591 M297.833 40.338 C 300.860 40.810,302.411 42.674,302.409 45.833 C 302.407 48.005,301.972 48.983,300.583 49.938 C 298.946 51.065,298.059 51.154,288.458 51.161 L 279.833 51.167 279.833 46.094 C 279.833 43.202,279.903 40.838,279.996 40.594 L 280.158 40.167 288.454 40.168 C 293.230 40.169,297.210 40.241,297.833 40.338 M320.833 45.500 L 320.833 49.000 331.825 49.000 C 339.378 49.000,343.092 49.059,343.697 49.189 C 346.064 49.696,347.161 51.443,347.165 54.708 L 347.167 56.333 337.625 56.337 C 332.377 56.338,327.596 56.411,327.000 56.497 C 325.418 56.726,322.833 57.580,322.833 57.874 C 322.833 57.943,322.747 58.000,322.642 58.000 C 322.537 58.000,322.121 58.270,321.718 58.601 C 317.066 62.412,317.789 72.587,322.924 75.597 C 325.485 77.097,326.182 77.167,338.583 77.165 C 355.403 77.162,354.326 78.205,354.327 61.917 C 354.328 48.587,353.819 46.557,349.833 43.988 C 346.852 42.066,346.273 42.000,332.362 42.000 L 320.833 42.000 320.833 45.500 M358.569 43.042 C 358.789 43.615,359.169 44.608,359.414 45.250 C 359.659 45.892,359.963 46.642,360.088 46.917 C 360.214 47.192,360.623 48.204,360.997 49.167 C 361.371 50.129,361.760 51.104,361.861 51.333 C 362.110 51.898,362.196 52.112,363.095 54.417 C 363.524 55.517,364.004 56.717,364.161 57.083 C 364.319 57.450,364.543 58.012,364.660 58.333 C 364.777 58.654,365.014 59.235,365.186 59.623 C 365.359 60.012,365.500 60.375,365.500 60.431 C 365.500 60.487,365.620 60.807,365.767 61.141 C 366.213 62.159,366.308 62.400,366.429 62.833 C 366.493 63.063,366.716 63.625,366.923 64.083 C 367.131 64.542,367.542 65.554,367.837 66.333 C 368.133 67.112,368.485 68.012,368.621 68.333 C 368.756 68.654,368.927 69.067,369.000 69.250 C 369.073 69.433,369.253 69.857,369.400 70.192 C 369.547 70.527,369.667 70.846,369.667 70.902 C 369.667 71.014,370.212 72.265,370.643 73.141 C 370.983 73.833,372.433 75.333,372.761 75.333 C 372.895 75.333,373.135 75.403,373.294 75.489 C 373.724 75.720,375.064 76.000,375.740 76.000 C 376.446 76.000,376.454 76.059,375.917 77.234 C 375.688 77.735,375.500 78.186,375.500 78.235 C 375.500 78.285,375.275 78.816,375.000 79.417 C 374.725 80.017,374.500 80.539,374.500 80.576 C 374.500 80.613,374.270 81.155,373.989 81.780 C 373.709 82.405,373.416 83.067,373.340 83.250 C 373.264 83.433,373.006 84.003,372.767 84.517 C 372.529 85.030,372.333 85.529,372.333 85.626 C 372.333 85.723,372.187 86.090,372.007 86.443 C 371.526 87.389,370.000 90.987,370.000 91.176 C 370.000 91.472,377.687 91.299,377.852 91.000 C 377.929 90.862,378.375 89.850,378.844 88.750 C 379.314 87.650,379.837 86.450,380.007 86.083 C 380.176 85.717,380.666 84.592,381.095 83.583 C 381.523 82.575,382.015 81.435,382.187 81.051 C 382.359 80.666,382.500 80.312,382.500 80.264 C 382.500 80.216,382.680 79.781,382.900 79.297 C 383.120 78.813,383.503 77.929,383.752 77.333 C 384.001 76.737,384.355 75.912,384.539 75.500 C 384.939 74.600,385.120 74.183,385.916 72.333 C 386.252 71.554,386.625 70.692,386.747 70.417 C 386.869 70.142,387.170 69.429,387.417 68.833 C 387.663 68.237,387.965 67.525,388.086 67.250 C 388.208 66.975,388.582 66.112,388.917 65.333 C 389.252 64.554,389.633 63.673,389.763 63.375 C 390.017 62.794,390.439 61.791,390.657 61.250 C 390.731 61.067,390.946 60.579,391.136 60.167 C 391.798 58.724,392.333 57.489,392.333 57.403 C 392.333 57.354,392.491 56.963,392.684 56.533 C 393.240 55.294,393.440 54.833,394.000 53.500 C 394.289 52.813,394.624 52.025,394.745 51.750 C 394.938 51.310,395.203 50.700,395.865 49.167 C 395.964 48.938,396.105 48.600,396.178 48.417 C 396.251 48.233,396.579 47.504,396.906 46.796 C 397.232 46.089,397.500 45.466,397.500 45.412 C 397.500 45.359,397.641 45.000,397.813 44.616 C 398.550 42.969,398.833 42.282,398.833 42.145 C 398.833 42.065,397.120 42.000,395.026 42.000 L 391.219 42.000 390.869 42.708 C 390.406 43.647,389.667 45.321,389.667 45.431 C 389.667 45.479,389.509 45.870,389.316 46.301 C 389.123 46.731,388.866 47.308,388.745 47.583 C 388.624 47.858,388.332 48.517,388.096 49.047 C 387.860 49.576,387.667 50.056,387.667 50.113 C 387.667 50.170,387.488 50.599,387.270 51.067 C 387.052 51.534,386.758 52.179,386.618 52.500 C 386.477 52.821,386.168 53.510,385.931 54.031 C 385.694 54.552,385.500 55.019,385.500 55.068 C 385.500 55.117,385.321 55.553,385.101 56.037 C 384.882 56.521,384.386 57.667,384.000 58.583 C 383.613 59.500,383.165 60.550,383.003 60.917 C 382.674 61.664,381.596 64.128,381.235 64.958 C 381.106 65.256,380.893 65.744,380.763 66.042 C 380.349 66.986,379.550 68.905,379.445 69.208 C 379.369 69.426,379.159 69.500,378.613 69.500 C 377.355 69.500,376.888 69.241,376.563 68.362 C 376.405 67.934,376.225 67.508,376.162 67.417 C 376.099 67.325,375.839 66.688,375.583 66.000 C 375.328 65.313,375.065 64.675,375.000 64.583 C 374.935 64.492,374.670 63.857,374.413 63.174 C 374.155 62.491,373.845 61.741,373.723 61.507 C 373.602 61.274,373.502 60.989,373.501 60.873 C 373.500 60.757,373.431 60.532,373.347 60.373 C 373.099 59.901,372.671 58.888,372.417 58.167 C 372.286 57.796,372.068 57.251,371.932 56.955 C 371.797 56.659,371.116 54.992,370.420 53.250 C 369.724 51.508,369.050 49.858,368.923 49.583 C 368.796 49.308,368.528 48.646,368.329 48.111 C 368.129 47.576,367.861 46.938,367.734 46.694 C 367.606 46.450,367.502 46.158,367.501 46.046 C 367.500 45.934,367.287 45.371,367.027 44.796 C 366.766 44.221,366.414 43.356,366.244 42.875 L 365.934 42.000 362.052 42.000 L 358.170 42.000 358.569 43.042 M297.536 58.003 C 301.211 58.424,302.923 60.542,302.608 64.274 C 302.401 66.725,301.175 68.173,298.583 69.030 C 297.818 69.283,280.305 69.360,280.056 69.111 C 279.979 69.035,279.895 66.466,279.869 63.403 L 279.821 57.833 287.952 57.835 C 292.424 57.835,296.737 57.911,297.536 58.003 M347.166 65.542 C 347.165 69.030,347.159 69.091,346.765 69.583 L 346.365 70.083 337.474 70.083 C 327.706 70.083,328.111 70.123,326.900 69.058 C 325.372 67.715,325.381 64.447,326.917 63.131 C 328.156 62.068,328.395 62.045,338.458 62.021 L 347.167 62.000 347.166 65.542 " stroke="none" fill="#fcfcfc" fill-rule="evenodd"></path><path id="path1" d="M53.250 0.081 C 53.158 0.120,52.258 0.229,51.250 0.323 C 50.242 0.416,49.267 0.523,49.083 0.560 C 48.900 0.597,48.337 0.683,47.833 0.750 C 47.329 0.817,46.429 0.981,45.833 1.115 C 45.237 1.249,44.375 1.432,43.917 1.522 C 43.098 1.682,41.058 2.251,39.417 2.778 C 36.044 3.858,29.901 6.675,27.974 8.024 C 27.731 8.194,27.450 8.333,27.349 8.333 C 27.249 8.333,27.167 8.403,27.167 8.489 C 27.167 8.574,27.004 8.696,26.804 8.759 C 26.605 8.822,26.362 8.941,26.263 9.022 C 26.164 9.103,25.268 9.739,24.273 10.436 C 22.290 11.823,22.413 11.730,20.750 13.107 C 18.133 15.274,16.305 17.079,13.413 20.347 C 12.515 21.362,10.735 23.719,9.899 25.000 C 9.450 25.688,9.044 26.287,8.996 26.333 C 8.042 27.245,4.877 33.632,3.421 37.583 C 2.496 40.093,2.606 39.752,1.897 42.333 C 1.658 43.203,1.494 43.903,1.173 45.417 C -0.174 51.772,-0.389 60.911,0.676 66.583 C 1.034 68.489,1.693 71.585,1.829 72.000 C 1.904 72.229,2.092 72.867,2.246 73.417 C 2.575 74.589,2.657 74.840,3.256 76.500 C 3.914 78.328,3.837 78.138,5.133 81.083 C 7.101 85.553,9.925 90.025,13.333 94.070 C 14.264 95.175,17.399 98.527,17.695 98.735 C 17.870 98.857,18.484 99.398,19.059 99.937 C 19.634 100.476,20.288 101.068,20.511 101.252 C 21.770 102.293,23.911 103.890,25.000 104.601 C 25.688 105.050,26.287 105.459,26.333 105.512 C 26.724 105.957,31.502 108.519,34.167 109.712 C 36.816 110.898,41.452 112.450,44.000 113.005 C 44.504 113.114,45.217 113.270,45.583 113.350 C 51.494 114.646,60.709 114.820,66.750 113.750 C 68.844 113.379,71.219 112.877,71.833 112.675 C 72.063 112.600,72.587 112.445,73.000 112.331 C 79.027 110.666,85.626 107.460,90.802 103.684 C 94.835 100.742,99.584 96.221,102.000 93.023 C 102.229 92.719,102.494 92.384,102.589 92.277 C 106.228 88.172,110.931 78.636,112.672 71.833 C 112.911 70.900,113.365 68.946,113.428 68.583 C 114.271 63.704,114.483 61.424,114.483 57.250 C 114.483 50.204,112.971 41.866,110.766 36.762 C 110.645 36.480,110.414 35.912,110.253 35.500 C 109.915 34.629,107.158 28.957,107.014 28.833 C 106.960 28.787,106.773 28.488,106.598 28.167 C 105.634 26.401,102.405 21.874,100.844 20.098 C 98.888 17.873,96.923 15.886,95.170 14.358 C 94.576 13.840,93.938 13.281,93.753 13.114 C 93.568 12.948,93.004 12.498,92.500 12.115 C 91.996 11.731,91.546 11.374,91.500 11.320 C 90.981 10.716,84.702 6.854,82.665 5.886 C 81.215 5.198,79.661 4.500,79.577 4.500 C 79.523 4.500,79.090 4.323,78.614 4.107 C 77.684 3.685,74.874 2.712,73.250 2.250 C 72.700 2.094,72.063 1.905,71.833 1.830 C 71.604 1.756,70.817 1.570,70.083 1.418 C 69.350 1.266,68.450 1.076,68.083 0.996 C 66.932 0.745,65.308 0.494,63.667 0.313 C 62.075 0.137,53.561 -0.052,53.250 0.081 M64.750 3.889 C 67.888 4.409,68.936 4.640,72.333 5.566 C 75.574 6.448,80.352 8.482,83.913 10.496 C 85.269 11.262,89.270 13.885,89.500 14.159 C 89.546 14.213,90.108 14.668,90.750 15.169 C 95.804 19.116,100.322 24.388,104.103 30.750 C 105.911 33.793,107.999 38.864,109.316 43.417 C 112.968 56.035,110.972 71.597,104.154 83.667 C 103.105 85.525,99.822 90.418,99.345 90.833 C 99.293 90.879,98.846 91.404,98.352 92.000 C 95.958 94.889,91.135 99.278,88.083 101.346 C 87.350 101.843,86.725 102.306,86.694 102.375 C 86.664 102.444,86.574 102.500,86.494 102.500 C 86.415 102.500,86.028 102.715,85.633 102.977 C 83.430 104.444,80.401 105.934,75.750 107.840 C 74.124 108.506,69.853 109.689,67.583 110.102 C 64.110 110.735,62.476 110.923,59.000 111.092 C 56.738 111.201,51.638 110.956,50.083 110.663 C 49.625 110.577,48.500 110.383,47.583 110.233 C 46.667 110.083,45.542 109.861,45.083 109.741 C 41.561 108.818,39.884 108.302,37.833 107.511 C 35.772 106.716,29.968 103.852,29.667 103.481 C 29.621 103.424,29.415 103.326,29.208 103.261 C 29.002 103.197,28.833 103.074,28.833 102.989 C 28.833 102.903,28.727 102.833,28.597 102.833 C 28.467 102.833,28.336 102.777,28.306 102.708 C 28.275 102.640,27.688 102.212,27.000 101.759 C 25.918 101.045,23.076 98.941,22.833 98.674 C 22.787 98.624,22.450 98.329,22.083 98.019 C 18.884 95.314,15.159 91.135,12.782 87.583 C 12.353 86.942,11.944 86.342,11.875 86.250 C 11.518 85.782,11.114 85.100,10.050 83.167 C 7.993 79.429,6.622 76.098,5.420 71.917 C 5.262 71.367,5.073 70.729,5.000 70.500 C 4.844 70.011,4.427 68.005,4.186 66.583 C 4.092 66.033,3.938 65.133,3.843 64.583 C 3.309 61.506,3.310 52.965,3.845 49.917 C 3.941 49.367,4.132 48.279,4.268 47.500 C 4.840 44.229,5.977 40.316,7.253 37.229 C 8.553 34.085,8.771 33.640,10.877 29.833 C 11.729 28.293,15.083 23.605,16.079 22.563 C 16.265 22.368,16.867 21.698,17.417 21.073 C 18.497 19.845,20.891 17.490,21.833 16.728 C 22.154 16.469,22.529 16.142,22.667 16.002 C 22.804 15.861,23.217 15.526,23.583 15.257 C 23.950 14.988,24.287 14.722,24.333 14.667 C 24.379 14.611,25.054 14.108,25.833 13.548 C 32.121 9.028,39.877 5.666,46.917 4.409 C 47.650 4.278,48.700 4.090,49.250 3.992 C 52.244 3.459,61.768 3.396,64.750 3.889 M52.750 8.350 C 50.989 8.481,49.705 8.660,47.917 9.023 C 46.208 9.370,44.737 9.702,44.333 9.832 C 44.104 9.906,43.467 10.092,42.917 10.246 C 41.872 10.540,40.453 11.042,39.558 11.436 C 39.269 11.563,38.950 11.667,38.848 11.667 C 38.746 11.667,38.532 11.738,38.373 11.825 C 38.214 11.912,37.183 12.407,36.083 12.925 C 33.971 13.918,31.579 15.268,29.917 16.404 C 28.669 17.256,26.499 18.863,26.166 19.179 C 26.029 19.310,25.558 19.705,25.120 20.057 C 22.416 22.230,18.626 26.550,16.220 30.198 C 14.527 32.765,13.356 34.949,11.902 38.250 C 11.027 40.236,9.924 43.626,9.433 45.833 C 9.280 46.521,9.088 47.383,9.007 47.750 C 8.126 51.709,7.894 60.498,8.572 64.250 C 8.606 64.433,8.682 64.883,8.743 65.250 C 8.981 66.687,9.561 69.360,9.864 70.417 C 10.377 72.204,11.314 74.919,11.821 76.083 C 11.901 76.267,12.096 76.717,12.254 77.083 C 13.725 80.485,17.629 86.903,18.995 88.167 C 19.045 88.212,19.497 88.736,20.001 89.329 C 22.139 91.849,25.217 94.702,28.000 96.741 C 28.688 97.245,29.325 97.717,29.417 97.790 C 30.918 98.986,38.557 103.000,39.333 103.000 C 39.427 103.000,39.635 103.069,39.794 103.153 C 40.656 103.610,43.883 104.607,46.000 105.071 C 46.688 105.222,47.550 105.411,47.917 105.491 C 52.400 106.473,60.319 106.596,65.050 105.756 C 67.210 105.373,69.559 104.876,70.167 104.673 C 70.396 104.597,71.033 104.404,71.583 104.244 C 74.666 103.351,79.563 101.194,82.443 99.462 C 83.699 98.706,86.940 96.480,87.436 96.033 C 87.609 95.877,88.050 95.526,88.417 95.252 C 90.064 94.022,93.183 90.904,95.004 88.667 C 95.414 88.162,95.791 87.712,95.842 87.667 C 95.893 87.621,96.155 87.283,96.425 86.917 C 96.694 86.550,96.957 86.212,97.008 86.167 C 97.477 85.749,99.895 81.744,101.093 79.401 C 102.512 76.628,104.500 71.427,104.500 70.491 C 104.500 70.323,104.567 70.145,104.648 70.095 C 104.730 70.044,104.837 69.759,104.886 69.460 C 104.936 69.161,105.057 68.579,105.157 68.167 C 105.355 67.345,105.739 65.120,106.020 63.167 C 106.689 58.519,106.258 50.859,105.058 46.083 C 104.828 45.167,104.568 44.125,104.480 43.768 C 103.625 40.284,99.520 31.214,98.639 30.861 C 98.562 30.831,98.500 30.735,98.500 30.648 C 98.500 30.511,96.093 27.054,95.844 26.833 C 95.792 26.787,95.414 26.337,95.004 25.833 C 93.224 23.647,90.604 21.046,88.356 19.234 C 88.140 19.059,87.877 18.841,87.773 18.748 C 85.742 16.938,80.423 13.751,76.833 12.192 C 69.398 8.965,61.477 7.701,52.750 8.350 M40.833 55.421 L 40.833 90.508 56.958 90.448 C 74.791 90.381,74.427 90.402,77.980 89.219 C 84.315 87.108,87.820 82.933,89.354 75.667 C 89.652 74.256,89.657 67.564,89.361 65.917 C 88.753 62.529,88.291 61.655,85.679 58.948 C 84.343 57.564,84.350 57.583,84.951 57.031 C 87.402 54.774,89.170 49.087,89.164 43.481 C 89.160 40.055,88.730 37.339,87.834 35.083 C 86.057 30.608,82.829 27.414,78.417 25.767 C 74.336 24.243,73.420 24.167,59.208 24.167 L 48.000 24.167 48.000 32.917 L 48.000 41.667 53.917 41.667 L 59.833 41.667 59.833 39.736 L 59.833 37.806 64.542 37.868 C 68.938 37.927,69.302 37.955,70.037 38.291 C 74.142 40.169,74.330 46.086,70.347 48.047 L 69.259 48.582 64.463 48.643 L 59.667 48.704 59.667 47.016 L 59.667 45.329 53.875 45.373 L 48.083 45.417 48.038 48.875 L 47.993 52.333 46.247 52.333 L 44.500 52.333 44.500 36.417 L 44.500 20.500 58.093 20.500 C 71.649 20.500,72.196 20.519,75.500 21.107 C 77.084 21.390,77.520 21.512,79.383 22.198 C 81.543 22.994,82.478 23.500,85.064 25.273 C 87.626 27.029,90.817 31.966,91.673 35.500 C 92.111 37.306,92.184 37.664,92.400 39.083 C 93.193 44.281,92.007 52.927,90.159 55.417 C 89.415 56.420,88.957 57.597,89.208 57.863 C 90.767 59.511,92.260 63.229,92.997 67.303 C 93.789 71.677,92.708 79.202,90.791 82.667 C 89.874 84.323,89.416 85.102,89.258 85.272 C 89.162 85.376,88.821 85.786,88.500 86.183 C 86.098 89.157,82.761 91.365,78.583 92.742 C 77.942 92.954,76.817 93.254,76.083 93.409 C 75.350 93.565,74.450 93.775,74.083 93.877 C 73.619 94.006,67.936 94.081,55.375 94.122 L 37.333 94.182 37.333 81.341 L 37.333 68.500 30.667 68.500 L 24.000 68.500 24.000 67.000 L 24.000 65.500 30.667 65.500 L 37.333 65.500 37.333 62.417 L 37.333 59.333 24.250 59.333 L 11.167 59.333 11.167 57.833 L 11.167 56.333 24.250 56.333 L 37.333 56.333 37.333 53.167 L 37.333 50.000 30.667 50.000 L 24.000 50.000 24.000 48.585 L 24.000 47.170 30.625 47.127 L 37.250 47.083 37.293 33.708 L 37.335 20.333 39.084 20.333 L 40.833 20.333 40.833 55.421 M73.333 27.579 C 74.684 27.801,75.286 27.941,76.425 28.298 C 77.163 28.530,79.087 29.477,79.480 29.803 C 79.666 29.957,80.178 30.380,80.617 30.743 C 81.057 31.105,81.717 31.760,82.083 32.198 C 82.450 32.636,82.840 33.099,82.950 33.227 C 85.465 36.150,86.671 43.718,85.303 48.000 C 83.920 52.328,82.410 54.519,79.292 56.722 C 78.100 57.564,78.082 57.466,79.625 58.556 C 82.184 60.365,85.167 64.221,85.167 65.722 C 85.167 65.838,85.233 66.005,85.313 66.092 C 85.528 66.323,85.959 68.498,86.175 70.435 C 86.372 72.204,86.263 73.547,85.735 75.833 C 85.482 76.932,85.437 77.062,84.899 78.250 C 84.733 78.617,84.612 78.973,84.632 79.042 C 84.651 79.110,84.592 79.167,84.500 79.167 C 84.408 79.167,84.333 79.246,84.333 79.342 C 84.333 79.692,82.931 81.573,81.852 82.668 C 80.318 84.227,78.387 85.476,76.167 86.343 C 73.798 87.269,74.712 87.218,59.042 87.286 L 44.500 87.349 44.500 75.091 L 44.500 62.833 46.250 62.833 L 48.000 62.833 48.000 67.000 L 48.000 71.167 53.917 71.167 L 59.833 71.167 59.833 69.243 L 59.833 67.319 64.542 67.368 C 69.833 67.423,70.276 67.515,71.707 68.866 C 72.915 70.005,73.660 73.167,73.025 74.461 C 72.946 74.620,72.742 75.041,72.570 75.396 C 72.132 76.303,71.308 77.074,70.200 77.611 L 69.250 78.072 64.458 78.136 L 59.667 78.200 59.667 76.515 L 59.667 74.829 53.875 74.873 L 48.083 74.917 48.039 79.292 L 47.994 83.667 59.706 83.664 C 74.603 83.660,74.686 83.649,78.098 81.239 C 81.303 78.974,82.417 76.549,82.417 71.833 C 82.417 65.794,79.817 61.447,75.371 60.051 C 73.087 59.334,73.357 59.345,58.708 59.339 L 44.667 59.333 44.667 57.500 L 44.667 55.667 58.316 55.667 C 74.140 55.667,75.050 55.574,77.342 53.722 C 85.178 47.391,83.143 34.455,73.831 31.403 C 73.000 31.131,71.966 31.098,62.458 31.040 L 52.000 30.976 52.000 29.155 L 52.000 27.333 61.958 27.339 C 69.689 27.344,72.234 27.397,73.333 27.579 M134.197 32.609 C 133.558 32.929,132.962 33.670,132.690 34.483 C 132.415 35.305,132.445 74.368,132.721 75.105 C 133.021 75.906,133.521 76.494,134.202 76.846 C 134.950 77.234,158.416 77.351,160.407 76.977 C 167.806 75.588,171.204 71.804,171.237 64.917 C 171.259 60.084,169.684 57.055,166.177 55.185 C 164.953 54.533,164.930 54.691,166.375 53.842 C 168.363 52.674,169.971 50.792,170.514 49.000 C 172.376 42.853,170.313 36.767,165.500 34.205 C 164.310 33.572,163.773 33.364,161.667 32.723 C 160.259 32.294,135.035 32.190,134.197 32.609 M188.167 32.501 C 183.310 33.330,179.680 36.566,178.593 41.033 C 177.717 44.639,178.427 50.948,179.897 52.612 C 179.999 52.728,180.336 53.182,180.646 53.620 C 181.626 55.010,184.057 56.684,185.962 57.282 C 188.402 58.048,188.275 58.038,196.917 58.162 C 205.596 58.287,205.930 58.316,207.566 59.073 C 211.099 60.707,211.309 66.237,207.918 68.332 C 206.563 69.170,206.695 69.163,192.292 69.165 L 178.833 69.167 178.833 73.167 L 178.833 77.167 192.904 77.167 C 202.367 77.167,207.265 77.107,207.862 76.986 C 209.125 76.728,211.489 75.986,211.596 75.813 C 211.646 75.732,211.832 75.667,212.010 75.667 C 212.188 75.667,212.333 75.610,212.333 75.541 C 212.333 75.471,212.540 75.323,212.792 75.212 C 213.948 74.700,216.500 72.187,216.500 71.561 C 216.500 71.451,216.560 71.336,216.633 71.306 C 217.374 70.996,218.330 66.980,218.332 64.167 C 218.335 59.701,217.374 56.853,215.094 54.573 C 214.388 53.868,212.513 52.500,212.251 52.500 C 212.210 52.500,211.780 52.321,211.296 52.103 C 208.554 50.863,208.098 50.812,198.667 50.674 C 189.536 50.541,189.522 50.539,187.973 49.415 C 185.269 47.453,185.709 42.626,188.750 40.892 L 189.583 40.417 202.292 40.369 L 215.000 40.321 215.000 36.327 L 215.000 32.333 201.958 32.353 C 194.785 32.364,188.579 32.430,188.167 32.501 M241.333 32.441 C 235.864 33.260,232.121 35.269,229.089 39.012 C 223.667 45.706,223.518 62.445,228.814 70.000 C 231.471 73.790,234.799 75.702,240.971 76.983 C 241.564 77.106,245.337 77.167,252.346 77.167 L 262.833 77.167 262.833 73.167 L 262.833 69.167 252.958 69.167 C 245.155 69.167,242.850 69.118,241.972 68.934 C 235.490 67.578,233.077 63.697,233.101 54.667 C 233.113 50.010,233.560 47.716,234.986 45.000 C 235.383 44.244,237.516 42.000,237.838 42.000 C 237.934 42.000,238.211 41.869,238.455 41.710 C 238.699 41.550,239.540 41.197,240.324 40.925 L 241.750 40.431 252.292 40.373 L 262.833 40.315 262.833 36.324 L 262.833 32.333 252.292 32.356 C 246.494 32.369,241.563 32.407,241.333 32.441 M158.428 40.339 C 161.437 40.865,162.912 42.670,162.915 45.833 C 162.917 48.265,161.516 50.500,159.988 50.500 C 159.842 50.500,159.667 50.555,159.600 50.622 C 159.175 51.048,157.217 51.146,148.952 51.156 L 140.320 51.167 140.368 45.827 C 140.409 41.298,140.455 40.464,140.667 40.330 C 141.016 40.109,157.159 40.118,158.428 40.339 M158.049 58.004 C 161.518 58.401,163.167 60.194,163.167 63.567 C 163.167 66.535,162.043 68.038,159.083 69.027 C 158.320 69.282,140.807 69.362,140.556 69.111 C 140.479 69.035,140.395 66.466,140.369 63.403 L 140.321 57.833 148.452 57.835 C 152.924 57.835,157.243 57.912,158.049 58.004 " stroke="none" fill="#fcd464" fill-rule="evenodd"></path><path id="path2" d="" stroke="none" fill="#fce8100" fill-rule="evenodd"></path><path id="path3" d="M56.547 111.123 C 56.985 111.157,57.660 111.157,58.047 111.122 C 58.434 111.087,58.075 111.059,57.250 111.059 C 56.425 111.060,56.109 111.088,56.547 111.123 " stroke="none" fill="#fce88c" fill-rule="evenodd"></path><path id="path4" d="" stroke="none" fill="#fcec64" fill-rule="evenodd"></path></g></svg>