<svg width="74" height="20" viewBox="0 0 74 20" fill="none" xmlns="http://www.w3.org/2000/svg">
<path d="M0.594 9.978C0.594 8.97 0.792 8.076 1.188 7.296C1.596 6.516 2.142 5.916 2.826 5.496C3.522 5.076 4.296 4.866 5.148 4.866C5.892 4.866 6.54 5.016 7.092 5.316C7.656 5.616 8.106 5.994 8.442 6.45V5.028H10.98V15H8.442V13.542C8.118 14.01 7.668 14.4 7.092 14.712C6.528 15.012 5.874 15.162 5.13 15.162C4.29 15.162 3.522 14.946 2.826 14.514C2.142 14.082 1.596 13.476 1.188 12.696C0.792 11.904 0.594 10.998 0.594 9.978ZM8.442 10.014C8.442 9.402 8.322 8.88 8.082 8.448C7.842 8.004 7.518 7.668 7.11 7.44C6.702 7.2 6.264 7.08 5.796 7.08C5.328 7.08 4.896 7.194 4.5 7.422C4.104 7.65 3.78 7.986 3.528 8.43C3.288 8.862 3.168 9.378 3.168 9.978C3.168 10.578 3.288 11.106 3.528 11.562C3.78 12.006 4.104 12.348 4.5 12.588C4.908 12.828 5.34 12.948 5.796 12.948C6.264 12.948 6.702 12.834 7.11 12.606C7.518 12.366 7.842 12.03 8.082 11.598C8.322 11.154 8.442 10.626 8.442 10.014ZM17.3472 4.866C18.0912 4.866 18.7452 5.016 19.3092 5.316C19.8732 5.604 20.3172 5.982 20.6412 6.45V5.028H23.1792V15.072C23.1792 15.996 22.9932 16.818 22.6212 17.538C22.2492 18.27 21.6912 18.846 20.9472 19.266C20.2032 19.698 19.3032 19.914 18.2472 19.914C16.8312 19.914 15.6672 19.584 14.7552 18.924C13.8552 18.264 13.3452 17.364 13.2252 16.224H15.7272C15.8592 16.68 16.1412 17.04 16.5732 17.304C17.0172 17.58 17.5512 17.718 18.1752 17.718C18.9072 17.718 19.5012 17.496 19.9572 17.052C20.4132 16.62 20.6412 15.96 20.6412 15.072V13.524C20.3172 13.992 19.8672 14.382 19.2912 14.694C18.7272 15.006 18.0792 15.162 17.3472 15.162C16.5072 15.162 15.7392 14.946 15.0432 14.514C14.3472 14.082 13.7952 13.476 13.3872 12.696C12.9912 11.904 12.7932 10.998 12.7932 9.978C12.7932 8.97 12.9912 8.076 13.3872 7.296C13.7952 6.516 14.3412 5.916 15.0252 5.496C15.7212 5.076 16.4952 4.866 17.3472 4.866ZM20.6412 10.014C20.6412 9.402 20.5212 8.88 20.2812 8.448C20.0412 8.004 19.7172 7.668 19.3092 7.44C18.9012 7.2 18.4632 7.08 17.9952 7.08C17.5272 7.08 17.0952 7.194 16.6992 7.422C16.3032 7.65 15.9792 7.986 15.7272 8.43C15.4872 8.862 15.3672 9.378 15.3672 9.978C15.3672 10.578 15.4872 11.106 15.7272 11.562C15.9792 12.006 16.3032 12.348 16.6992 12.588C17.1072 12.828 17.5392 12.948 17.9952 12.948C18.4632 12.948 18.9012 12.834 19.3092 12.606C19.7172 12.366 20.0412 12.03 20.2812 11.598C20.5212 11.154 20.6412 10.626 20.6412 10.014ZM29.5464 4.866C30.2904 4.866 30.9444 5.016 31.5084 5.316C32.0724 5.604 32.5164 5.982 32.8404 6.45V5.028H35.3784V15.072C35.3784 15.996 35.1924 16.818 34.8204 17.538C34.4484 18.27 33.8904 18.846 33.1464 19.266C32.4024 19.698 31.5024 19.914 30.4464 19.914C29.0304 19.914 27.8664 19.584 26.9544 18.924C26.0544 18.264 25.5444 17.364 25.4244 16.224H27.9264C28.0584 16.68 28.3404 17.04 28.7724 17.304C29.2164 17.58 29.7504 17.718 30.3744 17.718C31.1064 17.718 31.7004 17.496 32.1564 17.052C32.6124 16.62 32.8404 15.96 32.8404 15.072V13.524C32.5164 13.992 32.0664 14.382 31.4904 14.694C30.9264 15.006 30.2784 15.162 29.5464 15.162C28.7064 15.162 27.9384 14.946 27.2424 14.514C26.5464 14.082 25.9944 13.476 25.5864 12.696C25.1904 11.904 24.9924 10.998 24.9924 9.978C24.9924 8.97 25.1904 8.076 25.5864 7.296C25.9944 6.516 26.5404 5.916 27.2244 5.496C27.9204 5.076 28.6944 4.866 29.5464 4.866ZM32.8404 10.014C32.8404 9.402 32.7204 8.88 32.4804 8.448C32.2404 8.004 31.9164 7.668 31.5084 7.44C31.1004 7.2 30.6624 7.08 30.1944 7.08C29.7264 7.08 29.2944 7.194 28.8984 7.422C28.5024 7.65 28.1784 7.986 27.9264 8.43C27.6864 8.862 27.5664 9.378 27.5664 9.978C27.5664 10.578 27.6864 11.106 27.9264 11.562C28.1784 12.006 28.5024 12.348 28.8984 12.588C29.3064 12.828 29.7384 12.948 30.1944 12.948C30.6624 12.948 31.1004 12.834 31.5084 12.606C31.9164 12.366 32.2404 12.03 32.4804 11.598C32.7204 11.154 32.8404 10.626 32.8404 10.014ZM40.3597 1.68V15H37.8397V1.68H40.3597ZM52.1194 9.798C52.1194 10.158 52.0954 10.482 52.0474 10.77H44.7574C44.8174 11.49 45.0694 12.054 45.5134 12.462C45.9574 12.87 46.5034 13.074 47.1514 13.074C48.0874 13.074 48.7534 12.672 49.1494 11.868H51.8674C51.5794 12.828 51.0274 13.62 50.2114 14.244C49.3954 14.856 48.3934 15.162 47.2054 15.162C46.2454 15.162 45.3814 14.952 44.6134 14.532C43.8574 14.1 43.2634 13.494 42.8314 12.714C42.4114 11.934 42.2014 11.034 42.2014 10.014C42.2014 8.982 42.4114 8.076 42.8314 7.296C43.2514 6.516 43.8394 5.916 44.5954 5.496C45.3514 5.076 46.2214 4.866 47.2054 4.866C48.1534 4.866 48.9994 5.07 49.7434 5.478C50.4994 5.886 51.0814 6.468 51.4894 7.224C51.9094 7.968 52.1194 8.826 52.1194 9.798ZM49.5094 9.078C49.4974 8.43 49.2634 7.914 48.8074 7.53C48.3514 7.134 47.7934 6.936 47.1334 6.936C46.5094 6.936 45.9814 7.128 45.5494 7.512C45.1294 7.884 44.8714 8.406 44.7754 9.078H49.5094ZM59.9126 3.84C59.4686 3.84 59.0966 3.702 58.7966 3.426C58.5086 3.138 58.3646 2.784 58.3646 2.364C58.3646 1.944 58.5086 1.596 58.7966 1.32C59.0966 1.032 59.4686 0.887999 59.9126 0.887999C60.3566 0.887999 60.7226 1.032 61.0106 1.32C61.3106 1.596 61.4606 1.944 61.4606 2.364C61.4606 2.784 61.3106 3.138 61.0106 3.426C60.7226 3.702 60.3566 3.84 59.9126 3.84ZM61.1546 5.028V15H58.6346V5.028H61.1546ZM68.0723 15.162C67.1123 15.162 66.2483 14.952 65.4803 14.532C64.7123 14.1 64.1063 13.494 63.6623 12.714C63.2303 11.934 63.0143 11.034 63.0143 10.014C63.0143 8.994 63.2363 8.094 63.6803 7.314C64.1363 6.534 64.7543 5.934 65.5343 5.514C66.3143 5.082 67.1843 4.866 68.1443 4.866C69.1043 4.866 69.9743 5.082 70.7543 5.514C71.5343 5.934 72.1463 6.534 72.5903 7.314C73.0463 8.094 73.2743 8.994 73.2743 10.014C73.2743 11.034 73.0403 11.934 72.5723 12.714C72.1163 13.494 71.4923 14.1 70.7003 14.532C69.9203 14.952 69.0443 15.162 68.0723 15.162ZM68.0723 12.966C68.5283 12.966 68.9543 12.858 69.3503 12.642C69.7583 12.414 70.0823 12.078 70.3223 11.634C70.5623 11.19 70.6823 10.65 70.6823 10.014C70.6823 9.066 70.4303 8.34 69.9263 7.836C69.4343 7.32 68.8283 7.062 68.1083 7.062C67.3883 7.062 66.7823 7.32 66.2903 7.836C65.8103 8.34 65.5703 9.066 65.5703 10.014C65.5703 10.962 65.8043 11.694 66.2723 12.21C66.7523 12.714 67.3523 12.966 68.0723 12.966Z" fill="#FFBD2E"/>
<path d="M0.594 9.978C0.594 8.97 0.792 8.076 1.188 7.296C1.596 6.516 2.142 5.916 2.826 5.496C3.522 5.076 4.296 4.866 5.148 4.866C5.892 4.866 6.54 5.016 7.092 5.316C7.656 5.616 8.106 5.994 8.442 6.45V5.028H10.98V15H8.442V13.542C8.118 14.01 7.668 14.4 7.092 14.712C6.528 15.012 5.874 15.162 5.13 15.162C4.29 15.162 3.522 14.946 2.826 14.514C2.142 14.082 1.596 13.476 1.188 12.696C0.792 11.904 0.594 10.998 0.594 9.978ZM8.442 10.014C8.442 9.402 8.322 8.88 8.082 8.448C7.842 8.004 7.518 7.668 7.11 7.44C6.702 7.2 6.264 7.08 5.796 7.08C5.328 7.08 4.896 7.194 4.5 7.422C4.104 7.65 3.78 7.986 3.528 8.43C3.288 8.862 3.168 9.378 3.168 9.978C3.168 10.578 3.288 11.106 3.528 11.562C3.78 12.006 4.104 12.348 4.5 12.588C4.908 12.828 5.34 12.948 5.796 12.948C6.264 12.948 6.702 12.834 7.11 12.606C7.518 12.366 7.842 12.03 8.082 11.598C8.322 11.154 8.442 10.626 8.442 10.014ZM17.3472 4.866C18.0912 4.866 18.7452 5.016 19.3092 5.316C19.8732 5.604 20.3172 5.982 20.6412 6.45V5.028H23.1792V15.072C23.1792 15.996 22.9932 16.818 22.6212 17.538C22.2492 18.27 21.6912 18.846 20.9472 19.266C20.2032 19.698 19.3032 19.914 18.2472 19.914C16.8312 19.914 15.6672 19.584 14.7552 18.924C13.8552 18.264 13.3452 17.364 13.2252 16.224H15.7272C15.8592 16.68 16.1412 17.04 16.5732 17.304C17.0172 17.58 17.5512 17.718 18.1752 17.718C18.9072 17.718 19.5012 17.496 19.9572 17.052C20.4132 16.62 20.6412 15.96 20.6412 15.072V13.524C20.3172 13.992 19.8672 14.382 19.2912 14.694C18.7272 15.006 18.0792 15.162 17.3472 15.162C16.5072 15.162 15.7392 14.946 15.0432 14.514C14.3472 14.082 13.7952 13.476 13.3872 12.696C12.9912 11.904 12.7932 10.998 12.7932 9.978C12.7932 8.97 12.9912 8.076 13.3872 7.296C13.7952 6.516 14.3412 5.916 15.0252 5.496C15.7212 5.076 16.4952 4.866 17.3472 4.866ZM20.6412 10.014C20.6412 9.402 20.5212 8.88 20.2812 8.448C20.0412 8.004 19.7172 7.668 19.3092 7.44C18.9012 7.2 18.4632 7.08 17.9952 7.08C17.5272 7.08 17.0952 7.194 16.6992 7.422C16.3032 7.65 15.9792 7.986 15.7272 8.43C15.4872 8.862 15.3672 9.378 15.3672 9.978C15.3672 10.578 15.4872 11.106 15.7272 11.562C15.9792 12.006 16.3032 12.348 16.6992 12.588C17.1072 12.828 17.5392 12.948 17.9952 12.948C18.4632 12.948 18.9012 12.834 19.3092 12.606C19.7172 12.366 20.0412 12.03 20.2812 11.598C20.5212 11.154 20.6412 10.626 20.6412 10.014ZM29.5464 4.866C30.2904 4.866 30.9444 5.016 31.5084 5.316C32.0724 5.604 32.5164 5.982 32.8404 6.45V5.028H35.3784V15.072C35.3784 15.996 35.1924 16.818 34.8204 17.538C34.4484 18.27 33.8904 18.846 33.1464 19.266C32.4024 19.698 31.5024 19.914 30.4464 19.914C29.0304 19.914 27.8664 19.584 26.9544 18.924C26.0544 18.264 25.5444 17.364 25.4244 16.224H27.9264C28.0584 16.68 28.3404 17.04 28.7724 17.304C29.2164 17.58 29.7504 17.718 30.3744 17.718C31.1064 17.718 31.7004 17.496 32.1564 17.052C32.6124 16.62 32.8404 15.96 32.8404 15.072V13.524C32.5164 13.992 32.0664 14.382 31.4904 14.694C30.9264 15.006 30.2784 15.162 29.5464 15.162C28.7064 15.162 27.9384 14.946 27.2424 14.514C26.5464 14.082 25.9944 13.476 25.5864 12.696C25.1904 11.904 24.9924 10.998 24.9924 9.978C24.9924 8.97 25.1904 8.076 25.5864 7.296C25.9944 6.516 26.5404 5.916 27.2244 5.496C27.9204 5.076 28.6944 4.866 29.5464 4.866ZM32.8404 10.014C32.8404 9.402 32.7204 8.88 32.4804 8.448C32.2404 8.004 31.9164 7.668 31.5084 7.44C31.1004 7.2 30.6624 7.08 30.1944 7.08C29.7264 7.08 29.2944 7.194 28.8984 7.422C28.5024 7.65 28.1784 7.986 27.9264 8.43C27.6864 8.862 27.5664 9.378 27.5664 9.978C27.5664 10.578 27.6864 11.106 27.9264 11.562C28.1784 12.006 28.5024 12.348 28.8984 12.588C29.3064 12.828 29.7384 12.948 30.1944 12.948C30.6624 12.948 31.1004 12.834 31.5084 12.606C31.9164 12.366 32.2404 12.03 32.4804 11.598C32.7204 11.154 32.8404 10.626 32.8404 10.014ZM40.3597 1.68V15H37.8397V1.68H40.3597ZM52.1194 9.798C52.1194 10.158 52.0954 10.482 52.0474 10.77H44.7574C44.8174 11.49 45.0694 12.054 45.5134 12.462C45.9574 12.87 46.5034 13.074 47.1514 13.074C48.0874 13.074 48.7534 12.672 49.1494 11.868H51.8674C51.5794 12.828 51.0274 13.62 50.2114 14.244C49.3954 14.856 48.3934 15.162 47.2054 15.162C46.2454 15.162 45.3814 14.952 44.6134 14.532C43.8574 14.1 43.2634 13.494 42.8314 12.714C42.4114 11.934 42.2014 11.034 42.2014 10.014C42.2014 8.982 42.4114 8.076 42.8314 7.296C43.2514 6.516 43.8394 5.916 44.5954 5.496C45.3514 5.076 46.2214 4.866 47.2054 4.866C48.1534 4.866 48.9994 5.07 49.7434 5.478C50.4994 5.886 51.0814 6.468 51.4894 7.224C51.9094 7.968 52.1194 8.826 52.1194 9.798ZM49.5094 9.078C49.4974 8.43 49.2634 7.914 48.8074 7.53C48.3514 7.134 47.7934 6.936 47.1334 6.936C46.5094 6.936 45.9814 7.128 45.5494 7.512C45.1294 7.884 44.8714 8.406 44.7754 9.078H49.5094ZM59.9126 3.84C59.4686 3.84 59.0966 3.702 58.7966 3.426C58.5086 3.138 58.3646 2.784 58.3646 2.364C58.3646 1.944 58.5086 1.596 58.7966 1.32C59.0966 1.032 59.4686 0.887999 59.9126 0.887999C60.3566 0.887999 60.7226 1.032 61.0106 1.32C61.3106 1.596 61.4606 1.944 61.4606 2.364C61.4606 2.784 61.3106 3.138 61.0106 3.426C60.7226 3.702 60.3566 3.84 59.9126 3.84ZM61.1546 5.028V15H58.6346V5.028H61.1546ZM68.0723 15.162C67.1123 15.162 66.2483 14.952 65.4803 14.532C64.7123 14.1 64.1063 13.494 63.6623 12.714C63.2303 11.934 63.0143 11.034 63.0143 10.014C63.0143 8.994 63.2363 8.094 63.6803 7.314C64.1363 6.534 64.7543 5.934 65.5343 5.514C66.3143 5.082 67.1843 4.866 68.1443 4.866C69.1043 4.866 69.9743 5.082 70.7543 5.514C71.5343 5.934 72.1463 6.534 72.5903 7.314C73.0463 8.094 73.2743 8.994 73.2743 10.014C73.2743 11.034 73.0403 11.934 72.5723 12.714C72.1163 13.494 71.4923 14.1 70.7003 14.532C69.9203 14.952 69.0443 15.162 68.0723 15.162ZM68.0723 12.966C68.5283 12.966 68.9543 12.858 69.3503 12.642C69.7583 12.414 70.0823 12.078 70.3223 11.634C70.5623 11.19 70.6823 10.65 70.6823 10.014C70.6823 9.066 70.4303 8.34 69.9263 7.836C69.4343 7.32 68.8283 7.062 68.1083 7.062C67.3883 7.062 66.7823 7.32 66.2903 7.836C65.8103 8.34 65.5703 9.066 65.5703 10.014C65.5703 10.962 65.8043 11.694 66.2723 12.21C66.7523 12.714 67.3523 12.966 68.0723 12.966Z" fill="#F4F4F4"/>
<path d="M55.0748 15.126C54.6188 15.126 54.2408 14.988 53.9408 14.712C53.6528 14.424 53.5088 14.07 53.5088 13.65C53.5088 13.23 53.6528 12.882 53.9408 12.606C54.2408 12.318 54.6188 12.174 55.0748 12.174C55.5188 12.174 55.8848 12.318 56.1728 12.606C56.4608 12.882 56.6048 13.23 56.6048 13.65C56.6048 14.07 56.4608 14.424 56.1728 14.712C55.8848 14.988 55.5188 15.126 55.0748 15.126Z" fill="#FFBD2E"/>
</svg>
