<?xml version="1.0" encoding="utf-8"?>
<!-- Generator: Adobe Illustrator 26.2.1, SVG Export Plug-In . SVG Version: 6.00 Build 0)  -->
<svg version="1.1" id="Layer_1" xmlns="http://www.w3.org/2000/svg" xmlns:xlink="http://www.w3.org/1999/xlink" x="0px" y="0px"
	 viewBox="0 0 523 148.2" style="enable-background:new 0 0 523 148.2;" xml:space="preserve">
<style type="text/css">
	.st0{fill:#FFFFFF;}
</style>
<g>
	<path class="st0" d="M62.5,45.9c3.4,0,6.2-2.8,6.2-6.2c0-3.4-2.8-6.2-6.2-6.2c-3.4,0-6.2,2.8-6.2,6.2
		C56.3,43.1,59.1,45.9,62.5,45.9z"/>
	<path class="st0" d="M52.8,50.9C52.8,50.9,52.7,50.9,52.8,50.9l-16.4,0.2c-3,0-5.4-2.4-5.4-5.4c0-3,2.4-5.4,5.4-5.4h7.9
		c0.1,0,0.2,0,0.2,0c3.4,0,6.2-2.8,6.2-6.2c0-3.4-2.8-6.2-6.2-6.2v0h-8.2c-9.8,0-17.8,8-17.8,17.8s8,17.8,17.8,17.8c0,0,0.1,0,0.1,0
		l16.3-0.2c2.8,0,5.2,2.3,5.2,5.2c0,2.9-2.3,5.2-5.2,5.2h-8.2c-3.4,0-6.2,2.8-6.2,6.2c0,3.4,2.8,6.2,6.2,6.2h8.2
		c9.7,0,17.6-7.9,17.6-17.6C70.4,58.8,62.5,50.9,52.8,50.9z"/>
	<path class="st0" d="M26.3,80.5c3.4,0,6.2-2.8,6.2-6.2s-2.8-6.2-6.2-6.2c-3.4,0-6.2,2.8-6.2,6.2S22.9,80.5,26.3,80.5z"/>
</g>
<path class="st0" d="M223.5,26.4h-29c-3.4,0-6.2,2.8-6.2,6.2s2.8,6.2,6.2,6.2h8.3v39.4c0,3.4,2.8,6.2,6.2,6.2s6.2-2.8,6.2-6.2V38.9
	h8.3c3.4,0,6.2-2.8,6.2-6.2S227,26.4,223.5,26.4z"/>
<path class="st0" d="M423.4,26.4h-29c-3.4,0-6.2,2.8-6.2,6.2s2.8,6.2,6.2,6.2h8.3v39.4c0,3.4,2.8,6.2,6.2,6.2c3.4,0,6.2-2.8,6.2-6.2
	V38.9h8.3c3.4,0,6.2-2.8,6.2-6.2S426.9,26.4,423.4,26.4z"/>
<g>
	<path class="st0" d="M362.2,26.4c-11.4,0-20.7,9.3-20.7,20.7v31.1c0,3.4,2.8,6.2,6.2,6.2s6.2-2.8,6.2-6.2V47.2
		c0-4.6,3.7-8.3,8.3-8.3c4.6,0,8.3,3.7,8.3,8.3v31.1c0,3.4,2.8,6.2,6.2,6.2c3.4,0,6.2-2.8,6.2-6.2V47.2
		C382.9,35.7,373.6,26.4,362.2,26.4z"/>
	<path class="st0" d="M362.2,63.8c-3.4,0-6.2,2.8-6.2,6.2c0,3.4,2.8,6.2,6.2,6.2c3.4,0,6.2-2.8,6.2-6.2
		C368.4,66.6,365.6,63.8,362.2,63.8z"/>
</g>
<path class="st0" d="M323.2,62.2c-2.9-1.8-6.8-0.9-8.6,2c-3.1,4.9-8.3,7.9-14.1,7.9c-9.1,0-16.6-7.4-16.6-16.6s7.4-16.6,16.6-16.6
	c5.8,0,11.1,2.9,14.1,7.9c1.8,2.9,5.6,3.8,8.6,2c2.9-1.8,3.8-5.6,2-8.6c-5.3-8.6-14.6-13.8-24.7-13.8c-16,0-29,13-29,29
	c0,16,13,29,29,29c10.1,0,19.4-5.2,24.7-13.8C327,67.8,326.1,64,323.2,62.2z"/>
<path class="st0" d="M157.2,86c-16,0-29-13-29-29c0-16,13-29,29-29c16,0,29,13,29,29C186.3,73,173.2,86,157.2,86z M157.2,40.4
	c-9.1,0-16.6,7.4-16.6,16.6s7.4,16.6,16.6,16.6s16.6-7.4,16.6-16.6S166.4,40.4,157.2,40.4z"/>
<path class="st0" d="M122.2,67.3c0-3.4-2.8-6.2-6.2-6.2s-6.2,2.8-6.2,6.2v6.2H93.2V34.2c0-3.4-2.8-6.2-6.2-6.2
	c-3.4,0-6.2,2.8-6.2,6.2v45.6c0,3.4,2.8,6.2,6.2,6.2h29c3.4,0,6.2-2.8,6.2-6.2c0,0,0,0,0,0c0,0,0,0,0,0V67.3z"/>
<g>
	<path class="st0" d="M445.7,80.4c-13.4-7.6-18.1-24.8-10.5-38.2c7.6-13.4,24.8-18.1,38.2-10.5c8.5,4.8,13.8,13.6,14.2,23.4
		c0.1,1.6-0.5,3.2-1.7,4.4c-1.1,1.2-2.7,1.8-4.3,1.8l-23.4,0c-3.3,0-6-2.7-6-6c0-3.3,2.7-6,6-6l15.9,0c-1.4-3-3.7-5.4-6.6-7.1
		c-7.7-4.4-17.5-1.7-21.8,6c-4.4,7.7-1.7,17.5,6,21.8c4.9,2.8,10.7,2.8,15.6,0.1c2.9-1.6,6.6-0.5,8.1,2.4c1.6,2.9,0.5,6.6-2.4,8.1
		C464.4,85.4,454.2,85.3,445.7,80.4z"/>
</g>
<path class="st0" d="M250.3,46.5c1.8,0,3.4,0.6,4.8,1.7c1.3,1.2,2,2.5,2,4.1v27.4c0,1.6-0.7,3-2,4.1c-1.3,1.1-2.9,1.7-4.8,1.7
	c-2,0-3.6-0.6-5-1.7c-1.3-1.1-2-2.5-2-4.1V52.3c0-1.6,0.7-2.9,2-4.1C246.7,47,248.4,46.5,250.3,46.5z"/>
<path class="st0" d="M250.4,40.2c3.8,0,6.9-3.1,6.9-6.9s-3.1-6.9-6.9-6.9c-3.8,0-6.9,3.1-6.9,6.9S246.5,40.2,250.4,40.2z"/>
<g>
	<path class="st0" d="M490.8,25.3h-3.1v-1.8h8.5v1.8H493v8h-2.3V25.3z"/>
	<path class="st0" d="M506.3,33.3l0-5.9l-2.9,4.8h-1l-2.9-4.7v5.8h-2.1v-9.8h1.9l3.7,6.1l3.6-6.1h1.9l0,9.8H506.3z"/>
</g>
<g>
	<path class="st0" d="M41.3,116.4c0,5.1-3.9,8.3-10,8.3h-4.6v6.4h-5.3V108h10C37.5,108,41.3,111.2,41.3,116.4z M35.9,116.4
		c0-2.5-1.6-4-4.9-4h-4.4v8H31C34.3,120.3,35.9,118.9,35.9,116.4z"/>
	<path class="st0" d="M45.1,106.6h5.1v24.5h-5.1V106.6z"/>
	<path class="st0" d="M70.7,120.9v10.1h-4.8v-2.2c-1,1.6-2.8,2.5-5.4,2.5c-4.2,0-6.6-2.3-6.6-5.4c0-3.1,2.2-5.3,7.6-5.3h4.1
		c0-2.2-1.3-3.5-4.1-3.5c-1.9,0-3.8,0.6-5.1,1.6l-1.8-3.6c1.9-1.4,4.8-2.1,7.7-2.1C67.6,113.1,70.7,115.6,70.7,120.9z M65.6,125.5
		v-1.8H62c-2.4,0-3.2,0.9-3.2,2.1c0,1.3,1.1,2.1,2.9,2.1C63.5,127.9,65,127.1,65.6,125.5z"/>
	<path class="st0" d="M92.6,113.3l-8,18.8c-1.7,4.3-4.2,5.6-7.4,5.6c-1.8,0-3.8-0.6-4.9-1.6l1.9-3.7c0.8,0.7,1.9,1.1,2.9,1.1
		c1.4,0,2.2-0.6,2.9-2.2l0.1-0.2l-7.7-17.9h5.3l5,12l5-12H92.6z"/>
	<path class="st0" d="M109.2,110.1h-8.1V108h18.7v2.1h-8.1v21h-2.4V110.1z"/>
	<path class="st0" d="M119.6,122.4c0-5.1,3.8-8.8,8.8-8.8s8.8,3.7,8.8,8.8s-3.7,8.8-8.8,8.8S119.6,127.5,119.6,122.4z M134.9,122.4
		c0-4.1-2.7-6.8-6.4-6.8c-3.7,0-6.5,2.7-6.5,6.8c0,4.1,2.8,6.8,6.5,6.8C132.2,129.1,134.9,126.4,134.9,122.4z"/>
	<path class="st0" d="M158.1,113.7v15.2c0,6-2.9,8.7-8.7,8.7c-3.2,0-6.3-1-8.1-2.7l1.2-1.8c1.6,1.5,4.2,2.4,6.8,2.4
		c4.4,0,6.4-2,6.4-6.3V127c-1.5,2.2-3.9,3.4-6.8,3.4c-4.9,0-8.7-3.5-8.7-8.4c0-5,3.8-8.4,8.7-8.4c2.9,0,5.4,1.2,6.9,3.5v-3.3H158.1z
		 M155.8,122c0-3.8-2.8-6.3-6.6-6.3c-3.8,0-6.6,2.6-6.6,6.3c0,3.8,2.7,6.4,6.6,6.4C153.1,128.3,155.8,125.7,155.8,122z"/>
	<path class="st0" d="M179.8,123.1h-14.5c0.3,3.6,3,6,6.8,6c2.1,0,4-0.8,5.3-2.3l1.3,1.5c-1.5,1.8-4,2.8-6.7,2.8
		c-5.4,0-9.1-3.7-9.1-8.8s3.6-8.8,8.5-8.8s8.4,3.6,8.4,8.8C179.8,122.6,179.8,122.8,179.8,123.1z M165.3,121.4h12.3
		c-0.3-3.4-2.8-5.8-6.2-5.8C168,115.6,165.6,118,165.3,121.4z"/>
	<path class="st0" d="M193.7,130c-0.9,0.8-2.3,1.2-3.7,1.2c-3.3,0-5.1-1.8-5.1-5v-10.5h-3.1v-2h3.1v-3.8h2.3v3.8h5.3v2h-5.3V126
		c0,2,1.1,3.2,3,3.2c1,0,1.9-0.3,2.6-0.9L193.7,130z"/>
	<path class="st0" d="M213.9,121v10.1h-2.3v-9.8c0-3.7-1.9-5.5-5.2-5.5c-3.7,0-6.1,2.3-6.1,6.3v9.1H198v-24.5h2.3v10.2
		c1.3-2,3.6-3.2,6.5-3.2C211,113.6,213.9,116,213.9,121z"/>
	<path class="st0" d="M235.4,123.1h-14.5c0.3,3.6,3,6,6.8,6c2.1,0,4-0.8,5.3-2.3l1.3,1.5c-1.5,1.8-4,2.8-6.7,2.8
		c-5.4,0-9.1-3.7-9.1-8.8s3.6-8.8,8.5-8.8s8.4,3.6,8.4,8.8C235.5,122.6,235.4,122.8,235.4,123.1z M220.9,121.4h12.3
		c-0.3-3.4-2.8-5.8-6.2-5.8C223.7,115.6,221.2,118,220.9,121.4z"/>
	<path class="st0" d="M249,113.6v2.3c-0.2,0-0.4,0-0.6,0c-3.6,0-5.8,2.3-5.8,6.4v8.8h-2.3v-17.3h2.2v3.4
		C243.6,114.8,245.8,113.6,249,113.6z"/>
	<path class="st0" d="M296.5,108l-7.6,23.1h-5.7l-5.1-15.6l-5.2,15.6h-5.7l-7.6-23.1h5.5l5.2,16.2l5.4-16.2h4.9l5.3,16.4l5.4-16.4
		H296.5z"/>
	<path class="st0" d="M298.8,108c0-1.6,1.3-2.9,3.2-2.9s3.2,1.2,3.2,2.8c0,1.7-1.3,3-3.2,3S298.8,109.6,298.8,108z M299.4,113.3h5.1
		v17.7h-5.1V113.3z"/>
	<path class="st0" d="M327.5,120.9v10.2h-5.1v-9.4c0-2.9-1.3-4.2-3.6-4.2c-2.5,0-4.3,1.5-4.3,4.8v8.8h-5.1v-17.7h4.9v2.1
		c1.4-1.5,3.5-2.3,5.9-2.3C324.3,113.1,327.5,115.5,327.5,120.9z"/>
	<path class="st0" d="M346.6,110.1h-8.1V108h18.7v2.1H349v21h-2.4V110.1z"/>
	<path class="st0" d="M357,122.4c0-5.1,3.8-8.8,8.8-8.8s8.8,3.7,8.8,8.8s-3.7,8.8-8.8,8.8S357,127.5,357,122.4z M372.3,122.4
		c0-4.1-2.7-6.8-6.4-6.8c-3.7,0-6.5,2.7-6.5,6.8c0,4.1,2.8,6.8,6.5,6.8C369.5,129.1,372.3,126.4,372.3,122.4z"/>
	<path class="st0" d="M395.5,113.7v15.2c0,6-2.9,8.7-8.7,8.7c-3.2,0-6.3-1-8.1-2.7l1.2-1.8c1.6,1.5,4.2,2.4,6.8,2.4
		c4.4,0,6.4-2,6.4-6.3V127c-1.5,2.2-3.9,3.4-6.8,3.4c-4.9,0-8.7-3.5-8.7-8.4c0-5,3.8-8.4,8.7-8.4c2.9,0,5.4,1.2,6.9,3.5v-3.3H395.5z
		 M393.2,122c0-3.8-2.8-6.3-6.6-6.3s-6.6,2.6-6.6,6.3c0,3.8,2.7,6.4,6.6,6.4S393.2,125.7,393.2,122z"/>
	<path class="st0" d="M417.1,123.1h-14.5c0.3,3.6,3,6,6.8,6c2.1,0,4-0.8,5.3-2.3l1.3,1.5c-1.5,1.8-4,2.8-6.7,2.8
		c-5.4,0-9.1-3.7-9.1-8.8s3.6-8.8,8.5-8.8s8.4,3.6,8.4,8.8C417.2,122.6,417.1,122.8,417.1,123.1z M402.6,121.4h12.3
		c-0.3-3.4-2.8-5.8-6.2-5.8C405.4,115.6,402.9,118,402.6,121.4z"/>
	<path class="st0" d="M431.1,130c-0.9,0.8-2.3,1.2-3.7,1.2c-3.3,0-5.1-1.8-5.1-5v-10.5h-3.1v-2h3.1v-3.8h2.3v3.8h5.3v2h-5.3V126
		c0,2,1.1,3.2,3,3.2c1,0,1.9-0.3,2.6-0.9L431.1,130z"/>
	<path class="st0" d="M451.3,121v10.1h-2.3v-9.8c0-3.7-1.9-5.5-5.2-5.5c-3.7,0-6.1,2.3-6.1,6.3v9.1h-2.3v-24.5h2.3v10.2
		c1.3-2,3.6-3.2,6.5-3.2C448.4,113.6,451.3,116,451.3,121z"/>
	<path class="st0" d="M472.8,123.1h-14.5c0.3,3.6,3,6,6.8,6c2.1,0,4-0.8,5.3-2.3l1.3,1.5c-1.5,1.8-4,2.8-6.7,2.8
		c-5.4,0-9.1-3.7-9.1-8.8s3.6-8.8,8.5-8.8s8.4,3.6,8.4,8.8C472.8,122.6,472.8,122.8,472.8,123.1z M458.3,121.4h12.3
		c-0.3-3.4-2.8-5.8-6.2-5.8C461.1,115.6,458.6,118,458.3,121.4z"/>
	<path class="st0" d="M486.4,113.6v2.3c-0.2,0-0.4,0-0.6,0c-3.6,0-5.8,2.3-5.8,6.4v8.8h-2.3v-17.3h2.2v3.4
		C480.9,114.8,483.2,113.6,486.4,113.6z"/>
</g>
</svg>
