<svg height="133" viewBox="0 0 524 133" width="524" xmlns="http://www.w3.org/2000/svg" xmlns:xlink="http://www.w3.org/1999/xlink"><mask id="a" fill="#fff"><path d="m0 0h124v124h-124z" fill="#fff" fill-rule="evenodd"/></mask><mask id="b" fill="#fff"><path d="m0 0h65v124h-65z" fill="#fff" fill-rule="evenodd"/></mask><g fill="none" fill-rule="evenodd"><g fill="#f2f2f2"><path d="m165.307907 32c1.278421 0 2.105031.5195797 2.631656 1.7087433l10.225172 24.7369213c.301452.6688592.90289.5195797.90289-.2231946v-23.994147c0-1.4855487.82661-2.228323 2.255391-2.228323h8.42086c1.504327 0 2.256124.7427743 2.256124 2.228323v47.543354c0 1.4109089-.751797 2.228323-2.256124 2.228323h-11.052516c-1.278422 0-2.105032-.5203044-2.630923-1.7087433l-10.226639-24.7369213c-.300719-.6688592-.901423-.5203044-.901423.22247v23.9948716c0 1.4109089-.751797 2.228323-2.256124 2.228323h-8.421594c-1.428047 0-2.254657-.8174141-2.254657-2.228323v-47.543354c0-1.4855487.82661-2.228323 2.254657-2.228323z"/><path d="m223.363341 49.192014c0-3.5434623-.513866-5.3148334-5.362983-5.3148334s-5.363699 1.7713711-5.363699 5.3148334v8.0460573c0 1.4026955.808425 2.214934 2.204535 2.214934h6.318329c1.469212-.0741672 2.203818-.8122385 2.203818-2.2883811zm12.636659 31.2978235c0 1.6244769-.734606 2.5101625-2.203818 2.5101625h-8.229022c-1.395394 0-2.203819-.7380713-2.203819-2.2142139v-6.4223004c0-1.4768627-.734606-2.214934-2.203818-2.214934h-6.318329c-1.39611 0-2.204535.7380713-2.204535 2.214934v6.4223004c0 1.4761426-.734606 2.2142139-2.203819 2.2142139h-8.229022c-1.395393 0-2.203818-.8856856-2.203818-2.5101625v-31.2978235c0-9.3011385 1.469212-19.192014 18.000358-19.192014 16.53043 0 17.999642 9.8908755 17.999642 19.192014z"/><path d="m283.498246 81.3252878c1.058547 1.4862733.377684 2.6747122-1.43623 2.6747122h-11.343045c-1.210505 0-2.041852-.4456646-2.722715-1.4855486l-9.376435-14.1141615c-.302442-.4456646-.756105-.4456646-1.059285 0l-3.100398 4.1595362c-.226462.2971097-.302441.5942194-.302441.9652443v8.2466066c0 1.4109089-.756105 2.228323-2.268314 2.228323h-8.621069c-1.43623 0-2.268314-.8174141-2.268314-2.228323v-47.543354c0-1.4855487.832084-2.228323 2.268314-2.228323h8.621069c1.512209 0 2.268314.7427743 2.268314 2.228323v14.9308509c0 .743499.529642.8920538.907325.2971097l11.872688-16.0446501c.680863-.9659689 1.512209-1.4116335 2.721976-1.4116335h11.191825c1.89063 0 2.495514 1.1884389 1.436968 2.7479027l-15.275528 20.6520248c-.226462.3710249-.302442.6681346 0 1.0398841z"/><path d="m314.363341 49.192014c0-3.5434623-.513866-5.3148334-5.362983-5.3148334s-5.363699 1.7713711-5.363699 5.3148334v8.0460573c0 1.4026955.808425 2.214934 2.204535 2.214934h6.318329c1.469212-.0741672 2.203818-.8122385 2.203818-2.2883811zm12.636659 31.2978235c0 1.6244769-.734606 2.5101625-2.203818 2.5101625h-8.229022c-1.395394 0-2.203819-.7380713-2.203819-2.2142139v-6.4223004c0-1.4768627-.734606-2.214934-2.203818-2.214934h-6.318329c-1.39611 0-2.204535.7380713-2.204535 2.214934v6.4223004c0 1.4761426-.734606 2.2142139-2.203819 2.2142139h-8.229022c-1.395393 0-2.203818-.8856856-2.203818-2.5101625v-31.2978235c0-9.3011385 1.469212-19.192014 18.000358-19.192014 16.53043 0 17.999642 9.8908755 17.999642 19.192014z"/><path d="m352.466344 32c1.327141 0 2.064041.7427743 2.358802 2.005853l5.233073 21.6165445c.14738.7427743.736901.7427743.884281 0l5.231636-21.6165445c.29476-1.2630787 1.032379-2.005853 2.358801-2.005853h15.256361c1.473801 0 2.210702.7427743 2.210702 2.228323v47.543354c0 1.4109089-.736901 2.228323-2.210702 2.228323h-8.254726c-1.400471 0-2.211421-.8174141-2.211421-2.228323v-29.268207c0-.5203044-.662851-.5949441-.810231-.0746398l-7.149016 29.6399566c-.29476 1.262354-1.10571 1.9312132-2.431413 1.9312132h-4.864263c-1.327141 0-2.137372-.6688592-2.432132-1.9312132l-7.149016-29.6399566c-.14738-.5203043-.81095-.4456646-.81095.0746398v29.268207c0 1.4109089-.736901 2.228323-2.210702 2.228323h-8.254007c-1.47452 0-2.211421-.8174141-2.211421-2.228323v-47.543354c0-1.4855487.736901-2.228323 2.211421-2.228323z"/><path d="m453.034637 47.0054907c0-1.4855487-.751659-2.228323-2.254976-2.228323h-10.523952c-1.428518 0-2.255709-.8174141-2.255709-2.228323v-8.3197971c0-1.4862733.827191-2.2290476 2.255709-2.2290476h38.489315c1.503317 0 2.254976.7427743 2.254976 2.2290476v8.3197971c0 1.4109089-.751659 2.228323-2.254976 2.228323h-10.525419c-1.427784 0-2.254975.7427743-2.254975 2.228323v34.766911c0 1.4101842-.751659 2.2275983-2.254242 2.2275983h-8.420042c-1.428518 0-2.255709-.8174141-2.255709-2.2275983z"/><path d="m510.323222 53.1198425c0-5.7544831-.36885-9.2666569-5.823222-9.2666569s-5.823222 3.5121738-5.823222 9.2666569v10.7610439c0 5.7537542.36885 9.265928 5.823222 9.265928s5.823222-3.5121738 5.823222-9.265928zm12.676778 14.7208048c0 4.9322059-1.031772 18.1593527-18.5 18.1593527s-18.5-13.2271468-18.5-18.1593527v-18.6820236c0-4.9322059 1.031772-18.1586237 18.5-18.1586237s18.5 13.2264178 18.5 18.1586237z"/><path d="m418.323222 53.1198425c0-5.7544831-.36885-9.2666569-5.823222-9.2666569s-5.823222 3.5121738-5.823222 9.2666569v10.7610439c0 5.7537542.36885 9.265928 5.823222 9.265928s5.823222-3.5121738 5.823222-9.265928zm12.676778 14.7208048c0 4.9322059-1.031053 18.1593527-18.5 18.1593527-17.468228 0-18.5-13.2271468-18.5-18.1593527v-18.6820236c0-4.9322059 1.031772-18.1586237 18.5-18.1586237 17.468947 0 18.5 13.2264178 18.5 18.1586237z"/></g><path d="m500.744092 133h-104.478849c-1.250694 0-2.265243-1.010374-2.265243-2.256648v-36.4867043c0-1.2462734 1.014549-2.2566477 2.265243-2.2566477h125.468786c1.251422 0 2.265971 1.0103743 2.265971 2.2566477v15.5831353c0 12.790816-10.412245 23.160217-23.255908 23.160217" fill="#c10606"/><path d="m416 108.263503c0-1.972462.418141-7.263503 7.500354-7.263503 6.27494 0 7.320645 4.12469 7.46993 6.456683.029716.53788-.238432.86627-.77685.985878l-3.376256.748078c-.597849.119607-.926135-.150041-.986274-.777095-.11957-1.435291-.627565-2.272544-2.33055-2.272544-2.211688 0-2.360974 1.404858-2.360974 3.706418v4.305164c0 2.30156.149286 3.70571 2.360974 3.70571 2.21098 0 2.360266-1.40415 2.360266-2.869873h-1.732702c-.568133 0-.896419-.329098-.896419-.896703v-2.390735c0-.598037.328286-.896702.896419-.896702h5.97637c.597141 0 .895712.298665.895712.896702v4.035516c0 1.972462-.417433 7.263503-7.499646 7.263503s-7.500354-5.291041-7.500354-7.263503z" fill="#fff"/><path d="m444.734706 108.966693c0-1.47131-.21383-2.206239-2.234706-2.206239-2.020151 0-2.234706.734929-2.234706 2.206239v3.340193c0 .581849.337055.919206.918382.919206h2.632648c.612496-.031197.918382-.337357.918382-.950403zm5.265294 12.991492c0 .674713-.305886 1.041815-.918382 1.041815h-3.427805c-.582053 0-.919107-.30616-.919107-.919206v-2.665479c0-.613046-.305886-.919206-.918382-.919206h-2.632648c-.581327 0-.918382.30616-.918382.919206v2.665479c0 .613046-.305885.919206-.918382.919206h-3.42853c-.581328 0-.918382-.367102-.918382-1.041815v-12.991492c0-3.8611.611772-7.966693 7.5-7.966693s7.5 4.105593 7.5 7.966693z" fill="#fff"/><path d="m459.192568 101c.546089 0 .849313.299767.970745.809796l2.154897 8.730169c.060357.299767.303223.299767.36358 0l2.154897-8.730169c.121432-.510029.425374-.809796.971463-.809796h6.281462c.607165 0 .910388.299767.910388.90001v19.20069c0 .569699-.303223.8993-.910388.8993h-3.398686c-.576986 0-.910388-.329601-.910388-.8993v-11.820891c0-.209552-.273045-.240097-.33412-.029834l-2.943133 11.970774c-.121433.510029-.455554.779251-1.001643.779251h-2.003284c-.546089 0-.879491-.269222-1.000924-.779251l-2.943852-11.970774c-.060357-.210263-.33412-.179718-.33412.029834v11.820891c0 .569699-.303223.8993-.910388.8993h-3.397967c-.607884 0-.911107-.329601-.911107-.8993v-19.20069c0-.600243.303223-.90001.911107-.90001z" fill="#fff"/><path d="m490.0625 101c.625247 0 .9375.299767.9375.90001v3.359943c0 .569699-.312253.90001-.9375.90001h-7.562155c-.594169 0-.9375.300477-.9375.900011v.959679c0 .570409.343331.90001.9375.90001h4.843627c.624507 0 .9375.299767.9375.900721v3.359232c0 .57112-.312993.900011-.9375.900011h-4.843627c-.594169 0-.9375.300477-.9375.90001v.960389c0 .569699.343331.900011.9375.900011h7.562155c.625247 0 .9375.299766.9375.90001v3.360653c0 .599533-.312253.8993-.9375.8993h-13.125c-.593429 0-.9375-.329601-.9375-.8993v-19.20069c0-.600243.344071-.90001.9375-.90001z" fill="#fff"/><path d="m503.1666 108.944741c-.640461.120429-.960313-.150358-1.055814-.751789-.224351-1.234218-1.280923-2.017362-2.785439-2.017362-1.248331 0-2.016885.693357-1.888792 1.385288.447944 2.347294 10.563445 2.286723 10.563445 9.208888 0 .902861-1.087648 6.230234-8.674653 6.230234-6.722192 0-8.162283-4.153014-8.322967-6.50102-.031833-.541574.256185-.872931.832221-.99336l3.61766-.75179c.639703-.121141.992147.149646 1.056572.781719.127334 1.445146 1.311998 2.288148 2.816514 2.288148 1.568184 0 2.721014-.873644 2.528497-1.686004-.60787-2.558222-10.243594-1.986007-10.243594-8.908172-.031834-.90286.544203-6.229521 7.715097-6.229521 6.594101 0 8.131208 4.032585 8.322968 6.198879.031833.542286-.256185.873644-.832979.994073z" fill="#fff"/><path d="m411 121c0 1.656737-1.343419 3-3.000349 3-1.656232 0-2.999651-1.343263-2.999651-3s1.343419-3 2.999651-3c1.65693 0 3.000349 1.343263 3.000349 3" fill="#fff"/><path d="m124 62c0 34.2418182-27.7580846 62-61.999783 62s-62.00050635-27.7581818-62.00050635-62 27.75880795-62 62.00050635-62 61.999783 27.7581818 61.999783 62" fill="#c10606" mask="url(#a)" transform="translate(0 1)"/><path d="m60.8241864 61.9999638c0 33.553182-27.0455316 60.8766292-60.8241864 61.9624202.69364456.022425 1.38875714.037616 2.08753981.037616 34.74535309 0 62.91246019-27.7581979 62.91246019-62.0000362 0-34.2418382-28.1671071-62.00003614-62.91246019-62.00003614-.69878267 0-1.39389525.01519095-2.08753981.03761568 33.7786548 1.08579092 60.8241864 28.40923846 60.8241864 61.96242046" fill="#7f0404" mask="url(#b)" transform="translate(60)"/><path d="m87.1824503 65.741309c-1.7151432 7.8881044-9.1707362 6.5973372-9.1707362 6.5973372-8.0491563-1.0037658-7.3230426-10.828391-7.3230426-10.828391h16.6256009zm-38.1941644 6.5973372s-7.455593 1.2907672-9.1707362-6.5973372l-.1318221-4.2310538h16.6256009s.7261137 9.8246252-7.3230426 10.828391zm-9.6324775-24.5253181s-3.629112.142761-3.629112-3.1555377v-3.6577904h-8.7082666v11.9046468h-11.0184298v8.2468564h10.8858794v4.0158027h-10.7540574v8.3910969l12.0737345-.0717504s3.2991928 15.4899471 19.001311 15.4899471c0 0 11.3024662.9719588 16.2927684-9.6123329 4.9910304 10.5842917 16.2934966 9.6123329 16.2934966 9.6123329 15.7021182 0 19.001311-15.4899471 19.001311-15.4899471l12.0737345.0717504v-8.3910969h-10.754057v-4.0158027h10.885879v-8.2468564h-11.0184298v-11.9046468h-8.7082666v3.6577904c0 3.2982987-3.629112 3.1555377-3.629112 3.1555377z" fill="#7f0404"/><path d="m100 40.8557815-2.5500098-3.8557815-1.4499902 5z" fill="#7f0404"/><path d="m111 52.8557815-2.55001-3.8557815-1.44999 5z" fill="#7f0404"/><path d="m111 64.8557815-2.55001-3.8557815-1.44999 5z" fill="#7f0404"/><path d="m13 56.5882205 2.3878299 3.4117795 2.6121701-2.4005789-2.2111437-2.5994211z" fill="#7f0404"/><path d="m13 69.5882205 2.3878299 3.4117795 2.6121701-2.4005789-2.2111437-2.5994211z" fill="#7f0404"/><path d="m85.1824503 62.741309c-1.7151432 7.8881044-9.1707362 6.5973372-9.1707362 6.5973372-8.0491563-1.0037658-7.3230426-10.828391-7.3230426-10.828391h16.6256009zm-38.1941644 6.5973372s-7.455593 1.2907672-9.1707362-6.5973372l-.1318221-4.2310538h16.6256009s.7261137 9.8246252-7.3230426 10.828391zm-9.6324775-24.5253181s-3.629112.142761-3.629112-3.1555377v-3.6577904h-8.7082666v11.9046468h-11.0184298v8.2468564h10.8858794v4.0158027h-10.7540574v8.3910969l12.0737345-.0717504s3.2991928 15.4899471 19.001311 15.4899471c0 0 11.3024662.9719588 16.2927684-9.6123329 4.9910304 10.5842917 16.2934966 9.6123329 16.2934966 9.6123329 15.7021182 0 19.001311-15.4899471 19.001311-15.4899471l12.0737345.0717504v-8.3910969h-10.7540574v-4.0158027h10.8858794v-8.2468564h-11.0184298v-11.9046468h-8.7082666v3.6577904c0 3.2982987-3.629112 3.1555377-3.629112 3.1555377z" fill="#ccc"/><path d="m109 50.3461883-1.008646-1.3461883-.991354 2z" fill="#ccc"/><path d="m98 38.3461883-1.0086455-1.3461883-.9913545 2z" fill="#ccc"/><path d="m109 61.3461883-1.008646-1.3461883-.991354 2z" fill="#ccc"/><path d="m12 56.3604588 1.033668 1.6395412.966332-2z" fill="#ccc"/><path d="m13 69.3604588 1.033668 1.6395412.966332-2z" fill="#ccc"/><path d="m34 38.1093865-.7840502-1.1093865-.2159498 2z" fill="#ccc"/><path d="m84.1824503 60.741309c-1.7151432 7.8881044-9.1707362 6.5973372-9.1707362 6.5973372-8.0491563-1.0037658-7.3230426-10.828391-7.3230426-10.828391h16.6256009zm-38.1941644 6.5973372s-7.455593 1.2907672-9.1707362-6.5973372l-.1318221-4.2310538h16.6256009s.7261137 9.8246252-7.3230426 10.828391zm-9.6324775-24.5253181s-3.629112.142761-3.629112-3.1555377v-3.6577904h-8.7082666v11.9046468h-11.0184298v8.2468564h10.8858794v4.0158027h-10.7540574v8.3910969l12.0737345-.0717504s3.2991928 15.4899471 19.001311 15.4899471c0 0 11.3024662.9719588 16.2927684-9.6123329 4.9910304 10.5842917 16.2934966 9.6123329 16.2934966 9.6123329 15.7021182 0 19.001311-15.4899471 19.001311-15.4899471l12.0737345.0717504v-8.3910969h-10.7540574v-4.0158027h10.8858794v-8.2468564h-11.0184298v-11.9046468h-8.7082666v3.6577904c0 3.2982987-3.629112 3.1555377-3.629112 3.1555377z" fill="#f2f2f2"/><path d="m36 41.1724975-2-3.1724975v4z" fill="#7f0404"/></g></svg>