<svg xmlns="http://www.w3.org/2000/svg" viewBox="0 0 256.32 57.6"><defs><style>.cls-1{fill:#ffc138;}.cls-2{fill:#cc982f;}.cls-3{fill:#ffd68d;}</style></defs><g id="图层_2" data-name="图层 2"><g id="图层_2-2" data-name="图层 2"><path class="cls-1" d="M94.19,47.25v-37h12.9a9.78,9.78,0,0,1,7.19,3,9.84,9.84,0,0,1,3,7.21,10.42,10.42,0,0,1-1.83,5.92,11,11,0,0,1,3.75,4.07,11.3,11.3,0,0,1,1.37,5.44,11.47,11.47,0,0,1-11.36,11.42Zm6.73-22.9h6.15a3.91,3.91,0,0,0,2.75-6.68,3.79,3.79,0,0,0-2.75-1.14h-6.15Zm0,16.61h8.28a5.09,5.09,0,0,0,5-5.09,5.12,5.12,0,0,0-5-5.1h-8.28Z"/><path class="cls-1" d="M121.67,35.4a11.78,11.78,0,0,1,3.51-8.65,11.48,11.48,0,0,1,8.54-3.63,9.57,9.57,0,0,1,3.13.53,6.41,6.41,0,0,1,2.21,1.13l.68.57v-1.9h6.1v23.8h-6.1V45.37A5.29,5.29,0,0,1,139,46a8.82,8.82,0,0,1-2,1,8.51,8.51,0,0,1-3.27.61A11.63,11.63,0,0,1,125.18,44,11.9,11.9,0,0,1,121.67,35.4Zm6.1,0a6,6,0,0,0,1.74,4.25,6.06,6.06,0,0,0,10.28-4.25,6,6,0,0,0-10.28-4.26A6,6,0,0,0,127.77,35.4Z"/><path class="cls-1" d="M148.83,47.25V8.81h6.28V47.25Z"/><path class="cls-1" d="M158,15a4.08,4.08,0,0,1,4-4,3.9,3.9,0,0,1,2.83,1.2A3.74,3.74,0,0,1,166,15a3.91,3.91,0,0,1-1.22,2.88A4,4,0,0,1,162,19a3.89,3.89,0,0,1-2.81-1.15A4,4,0,0,1,158,15Zm.94,32.24V23.45H165v23.8Z"/><path class="cls-1" d="M169.32,47.25V23.45h6.1v1.88a7.36,7.36,0,0,1,2.46-1.59,7.25,7.25,0,0,1,2.79-.62,9.75,9.75,0,0,1,7.66,3.17,11.33,11.33,0,0,1,2.86,7.93v13h-6.1V34a4.94,4.94,0,0,0-1.43-3.52,4.7,4.7,0,0,0-6.85,0A4.82,4.82,0,0,0,175.42,34V47.25h-6.1Z"/><path class="cls-1" d="M193.14,35.37a12,12,0,0,1,3.5-8.7,12.39,12.39,0,0,1,17.36,0l-4.38,4.39a5.66,5.66,0,0,0-4.27-1.74,5.86,5.86,0,0,0-6,6A5.75,5.75,0,0,0,201,39.64a6.29,6.29,0,0,0,8.63,0L214,44a12.18,12.18,0,0,1-20.86-8.62Z"/><path class="cls-1" d="M214.2,35.37a12.21,12.21,0,0,1,24-3.28,12.15,12.15,0,0,1,.45,3.26,12,12,0,0,1-.38,3H221.09a5.44,5.44,0,0,0,4.48,3,7,7,0,0,0,.91.05,5.49,5.49,0,0,0,4.22-1.74L235,44a12.18,12.18,0,0,1-20.81-8.62Zm6.66-2.53h11a4.6,4.6,0,0,0-1.55-2.26,5.76,5.76,0,0,0-2.58-1.14,8.72,8.72,0,0,0-1.43-.12,10.89,10.89,0,0,0-1.38.09,5.4,5.4,0,0,0-2.54,1.15A4.52,4.52,0,0,0,220.86,32.84Z"/><path class="cls-1" d="M240.23,47.25V23.5h6.19v2.31a4.65,4.65,0,0,1,2-2,5.76,5.76,0,0,1,2.78-.72,11.73,11.73,0,0,1,5.14,1.24L254,30.24a5.45,5.45,0,0,0-2.8-.83,4.54,4.54,0,0,0-3.38,1.42,4.69,4.69,0,0,0-1.38,3.41v13Z"/><path class="cls-2" d="M68,33.4c-3.21-3.84-8.38-5-13.19-4.9,3-1.3,6.05-2.8,7.82-5.65C66.52,17.38,66,9,61.06,4.34,58.06,1,53.43-.19,49.08,0c-7.93.13-8.54-.11-15.19.07H22.58a3.15,3.15,0,1,0,0,6.3H43.9a2.94,2.94,0,0,1,2.93,2.94v.2a2.93,2.93,0,0,1-2.93,2.94H24.78a3.42,3.42,0,1,0,0,6.83h.09v0h4.77a3.12,3.12,0,1,1,0,6.24h-.33v0H26.21v0H13.29A3.42,3.42,0,0,0,9.88,29h0a3.41,3.41,0,0,0,3.41,3.41h.11a2.85,2.85,0,0,1,1.17-.25H40.73a2.92,2.92,0,0,1,0,5.83H36.59v0H33.79a3.42,3.42,0,1,0,0,6.83h19a3,3,0,0,1,0,6H30.35a3.35,3.35,0,1,0,0,6.7H41.77a33.46,33.46,0,0,0,3.51,0H50c5.47,0,11.69.62,16.17-3.21C72.6,49.52,73.41,39.23,68,33.4Z"/><path class="cls-1" d="M68,33.4c-3.21-3.84-8.38-5-13.19-4.9,3-1.3,6.05-2.8,7.82-5.65C66.52,17.38,66,9,61.06,4.34,58.06,1,53.43-.19,49.08,0c-7.93.13-8.54-.11-15.19.07H22.58a3.15,3.15,0,1,0,0,6.3H43.9a2.94,2.94,0,0,1,2.93,2.94v.2a2.93,2.93,0,0,1-2.93,2.94H24.78a3.42,3.42,0,1,0,0,6.83h.09v0H44.94a3.13,3.13,0,1,1,0,6.26H26.21v0H13.29A3.42,3.42,0,0,0,9.88,29h0a3.41,3.41,0,0,0,3.41,3.41H41.9A2.91,2.91,0,0,1,40.73,38H36.59v0H33.79a3.42,3.42,0,1,0,0,6.83h23.5a3,3,0,1,1,0,6H30.35a3.35,3.35,0,1,0,0,6.7H41.77a33.46,33.46,0,0,0,3.51,0H50c5.47,0,11.69.62,16.17-3.21C72.6,49.52,73.41,39.23,68,33.4Z"/><path class="cls-3" d="M43.58,35.26a2.85,2.85,0,0,1-2.91,2.8H36.53v0H50.66a2.81,2.81,0,1,0,0-5.62h-10A2.86,2.86,0,0,1,43.58,35.26Z"/><rect class="cls-3" x="7.88" y="12.47" width="10.15" height="6.86" rx="3.43"/><rect class="cls-2" x="12.16" y="38.03" width="15.16" height="6.86" rx="3.43"/><rect class="cls-1" y="25.37" width="6.86" height="6.86" rx="3.43"/><path class="cls-3" d="M48,6.37H43.85a2.93,2.93,0,0,1,2.92,2.94v.2a2.93,2.93,0,0,1-2.94,2.94H48a3,3,0,0,0,0-6.08Z"/></g></g></svg>