<?xml version="1.0" encoding="utf-8"?>
<!-- Generator: Adobe Illustrator 25.4.1, SVG Export Plug-In . SVG Version: 6.00 Build 0)  -->
<svg version="1.1" id="Layer_1" xmlns="http://www.w3.org/2000/svg" xmlns:xlink="http://www.w3.org/1999/xlink" x="0px" y="0px"
	 viewBox="0 0 387.62 209.31" style="enable-background:new 0 0 387.62 209.31;" xml:space="preserve">
<style type="text/css">
	.st0{fill:#FFFFFF;}
	.st1{fill:url(#SVGID_1_);}
	.st2{fill:url(#SVGID_00000013176151411926077480000014071900584743249836_);}
	.st3{fill:url(#SVGID_00000005251986819413699690000000592305537709644979_);}
	.st4{fill:url(#SVGID_00000112598329882279256260000013223501762177157009_);}
</style>
<g>
	<g>
		<g>
			<g>
				<path class="st0" d="M119.7,181.58c0,9.86-5.39,16.42-13.69,16.42c-3.85,0-6.98-1.68-9.07-4.69v16h-9.51v-44.09h9.51v4.27
					c2.09-2.95,5.11-4.63,8.85-4.63C114.14,164.85,119.7,171.53,119.7,181.58z M110.13,181.28c0-4.93-2.7-8.42-6.66-8.42
					c-3.85,0-6.54,3.49-6.54,8.42c0,5.05,2.7,8.48,6.54,8.48C107.43,189.76,110.13,186.27,110.13,181.28z"/>
				<path class="st0" d="M168.48,181.4c0,9.98-6.49,16.6-16.17,16.6c-9.73,0-16.22-6.62-16.22-16.6c0-9.99,6.49-16.54,16.22-16.54
					C161.99,164.85,168.48,171.41,168.48,181.4z M145.66,181.52c0,5.05,2.69,8.42,6.65,8.42c3.91,0,6.6-3.37,6.6-8.42
					c0-4.99-2.69-8.42-6.6-8.42C148.35,173.1,145.66,176.52,145.66,181.52z"/>
				<path class="st0" d="M197.14,188.79v8.84h-9.51v-44.63h9.51v23.58l9.79-11.37h10.78l-10.89,12.45l11.22,19.97h-11.27
					l-6.43-12.51L197.14,188.79z"/>
				<path class="st0" d="M262.14,184.22H241.3c0.93,3.85,3.46,6.01,6.98,6.01c2.59,0,5.11-1.14,7.1-3.31l5,5.35
					c-3.02,3.61-7.48,5.71-12.92,5.71c-9.68,0-15.73-6.62-15.73-16.48c0-10.05,6.27-16.66,15.45-16.66
					C257.63,164.85,262.8,172.37,262.14,184.22z M253.01,178.63c0-3.97-2.31-6.56-5.72-6.56c-3.3,0-5.56,2.65-6.16,6.56H253.01z"/>
				<path class="st0" d="M290.58,170.69c2.03-3.79,5.39-5.89,9.62-5.95v9.38c-5.5-0.54-9.13,2.29-9.62,6.86v16.66h-9.52v-32.42h9.52
					V170.69z"/>
			</g>
		</g>
		<g>
			<linearGradient id="SVGID_1_" gradientUnits="userSpaceOnUse" x1="57.3714" y1="141.1342" x2="57.3714" y2="21.97">
				<stop  offset="0" style="stop-color:#ED1C24"/>
				<stop  offset="1" style="stop-color:#F15A24"/>
			</linearGradient>
			<path class="st1" d="M78.37,36.4v103.02H36.19V36.4H0V0h85.03l29.72,36.4H78.37z"/>
			
				<linearGradient id="SVGID_00000178177578140757813870000014195570475773105026_" gradientUnits="userSpaceOnUse" x1="330.2457" y1="141.1342" x2="330.2457" y2="21.97">
				<stop  offset="0" style="stop-color:#ED1C24"/>
				<stop  offset="1" style="stop-color:#F15A24"/>
			</linearGradient>
			<path style="fill:url(#SVGID_00000178177578140757813870000014195570475773105026_);" d="M351.25,36.4v103.02h-42.19V36.4h-36.19
				V0h114.74v36.4H351.25z"/>
			
				<linearGradient id="SVGID_00000025430747462461513610000002571890786709968262_" gradientUnits="userSpaceOnUse" x1="137.9498" y1="141.1342" x2="137.9498" y2="21.97">
				<stop  offset="0" style="stop-color:#ED1C24"/>
				<stop  offset="1" style="stop-color:#F15A24"/>
			</linearGradient>
			<polygon style="fill:url(#SVGID_00000025430747462461513610000002571890786709968262_);" points="176.09,0 136.95,53.09 97.8,0 
				60.44,0 60.44,36.4 81.57,36.4 115.24,85.44 115.24,139.42 136.95,139.42 157.59,139.42 157.59,85.44 192.32,36.4 215.46,36.4 
				215.46,0 			"/>
			
				<linearGradient id="SVGID_00000011740714710481958270000012147272686606860423_" gradientUnits="userSpaceOnUse" x1="233.4814" y1="141.1342" x2="233.4814" y2="21.97">
				<stop  offset="0" style="stop-color:#ED1C24"/>
				<stop  offset="1" style="stop-color:#F15A24"/>
			</linearGradient>
			<polygon style="fill:url(#SVGID_00000011740714710481958270000012147272686606860423_);" points="236.28,101.03 236.28,0 
				194.09,0 194.09,139.42 272.87,139.42 272.87,101.03 			"/>
		</g>
	</g>
	<g>
		<path class="st0" d="M296.27,83.21c3.14-3.14,4.87-7.32,4.87-11.76c0-4.32-1.64-8.4-4.62-11.51l0,0l0,0l-4.61-4.61l0,0l-0.01,0
			l-4.6,4.6v0.01v0.02l4.6,4.6h0.01c1.75,1.88,2.71,4.31,2.71,6.9c0,2.7-1.05,5.24-2.96,7.15c-3.86,3.86-10.09,3.94-14.05,0.25l0,0
			l9.7-9.71l-4.6-4.6l-9.71,9.7l-9.71-9.7l-4.6,4.6l9.7,9.71l0,0c-3.96,3.69-10.19,3.61-14.05-0.25
			c-3.86-3.86-3.94-10.09-0.25-14.05l0.01,0l4.6-4.6l-4.61-4.62l0,0l-4.61,4.61l0,0l0,0c-6.23,6.51-6.15,16.87,0.25,23.27
			c2.69,2.69,6.08,4.26,9.59,4.72l-13.1,13.1h53.57l-13.1-13.1C290.19,87.47,293.58,85.9,296.27,83.21z M261.94,94.51l11.05-11.05
			l11.05,11.05H261.94z"/>
		<polygon class="st0" points="258.69,59.92 254.09,55.33 254.08,55.33 258.69,59.94 		"/>
		<polygon class="st0" points="272.99,45.63 282.71,55.33 287.3,50.73 272.99,36.41 258.69,50.73 263.28,55.33 		"/>
		
			<rect x="269.45" y="56.4" transform="matrix(0.7071 -0.7071 0.7071 0.7071 37.5815 210.6003)" class="st0" width="7.08" height="7.08"/>
	</g>
</g>
</svg>
