<svg width="138" height="44" viewBox="0 0 138 44" fill="none" xmlns="http://www.w3.org/2000/svg">
<path d="M104.27 12.9603C103.164 10.3524 101.663 8.06067 99.7676 6.16405C97.8717 4.26742 95.581 2.76592 92.9742 1.65955C90.3674 0.553183 87.5237 0 84.443 0C81.3623 0 78.5186 0.553183 75.9118 1.65955C73.3051 2.76592 71.0143 4.26742 69.1185 6.16405C67.2226 8.06067 65.7218 10.3524 64.6159 12.9603C63.51 15.5682 62.957 18.4921 62.957 21.6532C62.957 24.8142 63.51 27.6592 64.6159 30.3461C65.7218 32.9539 67.2226 35.2457 69.1185 37.1423C71.0143 39.039 73.3051 40.5405 75.9118 41.6468C78.5186 42.7532 81.3623 43.3064 84.443 43.3064C87.5237 43.3064 90.3674 42.7532 92.9742 41.6468C95.581 40.5405 97.8717 39.039 99.7676 37.1423C101.663 35.2457 103.164 32.9539 104.27 30.3461C105.376 27.7382 105.929 24.8142 105.929 21.6532C105.85 18.4921 105.297 15.5682 104.27 12.9603ZM100.321 28.5285C99.5306 30.6622 98.4247 32.5588 96.9238 34.2184C95.423 35.8779 93.6851 37.1423 91.5523 38.0906C89.4195 39.039 87.0498 39.5131 84.443 39.5131H84.364V3.71423H84.443C87.0498 3.71423 89.4195 4.18839 91.5523 5.1367C93.6851 6.08502 95.423 7.42846 96.9238 9.08802C98.4247 10.7476 99.5306 12.6442 100.321 14.7779C101.11 16.9116 101.505 19.2034 101.505 21.6532C101.426 24.024 101.031 26.3157 100.321 28.5285Z" fill="#F6B26A"/>
<path d="M5.84545 27.0271V35.0878C5.84545 35.8781 5.76646 36.3522 5.52948 36.5893C5.2925 36.8264 4.81855 36.9054 4.02862 36.9054H1.81683C1.0269 36.9054 0.552948 36.8264 0.31597 36.5893C0.0789926 36.3522 0 35.8781 0 35.0878V8.13987C0 7.34961 0.0789926 6.87545 0.31597 6.63837C0.552948 6.40129 1.0269 6.32227 1.81683 6.32227H12.4018C14.7716 6.32227 16.3515 6.32227 17.1414 6.40129C19.9061 6.55934 21.8809 7.66571 23.0658 9.64137C24.0137 11.1429 24.4087 13.5927 24.4087 16.9908C24.4087 19.8357 24.0137 21.9695 23.2238 23.471C22.4339 24.9725 21.17 25.9998 19.4322 26.474C18.8002 26.711 18.2473 26.7901 17.6943 26.8691C17.1414 26.9481 15.4825 26.9481 12.6388 26.9481H5.84545V27.0271ZM5.84545 21.9695H12.4808C15.0876 21.9695 16.7464 21.6534 17.4574 21.1002C18.1683 20.468 18.4843 19.1245 18.4843 16.9118C18.4843 15.2522 18.4053 13.9878 18.1683 13.2766C17.9313 12.5653 17.5363 12.0122 16.9044 11.617C16.1935 11.3009 14.9296 11.1429 13.0338 11.1429H5.84545V21.9695Z" fill="#F6B26A"/>
<path d="M33.3348 8.13987V35.1668C33.3348 35.9571 33.2558 36.4313 33.0189 36.6683C32.7819 36.9054 32.3079 36.9844 31.518 36.9844H29.2272C28.4373 36.9844 27.9633 36.9054 27.7264 36.6683C27.4894 36.4313 27.4104 35.9571 27.4104 35.1668V8.13987C27.4104 7.34961 27.4894 6.87545 27.7264 6.63837C27.9633 6.40129 28.4373 6.32227 29.2272 6.32227H31.518C32.3079 6.32227 32.7819 6.40129 33.0189 6.63837C33.2558 6.87545 33.3348 7.34961 33.3348 8.13987Z" fill="#F6B26A"/>
<path d="M43.6829 31.7687V31.9268H58.9285C59.7184 31.9268 60.1924 32.0058 60.4293 32.2429C60.6663 32.4799 60.7453 32.9541 60.7453 33.7444V35.0878C60.7453 35.8781 60.6663 36.3522 60.4293 36.5893C60.1924 36.8264 59.7184 36.9054 58.9285 36.9054H38.1534C37.3635 36.9054 36.8896 36.8264 36.6526 36.5893C36.4156 36.3522 36.3366 35.8781 36.3366 35.0878V32.9541V32.4009C36.3366 32.1638 36.3366 31.9268 36.4156 31.7687C36.4156 31.7687 36.6526 31.4526 37.0475 30.9784L53.083 11.3799V11.2219H38.8644C38.0744 11.2219 37.6005 11.1429 37.3635 10.9058C37.1265 10.6687 37.1265 10.2736 37.1265 9.48331V8.13987C37.1265 7.34961 37.2055 6.87545 37.4425 6.63837C37.6795 6.40129 38.1534 6.32227 38.9434 6.32227H58.8495C59.6394 6.32227 60.1134 6.40129 60.3503 6.63837C60.5873 6.87545 60.6663 7.34961 60.6663 8.13987V10.1946V10.8268C60.6663 11.1429 60.4293 11.617 59.9554 12.1702L43.6829 31.7687Z" fill="#F6B26A"/>
<path d="M115.566 11.3799H115.329L115.408 13.3556C115.487 15.3313 115.566 17.3069 115.566 19.3616V35.1668C115.566 35.9571 115.487 36.4313 115.25 36.6683C115.013 36.9054 114.539 36.9844 113.749 36.9844H111.537C110.748 36.9844 110.274 36.9054 110.037 36.6683C109.8 36.4313 109.721 35.9571 109.721 35.1668V8.13987C109.721 7.34961 109.8 6.87545 110.037 6.63837C110.274 6.40129 110.748 6.32227 111.537 6.32227H118.173C118.884 6.32227 119.279 6.32227 119.437 6.48032C119.595 6.63837 119.832 6.95448 120.148 7.58669L127.494 21.8114C128.284 23.3919 129.469 25.8417 131.049 29.3189L132.234 31.8477H132.392L132.313 29.8721C132.234 27.9755 132.155 25.9998 132.155 23.9451V8.13987C132.155 7.34961 132.234 6.87545 132.471 6.63837C132.707 6.40129 133.181 6.32227 133.971 6.32227H136.183C136.973 6.32227 137.447 6.40129 137.684 6.63837C137.921 6.87545 138 7.34961 138 8.13987V35.1668C138 35.9571 137.921 36.4313 137.684 36.6683C137.447 36.9054 136.973 36.9844 136.183 36.9844H129.469C128.758 36.9844 128.363 36.9844 128.205 36.8264C128.047 36.6683 127.81 36.3522 127.494 35.799L119.358 20.2309C118.568 18.6504 117.62 16.4376 116.356 13.5927L115.566 11.3799Z" fill="#F6B26A"/>
</svg>
