<svg width="1295" height="322" viewBox="0 0 1295 322" fill="none" xmlns="http://www.w3.org/2000/svg">
<path d="M399.611 76.0479H469.999C481.584 76.0479 491.115 77.6609 498.301 80.7404C505.486 83.9665 511.058 87.7791 515.018 92.325C518.977 96.8709 521.616 101.857 523.083 107.282C524.403 112.561 525.136 117.401 525.136 121.8C525.136 127.079 524.256 131.918 522.496 136.171C520.737 140.423 518.39 144.236 515.458 147.462C512.525 150.688 509.299 153.328 505.926 155.381C502.407 157.434 499.034 158.753 495.661 159.633C498.447 159.633 501.527 160.513 505.193 162.126C508.712 163.886 512.085 166.232 515.311 169.458C518.537 172.684 521.323 176.643 523.376 181.483C525.576 186.322 526.602 191.894 526.602 198.2C526.602 202.599 525.869 207.438 524.403 213.01C522.936 218.583 520.15 223.715 516.191 228.554C512.085 233.393 506.512 237.499 499.18 240.872C491.848 244.245 482.463 245.858 470.732 245.858H399.611V76.0479ZM462.227 145.262C467.066 145.262 471.025 144.676 473.958 143.356C476.891 142.036 479.384 140.423 481.144 138.37C482.903 136.317 484.076 134.118 484.81 131.625C485.396 129.132 485.836 126.932 485.836 124.879C485.836 122.973 485.543 120.773 484.956 118.574C484.37 116.374 483.197 114.174 481.584 112.121C479.824 110.069 477.478 108.455 474.398 106.989C471.319 105.669 467.213 104.936 462.227 104.936H438.764V145.262H462.227ZM438.618 174.151V215.797H463.107C467.946 215.797 471.905 215.21 474.838 213.89C477.771 212.57 480.264 210.957 482.023 208.904C483.783 206.851 484.956 204.652 485.689 202.306C486.276 199.813 486.716 197.466 486.716 194.974C486.716 193.067 486.423 190.868 485.689 188.375C485.103 185.882 483.93 183.682 482.17 181.629C480.41 179.576 478.064 177.817 474.985 176.35C471.905 174.884 468.093 174.151 463.4 174.151H438.618Z" fill="white"/>
<path d="M607.548 76.0479H647.288V245.858H607.548V76.0479Z" fill="white"/>
<path d="M820.323 76.0479H863.728L813.284 160.953L863.728 245.858H820.323L790.701 191.308L761.08 245.858H717.967L768.412 160.953L717.967 76.0479H761.08L790.701 130.892L820.323 76.0479Z" fill="white"/>
<path d="M1006.85 250.257C992.773 250.257 980.162 247.764 969.017 242.925C957.872 237.939 948.341 231.34 940.569 223.128C932.797 214.916 926.931 205.385 922.825 194.68C918.719 183.975 916.813 172.684 916.813 161.099C916.813 149.514 918.866 138.223 922.825 127.518C926.931 116.813 932.797 107.282 940.569 99.0699C948.341 90.8581 957.726 84.2592 969.017 79.2734C980.162 74.2877 992.773 71.9414 1006.85 71.9414C1020.93 71.9414 1033.54 74.4343 1044.54 79.2734C1055.68 84.2592 1065.07 90.8581 1072.84 99.0699C1080.61 107.282 1086.48 116.813 1090.58 127.518C1094.69 138.223 1096.59 149.514 1096.59 161.099C1096.59 172.684 1094.54 183.975 1090.58 194.68C1086.48 205.385 1080.61 214.916 1072.84 223.128C1065.07 231.34 1055.68 237.939 1044.54 242.925C1033.39 247.764 1020.93 250.257 1006.85 250.257ZM1006.85 214.77C1014.62 214.77 1021.51 213.303 1027.67 210.224C1033.83 207.291 1038.96 203.185 1043.36 198.199C1047.62 193.213 1050.99 187.494 1053.19 181.042C1055.39 174.59 1056.56 167.844 1056.56 160.952C1056.56 154.06 1055.39 147.315 1053.19 140.863C1050.99 134.41 1047.62 128.691 1043.36 123.706C1039.11 118.72 1033.83 114.761 1027.67 111.681C1021.51 108.748 1014.62 107.135 1006.85 107.135C999.079 107.135 992.186 108.602 986.027 111.681C979.869 114.614 974.736 118.72 970.337 123.706C966.084 128.691 962.712 134.41 960.512 140.863C958.312 147.315 957.139 154.06 957.139 160.952C957.139 167.844 958.312 174.59 960.512 181.042C962.712 187.494 966.084 193.213 970.337 198.199C974.589 203.185 979.869 207.144 986.027 210.224C992.04 213.303 999.079 214.77 1006.85 214.77Z" fill="white"/>
<path d="M1206.28 189.548C1206.28 198.786 1208.78 205.972 1213.76 211.104C1218.75 216.236 1225.35 218.876 1233.41 218.876C1239.72 218.876 1245 217.116 1249.25 213.45C1253.5 209.784 1255.7 204.945 1255.7 199.079C1255.7 195.707 1254.97 192.774 1253.65 190.428C1252.33 188.081 1250.42 186.028 1248.07 184.269C1245.73 182.509 1242.94 180.896 1239.72 179.576C1236.49 178.256 1232.97 176.79 1229.3 175.324C1221.53 172.391 1214.2 169.458 1207.16 166.525C1200.12 163.592 1193.96 160.073 1188.83 155.967C1183.7 151.861 1179.59 146.875 1176.51 141.01C1173.43 135.144 1171.97 127.959 1171.97 119.453C1171.97 111.682 1173.58 104.789 1176.95 98.7771C1180.33 92.7649 1184.73 87.7791 1190.15 83.6731C1195.58 79.5672 1202.03 76.6344 1209.22 74.5814C1216.4 72.5284 1223.88 71.502 1231.65 71.502C1241.62 71.502 1250.42 72.9684 1258.05 75.9012C1265.67 78.834 1271.98 82.7933 1276.96 87.7791C1281.95 92.7649 1285.76 98.4838 1288.25 104.936C1290.75 111.388 1292.07 118.28 1292.07 125.612H1252.77C1252.77 117.987 1251.01 111.975 1247.34 107.722C1243.68 103.323 1238.54 101.123 1231.65 101.123C1225.93 101.123 1221.09 102.59 1217.13 105.523C1213.03 108.455 1211.12 112.855 1211.12 118.574C1211.12 124.293 1213.32 128.692 1217.72 132.065C1222.12 135.437 1227.99 138.37 1235.32 140.863C1242.21 143.356 1249.25 145.849 1256.43 148.782C1263.62 151.568 1269.92 155.087 1275.64 159.193C1281.36 163.299 1285.91 168.285 1289.57 174.297C1293.24 180.163 1295 187.348 1295 195.707C1295 204.505 1293.39 212.277 1290.31 219.023C1287.08 225.768 1282.68 231.487 1277.11 236.18C1271.39 240.725 1264.79 244.245 1257.02 246.591C1249.25 248.937 1240.74 250.11 1231.36 250.11C1222.27 250.11 1213.91 248.791 1205.99 246.151C1198.22 243.512 1191.32 239.552 1185.61 234.42C1179.89 229.287 1175.34 222.835 1172.12 215.357C1168.89 207.878 1167.28 199.226 1167.28 189.548H1206.28Z" fill="white"/>
<path d="M344.637 137.377C341.793 117.707 335.237 98.5895 325.125 80.8149C320.227 72.2831 314.697 64.3043 308.535 56.9575C302.61 49.8477 296.133 43.2909 289.181 37.366C282.387 31.5992 275.198 26.3853 267.614 21.8034C260.189 17.3006 252.368 13.3507 244.31 10.0327L250.709 0L213.659 9.24276L226.061 38.709L234.119 26.0693C240.913 29.1502 247.391 32.6262 253.474 36.6551C259.715 40.7629 265.639 45.2658 271.09 50.3217C276.699 55.4566 281.913 61.0654 286.574 67.1483C291.393 73.3891 295.738 80.1039 299.451 87.3717C306.876 101.749 311.458 117.075 313.117 132.875C314.934 149.464 313.512 166.449 308.851 182.88C304.032 200.102 295.738 216.612 284.125 231.385C272.117 246.632 256.792 259.824 238.543 269.699L219.505 207.291C221.243 206.58 222.981 205.869 224.561 205.237C226.14 204.526 227.72 203.815 229.221 203.104C230.722 202.393 232.144 201.682 233.487 200.892C234.83 200.181 236.094 199.391 237.279 198.68C239.965 197.021 242.414 195.204 244.705 193.229C246.996 191.254 248.971 189.121 250.788 186.83C252.605 184.539 254.185 182.09 255.607 179.562C256.95 177.034 258.135 174.348 259.083 171.505C260.031 168.661 260.663 165.817 261.058 162.973C261.453 160.129 261.532 157.206 261.374 154.283C261.216 151.36 260.742 148.437 260.031 145.514C259.32 142.591 258.372 139.668 257.187 136.666C255.133 131.532 252.526 127.108 249.524 123.237C246.522 119.445 242.967 116.285 239.017 113.599C235.067 110.992 230.643 108.938 225.666 107.437C220.769 105.936 215.397 104.988 209.472 104.593C213.027 101.986 216.029 99.2214 218.32 96.2985C220.611 93.4546 222.27 90.4527 223.297 87.3717C224.324 84.2908 224.797 81.1309 224.561 77.813C224.402 74.5741 223.613 71.2562 222.27 67.7803C221.559 65.9633 220.769 64.3043 219.9 62.7244C219.031 61.1444 218.004 59.6435 216.898 58.2215C215.792 56.7995 214.607 55.5356 213.264 54.2716C211.921 53.0866 210.499 51.9017 208.998 50.8747C208.682 50.6377 208.445 50.4797 208.129 50.2427C207.813 50.0847 207.576 49.8477 207.26 49.6897C206.944 49.5317 206.628 49.2947 206.312 49.1367C205.996 48.9787 205.68 48.7417 205.364 48.5837C203.389 47.4778 201.414 46.5298 199.439 45.7398C197.464 44.9498 195.489 44.3179 193.435 43.8439C191.46 43.3699 189.406 43.0539 187.431 42.8169C185.377 42.6589 183.403 42.5799 181.349 42.7379C180.559 42.8169 179.69 42.8169 178.821 42.9749C177.952 43.0539 177.004 43.1329 176.056 43.2909C175.108 43.3699 174.081 43.5279 173.054 43.6859C172.027 43.8439 170.921 44.0019 169.815 44.1599L163.653 23.6994L145.405 28.2813L150.697 48.1098H150.618C150.223 48.1888 149.828 48.2677 149.433 48.4257C149.038 48.5047 148.643 48.6627 148.169 48.7417C147.774 48.8207 147.3 48.9787 146.905 49.0577C146.51 49.1367 146.036 49.2947 145.642 49.3737L134.029 52.2966L122.969 4.81888C121.547 5.29286 120.125 5.68785 118.703 6.16184C117.281 6.63583 115.859 7.10982 114.516 7.6628C113.094 8.13679 111.751 8.68978 110.329 9.24276C108.986 9.79575 107.564 10.3487 106.222 10.9017C99.9017 13.5876 93.8188 16.5896 87.894 19.9075C81.9692 23.3044 76.2023 27.0173 70.5935 31.0462C64.9056 35.0751 59.5337 39.499 54.3989 44.3179C49.185 49.1367 44.2081 54.2716 39.5473 59.8015C33.7804 66.6743 28.4875 73.9421 23.9057 81.5259C19.1658 89.3467 15.1369 97.4835 11.74 105.936C8.26406 114.626 5.49914 123.632 3.52419 132.954C1.47024 142.512 0.364269 152.387 0.0482775 162.499C-0.188716 172.374 0.443267 182.248 2.02323 191.965C3.60319 201.998 6.13112 211.794 9.68603 221.431C13.3199 231.306 17.9018 240.944 23.5897 250.108C29.4355 259.587 36.3083 268.514 44.2081 276.888L29.4355 298.849L84.1021 285.025L78.6512 225.539L64.5896 246.474C58.1118 240.075 52.4239 233.123 47.526 225.776C42.7862 218.587 38.7573 211.083 35.5974 203.341C32.4374 195.757 30.0675 187.936 28.4875 179.878C26.9076 172.058 26.0386 164.079 25.9596 156.1C25.7226 141.09 28.0136 126.634 32.3584 113.204C36.5453 100.248 42.5492 88.0827 50.133 77.102C57.4008 66.3583 66.2486 56.6415 76.2813 48.2677C86.077 40.052 97.1368 32.9421 109.223 27.3333L114.911 57.0365L74.3854 67.1483L76.9133 90.2157L96.8998 85.2388L113.647 197.89L89.474 203.973L93.5819 240.865L147.458 227.277L154.963 266.381L181.586 259.666L172.659 220.957L188.142 217.086C188.695 216.928 189.248 216.77 189.801 216.691C190.354 216.533 190.907 216.375 191.46 216.296C192.013 216.138 192.566 215.98 193.119 215.822C193.672 215.664 194.225 215.506 194.778 215.348L212.158 280.917L222.981 321.759C223.06 321.759 223.06 321.759 223.139 321.68C225.587 320.969 227.957 320.179 230.327 319.31C232.697 318.441 235.067 317.572 237.358 316.624C239.649 315.676 241.94 314.728 244.231 313.701C246.522 312.674 248.734 311.647 250.946 310.541C274.803 298.612 294.711 282.102 310.115 262.589C324.967 243.867 335.316 222.774 341.003 200.734C346.533 179.799 347.718 158.312 344.637 137.377ZM146.984 107.753L139.322 74.5741L149.828 71.9671C152.198 71.4142 154.41 70.8612 156.464 70.5452C158.518 70.1502 160.414 69.9132 162.152 69.8342C163.89 69.6762 165.47 69.6762 166.892 69.7552C168.314 69.8342 169.578 70.0712 170.684 70.3872C171.79 70.7032 172.817 71.1772 173.765 71.7301C174.713 72.2831 175.582 73.0731 176.372 73.9421C177.162 74.8111 177.873 75.838 178.426 76.944C179.058 78.129 179.532 79.393 180.006 80.8149C180.48 82.3949 180.796 83.8958 180.954 85.3178C181.112 86.7398 181.112 88.0827 180.954 89.3467C180.796 90.6107 180.48 91.7956 179.927 92.9016C179.453 94.0076 178.742 94.9555 177.952 95.9035C177.083 96.8515 176.135 97.6415 174.95 98.5105C173.765 99.3004 172.422 100.09 170.921 100.88C169.42 101.591 167.682 102.302 165.865 102.934C163.969 103.566 161.994 104.198 159.782 104.751L146.984 107.753ZM208.208 159.813C208.05 161.551 207.734 163.21 207.181 164.711C206.628 166.212 205.838 167.634 204.811 168.819C203.784 170.083 202.52 171.268 200.94 172.453C199.36 173.638 197.543 174.664 195.41 175.77C193.277 176.797 190.828 177.824 188.142 178.772C185.456 179.72 182.455 180.589 179.216 181.379L164.838 185.013L153.304 135.324L166.576 132.006C169.42 131.295 172.027 130.742 174.555 130.347C177.083 129.952 179.374 129.715 181.586 129.636C183.798 129.557 185.772 129.636 187.668 129.873C189.564 130.11 191.302 130.505 192.803 131.058C194.383 131.611 195.805 132.401 197.148 133.349C198.491 134.297 199.755 135.482 200.861 136.903C201.967 138.325 203.073 139.905 203.942 141.722C204.89 143.539 205.68 145.672 206.47 147.963C207.181 150.175 207.655 152.308 207.971 154.283C208.208 156.179 208.287 158.075 208.208 159.813Z" fill="url(#paint0_linear)"/>
<defs>
<linearGradient id="paint0_linear" x1="54.7384" y1="321.66" x2="292.02" y2="4.41826" gradientUnits="userSpaceOnUse">
<stop stop-color="white"/>
<stop offset="1" stop-color="white"/>
</linearGradient>
</defs>
</svg>
