<?xml version="1.0" encoding="utf-8"?>
<!-- Generator: Adobe Illustrator 25.2.3, SVG Export Plug-In . SVG Version: 6.00 Build 0)  -->
<svg version="1.1" id="Layer_1" xmlns="http://www.w3.org/2000/svg" xmlns:xlink="http://www.w3.org/1999/xlink" x="0px" y="0px"
	 viewBox="0 0 128 128" style="enable-background:new 0 0 128 128;" xml:space="preserve">
<style type="text/css">
	.st0{fill:#22140E;}
	.st1{fill:#FFFFFF;}
	.st2{fill:#8A673F;}
	.st3{fill:#FEFEFE;}
	.st4{fill:#F16F53;}
	.st5{fill:#FDFCFC;}
	.st6{fill:#131312;}
	.st7{fill:#381B12;}
</style>
<g>
	<g>
		<path class="st0" d="M64,121.1c-8.2,0-16.3-1.8-24.2-5.4c-7-3.1-13.8-7.7-19.7-13.2C9,92.1,1.8,79,1.8,69c0-10.3,5.9-24,15.3-35.8
			c1.3-15.7,2.9-24.5,7.3-25.8l0.3-0.1l0.3,0c2,0.1,12.2,0.8,15.7,4.8c0.2,0.3,0.4,0.5,0.6,0.8C48.8,9.1,56.4,7.2,64,7.2
			c7.5,0,15.1,1.9,22.4,5.6c0.2-0.4,0.4-0.7,0.7-1c3.4-4.1,13.7-4.7,15.7-4.8l0.3,0l0.3,0.1c4.3,1.3,5.9,10.2,7.3,26
			c9.6,11.9,15.5,25.6,15.5,36c0,10-7.2,23.1-18.3,33.5C100.5,109.4,84.9,121.1,64,121.1z"/>
		<path class="st1" d="M102.9,8.8c4,1.2,5.3,15.7,6,25c9.6,11.8,15.4,25.4,15.4,35.3c0,18.8-27,50.3-60.4,50.3
			C30.7,119.3,3.6,87.8,3.6,69c0-9.8,5.8-23.4,15.3-35.1c0.8-9.3,2.1-23.6,6-24.8c5.3,0.2,15.7,1.9,15.1,6.5c0,0,0,0,0,0.1
			C47.4,11.5,55.5,9,64,9c8.5,0,16.5,2.5,23.8,6.6c0-0.1,0-0.2-0.1-0.4C87.2,10.6,97.6,9,102.9,8.8 M103.4,5.1l-0.6,0
			c-3,0.1-13,0.9-16.9,5.4C78.7,7.1,71.3,5.4,64,5.4c-7.4,0-14.9,1.8-22.2,5.3c-4-4.3-13.8-5-16.7-5.2l-0.6,0l-0.6,0.2
			c-3.3,1-5.3,4.6-6.7,12.1c-0.9,4.5-1.4,9.7-1.8,14.7C5.9,44.6,0,58.5,0,69c0,5.2,1.8,11.3,5.2,17.5c3.3,6.1,8,12.1,13.6,17.3
			c6,5.6,13,10.3,20.2,13.5c8.2,3.7,16.6,5.5,25,5.5c8.4,0,16.8-1.9,25-5.5c7.2-3.2,14.2-7.9,20.2-13.5c5.6-5.2,10.3-11.2,13.6-17.3
			c3.4-6.2,5.2-12.3,5.2-17.5c0-10.6-5.9-24.6-15.5-36.7c-0.4-4.2-0.9-9.9-1.8-14.8c-1.4-7.6-3.4-11.3-6.7-12.3L103.4,5.1L103.4,5.1
			z"/>
	</g>
	<path class="st2" d="M107.6,39.3c-0.9-1.3-1.6-2.7-1.8-4.3l0,0c-0.6-4-1-21-4.7-22.1c-3.7,0.2-11,1.3-10.6,4.5
		c0.2,1.7,0.9,4.1,2,6.5C84.2,17.6,74.5,13.5,64,13.5c-10.6,0-20.5,4.3-29,10.7c1.1-2.5,1.9-5,2.1-6.8c0.4-3.2-6.9-4.4-10.6-4.5
		C22.9,14,22.5,31,21.9,34.9c0,0,0,0,0,0.1c-0.3,1.7-0.9,3.4-1.9,4.8C12.9,49.7,8.6,60.5,8.6,68.5c0,17.2,24.8,46.1,55.4,46.1
		c30.6,0,55.4-28.9,55.4-46.1C119.4,60.3,115,49.3,107.6,39.3z"/>
	<path class="st0" d="M35,18.1c0.3-2.2-4.8-3-7.4-3.2c-2.5,0.8-2.8,12.6-3.3,15.4c-0.4,2.8,2.5,1.2,5.3-1.6S34.7,20.9,35,18.1z"/>
	<path class="st0" d="M97.8,28.7c2.8,2.8,5.7,4.4,5.3,1.6c-0.4-2.8-0.7-14.6-3.3-15.4c-2.6,0.1-7.6,0.9-7.4,3.2
		C92.8,20.9,95.1,25.9,97.8,28.7z"/>
	<g>
		<path class="st3" d="M59.6,96.5c-3,0.2-5.8,1.4-8.7,1.9c-5.1,1-9.6-0.4-13.4-3.8c-8.2-7.4-8.7-20.6-1-28.5c3.1-3.2,7-4.9,11.5-5
			c3.2-0.1,5.8-1.6,7.7-4c1.6-2,3.6-3.4,6.1-3.9c4.2-0.8,7.6,0.6,10.3,3.9c1.7,2.1,3.9,3.6,6.7,4c1.2,0.2,2.4,0.1,3.5,0.3
			c5.5,1,9.5,4.2,12.1,9c4.1,7.5,2.9,16.8-2.8,23.1c-4.4,4.9-11.2,6.6-17.3,4.3c-1.9-0.7-4-1-6-1.2c0.5-1.4,0.6-2.9,0.5-4.3
			c3.2,0.3,5.7-0.9,7.7-3.3c0.9-1.1,0.9-2.4-0.1-3.2c-1-0.8-2.2-0.6-3.2,0.5c-1.1,1.2-2.3,2-4,1.7c-1.2-0.2-2.3-0.6-3.1-1.4
			c-0.5-0.4-0.1-1.5-0.1-2.2c0,0,0-0.1,0-0.1c-0.1-0.5,0.1-0.8,0.6-1.2c1.2-0.8,2.2-1.8,2.9-3.1c0.8-1.6,0.5-2.8-1-3.7
			c-3-1.8-6.4-1.8-9.4,0c-1.5,0.9-1.8,2.2-0.9,3.7c0.6,1.2,1.5,2.1,2.6,2.9c0.7,0.5,1,1,0.9,1.9c-0.1,1.9,0,1.9-1.7,2.7
			c-2.1,1-3.8,0.7-5.3-0.9c-0.2-0.2-0.4-0.5-0.6-0.7c-0.8-0.8-2.1-0.8-3,0c-0.9,0.8-0.9,2.1,0,3.1c2.1,2.4,4.7,3.7,7.9,3.2
			C58.9,93.7,59.2,95.1,59.6,96.5z"/>
		<path class="st4" d="M68.9,92.2c0.1,1.5-0.1,2.9-0.5,4.3c-0.6,1-1.1,2-2.1,2.7c-1.5,1-3.5,0.9-4.8-0.2c-0.8-0.7-1.4-1.6-1.8-2.5
			c-0.4-1.4-0.7-2.9-0.5-4.4c1.5-0.3,2.9-0.9,4.2-1.6c0.4-0.2,0.8-0.2,1.3,0C65.9,91.3,67.3,92,68.9,92.2z"/>
		<path class="st5" d="M38.2,53.4c-1.2,0-2.1-0.9-1.9-2c0.1-0.9,0.6-1.7,1.2-2.3c1.8-2,4.1-3.4,6.5-4.6c0.9-0.4,1.9,0,2.3,0.8
			c0.4,0.8,0.1,1.8-0.8,2.3c-1.5,0.9-3.1,1.7-4.4,2.8c-0.6,0.5-1.1,1-1.4,1.8C39.4,53.1,38.8,53.4,38.2,53.4z"/>
		<path class="st5" d="M90.3,50.9c0,0.9-0.6,1.7-1.3,1.8c-0.8,0.2-1.7-0.1-2-0.9c-0.4-1.2-1.3-1.8-2.2-2.5c-1.1-0.8-2.3-1.5-3.6-2.2
			c-0.8-0.4-1.1-1.1-1-1.9c0.2-1.1,1.4-1.9,2.5-1.3c2.4,1.2,4.7,2.6,6.5,4.6C89.9,49.2,90.3,50,90.3,50.9z"/>
		<path class="st6" d="M48.3,57.7c-2,0-3.5-0.4-4.8-1.3c-0.7-0.5-1-1.1-0.5-1.8c1.2-1.8,2.9-3,5.1-3.1c1.7-0.1,3.7,1.8,3.9,3.5
			c0.1,0.7-0.2,1.2-0.7,1.6C50.2,57.5,49.1,57.7,48.3,57.7z M48.2,54.7c0.6,0,0.9-0.3,0.9-0.9c0-0.5-0.3-0.8-0.9-0.8
			c-0.6,0-0.9,0.3-0.9,0.9C47.4,54.4,47.7,54.6,48.2,54.7z"/>
		<path class="st6" d="M79.6,57.4c-0.7,0-1.8-0.2-2.7-0.9c-0.9-0.6-1.1-1.5-0.7-2.4c0.9-2,2.9-3.9,5.8-2.4c1.1,0.6,2.1,1.3,2.8,2.3
			c0.6,0.9,0.5,1.5-0.4,2.1C83.1,57,81.6,57.4,79.6,57.4z M79.7,54.7c0.6,0,1-0.3,1-0.9c0-0.5-0.3-0.8-0.8-0.9
			c-0.6,0-0.9,0.3-0.9,0.9C78.9,54.3,79.2,54.6,79.7,54.7z"/>
		<path class="st7" d="M68.9,92.2c-1.6-0.2-3-0.9-4.4-1.6c-0.4-0.2-0.8-0.2-1.3,0c-1.3,0.7-2.7,1.3-4.2,1.6
			c-3.3,0.4-5.8-0.9-7.9-3.2c-0.9-1-0.9-2.3,0-3.1c0.8-0.8,2.2-0.8,3,0c0.2,0.2,0.4,0.5,0.6,0.7c1.6,1.6,3.2,1.9,5.3,0.9
			c1.7-0.8,1.7-0.8,1.7-2.7c0-0.9-0.2-1.4-0.9-1.9c-1.1-0.7-2-1.7-2.6-2.9c-0.9-1.5-0.6-2.8,0.9-3.7c3-1.9,6.4-1.8,9.4,0
			c1.5,0.9,1.8,2.2,1,3.7c-0.7,1.3-1.7,2.3-2.9,3.1c-0.4,0.3-0.7,0.6-0.6,1.2c0,0,0,0.1,0,0.1c0.1,0.8-0.3,1.8,0.1,2.2
			c0.8,0.7,2,1.2,3.1,1.4c1.7,0.3,3-0.5,4-1.7c1-1.1,2.2-1.3,3.2-0.5c1,0.8,1,2.1,0.1,3.2C74.6,91.3,72.1,92.6,68.9,92.2z"/>
		<path class="st5" d="M48.2,54.7c-0.5-0.1-0.8-0.3-0.8-0.8c0-0.6,0.3-0.9,0.9-0.9c0.5,0,0.9,0.3,0.9,0.8
			C49.1,54.3,48.8,54.7,48.2,54.7z"/>
		<path class="st5" d="M79.7,54.7c-0.5,0-0.8-0.3-0.8-0.9c0-0.6,0.3-0.9,0.9-0.9c0.5,0,0.8,0.4,0.8,0.9
			C80.6,54.3,80.3,54.7,79.7,54.7z"/>
	</g>
</g>
</svg>
