<svg width="194" height="72" viewBox="0 0 194 72" fill="none" xmlns="http://www.w3.org/2000/svg">
<path d="M83.2991 33.2198C83.0277 33.2198 82.7459 33.1102 82.4537 32.891C82.1615 32.6719 81.8954 32.4005 81.6554 32.077C81.4153 31.7535 81.2171 31.4143 81.0605 31.0595C80.9039 30.7046 80.8257 30.3811 80.8257 30.0889V27.1772H87.4005V27.8347C87.4005 27.9599 87.4475 28.0852 87.5414 28.2104C87.6353 28.3356 87.7345 28.3983 87.8388 28.3983H94.5076L82.1407 24.3907C81.8693 24.2238 81.6032 24.015 81.3423 23.7646C81.0814 23.5141 80.9092 23.2323 80.8257 22.9192V19.1309C80.8257 18.8595 80.9039 18.5412 81.0605 18.176C81.2171 17.8107 81.4153 17.4663 81.6554 17.1428C81.8954 16.8193 82.1615 16.5479 82.4537 16.3288C82.7459 16.1096 83.0277 16 83.2991 16H99.016C99.2874 16 99.5691 16.1096 99.8613 16.3288C100.154 16.5479 100.42 16.8193 100.66 17.1428C100.9 17.4663 101.098 17.8107 101.255 18.176C101.411 18.5412 101.489 18.8595 101.489 19.1309V22.0426H94.9146V21.3851C94.9146 21.2599 94.8676 21.1346 94.7737 21.0093C94.6798 20.8841 94.5806 20.8215 94.4762 20.8215H87.8075L100.174 24.8291C100.508 25.0378 100.79 25.2569 101.02 25.4865C101.249 25.7161 101.406 25.9875 101.489 26.3006V30.0889C101.489 30.3811 101.411 30.7046 101.255 31.0595C101.098 31.4143 100.9 31.7535 100.66 32.077C100.42 32.4005 100.154 32.6719 99.8613 32.891C99.5691 33.1102 99.2874 33.2198 99.016 33.2198H83.2991ZM122.153 28.8052H111.258V23.9837H117.613C117.718 23.9837 117.812 23.9316 117.895 23.8272C117.979 23.7228 118.031 23.608 118.052 23.4828V21.4164C118.052 21.2912 118.005 21.166 117.911 21.0407C117.817 20.9154 117.718 20.8528 117.613 20.8528H109.755V33.2198C109.734 33.3242 109.588 33.5015 109.317 33.752C109.045 34.0025 108.706 34.279 108.299 34.5817C107.892 34.8843 107.443 35.2026 106.953 35.5366C106.462 35.8706 105.977 36.1732 105.497 36.4446C105.017 36.7159 104.568 36.9403 104.151 37.1177C103.733 37.2951 103.41 37.3838 103.18 37.3838V16H122.153C122.424 16 122.706 16.1096 122.998 16.3288C123.291 16.5479 123.557 16.8193 123.797 17.1428C124.037 17.4663 124.235 17.8107 124.392 18.176C124.548 18.5412 124.626 18.8595 124.626 19.1309V25.6744C124.626 25.9666 124.548 26.2901 124.392 26.6449C124.235 26.9998 124.037 27.339 123.797 27.6625C123.557 27.986 123.291 28.2573 122.998 28.4765C122.706 28.6957 122.424 28.8052 122.153 28.8052ZM140.437 33.2198L139.435 31.1534H131.546L130.544 33.2198H123.625L130.325 19.4127C130.283 19.35 130.147 19.1987 129.918 18.9587C129.688 18.7186 129.427 18.4264 129.135 18.082C128.843 17.7376 128.566 17.3828 128.305 17.0176C128.044 16.6523 127.872 16.3131 127.789 16H138.997L147.357 33.2198H140.437ZM135.491 22.794L133.8 26.3319H137.15L135.491 22.794ZM167.832 33.2198C168.104 33.2198 168.386 33.1102 168.678 32.891C168.97 32.6719 169.236 32.4005 169.476 32.077C169.716 31.7535 169.914 31.4143 170.071 31.0595C170.228 30.7046 170.306 30.3811 170.306 30.0889V26.6136H163.731V27.8034C163.731 27.9286 163.684 28.0539 163.59 28.1791C163.496 28.3043 163.397 28.367 163.293 28.367H155.873C155.747 28.367 155.643 28.3043 155.56 28.1791C155.476 28.0539 155.434 27.9286 155.434 27.8034V21.4164C155.434 21.312 155.481 21.192 155.575 21.0563C155.669 20.9207 155.768 20.8528 155.873 20.8528H163.293C163.397 20.8528 163.496 20.9154 163.59 21.0407C163.684 21.166 163.731 21.2912 163.731 21.4164V22.6061H170.306V19.1309C170.306 18.8595 170.228 18.5412 170.071 18.176C169.914 17.8107 169.716 17.4663 169.476 17.1428C169.236 16.8193 168.97 16.5479 168.678 16.3288C168.386 16.1096 168.104 16 167.832 16H151.333C151.061 16 150.78 16.1096 150.487 16.3288C150.195 16.5479 149.929 16.8193 149.689 17.1428C149.449 17.4663 149.251 17.8107 149.094 18.176C148.938 18.5412 148.859 18.8595 148.859 19.1309V30.0889C148.859 30.3811 148.938 30.7046 149.094 31.0595C149.251 31.4143 149.449 31.7535 149.689 32.077C149.929 32.4005 150.195 32.6719 150.487 32.891C150.78 33.1102 151.061 33.2198 151.333 33.2198H167.832ZM173.812 33.2198V19.35C173.75 19.2666 173.599 19.0996 173.358 18.8491C173.118 18.5986 172.863 18.3116 172.591 17.9881C172.32 17.6646 172.059 17.3254 171.809 16.9706C171.558 16.6157 171.391 16.2922 171.308 16H193.756V20.8528H180.45V22.1991H190.5V27.0207H180.45V28.367H193.756V33.2198H173.812Z" fill="url(#paint0_linear_2953_4918)"/>
<path d="M99.7814 57.0851C100.054 57.0851 100.336 56.9752 100.629 56.7553C100.922 56.5355 101.189 56.2633 101.43 55.9387C101.671 55.6142 101.87 55.274 102.027 54.9181C102.184 54.5622 102.262 54.2377 102.262 53.9445V50.4586H95.6674V51.652C95.6674 51.7776 95.6202 51.9032 95.526 52.0288C95.4318 52.1545 95.3323 52.2173 95.2277 52.2173H87.7847C87.6591 52.2173 87.5544 52.1545 87.4706 52.0288C87.3869 51.9032 87.345 51.7776 87.345 51.652V45.2454C87.345 45.1406 87.3921 45.0203 87.4863 44.8842C87.5806 44.7481 87.68 44.6801 87.7847 44.6801H95.2277C95.3323 44.6801 95.4318 44.7429 95.526 44.8685C95.6202 44.9941 95.6674 45.1197 95.6674 45.2454V46.4388H102.262V42.9527C102.262 42.6806 102.184 42.3613 102.027 41.9949C101.87 41.6285 101.671 41.2831 101.43 40.9585C101.189 40.6341 100.922 40.3619 100.629 40.142C100.336 39.9222 100.054 39.8123 99.7814 39.8123H83.2309C82.9588 39.8123 82.6762 39.9222 82.383 40.142C82.0899 40.3619 81.823 40.6341 81.5822 40.9585C81.3414 41.2831 81.1425 41.6285 80.9855 41.9949C80.8285 42.3613 80.75 42.6806 80.75 42.9527V53.9445C80.75 54.2377 80.8285 54.5622 80.9855 54.9181C81.1425 55.274 81.3414 55.6142 81.5822 55.9387C81.823 56.2633 82.0899 56.5355 82.383 56.7553C82.6762 56.9752 82.9588 57.0851 83.2309 57.0851H99.7814ZM120.069 57.0851L119.064 55.0124H111.15L110.145 57.0851H103.205L109.925 43.2354C109.883 43.1726 109.747 43.0208 109.517 42.78C109.287 42.5393 109.025 42.2462 108.732 41.9007C108.439 41.5552 108.161 41.1994 107.9 40.833C107.638 40.4666 107.465 40.1263 107.381 39.8123H118.624L127.01 57.0851H120.069ZM115.107 46.6271L113.411 50.176H116.772L115.107 46.6271ZM131.281 61.2619V44.6801H123.806V39.8123H145.35V44.6801H137.876V57.0851C137.855 57.1897 137.708 57.3677 137.436 57.6189C137.164 57.8702 136.824 58.1476 136.415 58.4512C136.007 58.7548 135.557 59.074 135.065 59.4091C134.573 59.744 134.086 60.0476 133.605 60.3198C133.123 60.592 132.673 60.817 132.254 60.995C131.836 61.173 131.511 61.2619 131.281 61.2619ZM166.078 57.0851C166.35 57.0851 166.632 56.9752 166.925 56.7553C167.219 56.5355 167.486 56.2633 167.726 55.9387C167.967 55.6142 168.166 55.274 168.323 54.9181C168.48 54.5622 168.559 54.2377 168.559 53.9445V50.4586H161.964V51.652C161.964 51.7776 161.916 51.9032 161.822 52.0288C161.728 52.1545 161.628 52.2173 161.524 52.2173H154.081C153.955 52.2173 153.85 52.1545 153.767 52.0288C153.683 51.9032 153.641 51.7776 153.641 51.652V45.2454C153.641 45.1406 153.688 45.0203 153.782 44.8842C153.877 44.7481 153.976 44.6801 154.081 44.6801H161.524C161.628 44.6801 161.728 44.7429 161.822 44.8685C161.916 44.9941 161.964 45.1197 161.964 45.2454V46.4388H168.559V42.9527C168.559 42.6806 168.48 42.3613 168.323 41.9949C168.166 41.6285 167.967 41.2831 167.726 40.9585C167.486 40.6341 167.219 40.3619 166.925 40.142C166.632 39.9222 166.35 39.8123 166.078 39.8123H149.527C149.255 39.8123 148.972 39.9222 148.679 40.142C148.386 40.3619 148.119 40.6341 147.878 40.9585C147.638 41.2831 147.439 41.6285 147.282 41.9949C147.125 42.3613 147.046 42.6806 147.046 42.9527V53.9445C147.046 54.2377 147.125 54.5622 147.282 54.9181C147.439 55.274 147.638 55.6142 147.878 55.9387C148.119 56.2633 148.386 56.5355 148.679 56.7553C148.972 56.9752 149.255 57.0851 149.527 57.0851H166.078ZM178.828 57.0851H172.233V43.1726C172.17 43.0888 172.018 42.9214 171.778 42.6702C171.537 42.4189 171.28 42.131 171.008 41.8065C170.736 41.4819 170.474 41.1418 170.223 40.7858C169.972 40.4299 169.804 40.1054 169.72 39.8123H178.828V45.9991H187.15V39.8123H193.745V57.0851H187.15V50.8983H178.828V57.0851Z" fill="url(#paint1_linear_2953_4918)"/>
<path d="M12.8331 58.9449C9.38539 58.9088 7.66163 58.8907 7.66163 58.8907C12.9224 64.9896 18.9214 68.9204 25.6587 70.6831C33.6147 72.8102 41.314 72.3605 48.7564 69.3341C53.9747 67.2726 58.6759 63.7763 62.8601 58.8456C59.6143 58.7759 57.9914 58.7412 57.9914 58.7412C55.4353 61.3117 52.4807 63.5248 49.2175 65.0635C41.2459 68.8219 31.7813 69.3635 23.7151 66.1348C19.7059 64.5299 15.9259 62.2393 12.8331 58.9449Z" fill="url(#paint2_linear_2953_4918)"/>
<path d="M27.2981 5.82667C29.0532 2.85897 29.9307 1.37519 29.9307 1.37519C22.0185 2.88168 15.6149 6.11162 10.7197 11.0649C4.89961 16.8915 1.43935 23.7841 0.339135 31.7427C-0.484741 37.2926 0.192524 43.112 2.37059 49.201C4.05384 46.4249 4.89537 45.0368 4.89537 45.0368C3.94729 41.5379 3.50794 37.8725 3.80701 34.2772C4.53794 25.4944 8.80113 17.0271 15.6305 11.6559C19.0249 8.98624 22.8987 6.85797 27.2981 5.82667Z" fill="url(#paint3_linear_2953_4918)"/>
<path d="M43.7278 5.82667C41.9727 2.85897 41.0951 1.37519 41.0951 1.37519C49.0073 2.88168 55.411 6.11162 60.3062 11.0649C66.1263 16.8915 69.5865 23.7841 70.6867 31.7427C71.5106 37.2926 70.8334 43.112 68.6553 49.201C66.972 46.4249 66.1305 45.0368 66.1305 45.0368C67.0786 41.5379 67.5179 37.8725 67.2189 34.2772C66.4879 25.4944 62.2248 17.0271 55.3954 11.6559C52.001 8.98624 48.1272 6.85797 43.7278 5.82667Z" fill="url(#paint4_linear_2953_4918)"/>
<path d="M38.8754 5.55307C36.5683 2.14929 35.191 0 35.191 0C14.864 35.3427 4.70053 53.014 4.70053 53.014C8.13557 54.9616 9.85314 55.9354 9.85314 55.9354C29.0522 22.049 38.8754 5.55307 38.8754 5.55307Z" fill="url(#paint5_linear_2953_4918)"/>
<path d="M47.8811 22.2654C42.6344 13.2937 40.011 8.80783 40.011 8.80783C21.5244 40.5312 12.2811 56.3929 12.2811 56.3929C18.6104 52.9437 21.775 51.2191 21.775 51.2191C33.999 30.7778 40.111 20.5571 40.111 20.5571C40.8659 21.8084 41.2434 22.4342 41.2434 22.4342C31.4931 39.5348 26.6178 48.085 26.6178 48.085C32.8806 44.4474 36.0119 42.6286 36.0119 42.6286C43.9248 29.0531 47.8811 22.2654 47.8811 22.2654Z" fill="url(#paint6_linear_2953_4918)"/>
<path d="M37.8703 44.3912C41.0771 46.3853 42.7363 47.3423 42.7363 47.3423C49.0958 35.7648 52.301 29.8982 52.301 29.8982C50.3467 26.6312 49.3174 25.0683 49.3174 25.0683C41.686 37.9502 37.8703 44.3912 37.8703 44.3912Z" fill="url(#paint7_linear_2953_4918)"/>
<path d="M57.6209 49.7754C50.8355 45.9277 47.4428 44.0038 47.4428 44.0038C47.4428 44.0038 46.6154 45.4876 44.9605 48.455C55.3192 54.3586 60.4986 57.3104 60.4986 57.3104C64.3646 54.9718 66.2975 53.8024 66.2975 53.8024C60.9104 44.847 58.2168 40.3692 58.2168 40.3692C54.074 40.511 52.0027 40.582 52.0027 40.582C55.7481 46.7109 57.6209 49.7754 57.6209 49.7754Z" fill="url(#paint8_linear_2953_4918)"/>
<defs>
<linearGradient id="paint0_linear_2953_4918" x1="-274.765" y1="-388.393" x2="-63.4708" y2="-527.34" gradientUnits="userSpaceOnUse">
<stop stop-color="#A15FCB"/>
<stop offset="0.21" stop-color="#7F69E7"/>
<stop offset="0.29" stop-color="#6A73F4"/>
<stop offset="0.38" stop-color="#6378F7"/>
<stop offset="0.47" stop-color="#598AF3"/>
<stop offset="0.58" stop-color="#62A7DE"/>
<stop offset="0.73" stop-color="#76C0C3"/>
</linearGradient>
<linearGradient id="paint1_linear_2953_4918" x1="-274.765" y1="-388.393" x2="-63.4708" y2="-527.34" gradientUnits="userSpaceOnUse">
<stop stop-color="#A15FCB"/>
<stop offset="0.21" stop-color="#7F69E7"/>
<stop offset="0.29" stop-color="#6A73F4"/>
<stop offset="0.38" stop-color="#6378F7"/>
<stop offset="0.47" stop-color="#598AF3"/>
<stop offset="0.58" stop-color="#62A7DE"/>
<stop offset="0.73" stop-color="#76C0C3"/>
</linearGradient>
<linearGradient id="paint2_linear_2953_4918" x1="-100.795" y1="-388.393" x2="4.10145" y2="-413.69" gradientUnits="userSpaceOnUse">
<stop stop-color="#A15FCB"/>
<stop offset="0.21" stop-color="#7F69E7"/>
<stop offset="0.29" stop-color="#6A73F4"/>
<stop offset="0.38" stop-color="#6378F7"/>
<stop offset="0.47" stop-color="#598AF3"/>
<stop offset="0.58" stop-color="#62A7DE"/>
<stop offset="0.73" stop-color="#76C0C3"/>
</linearGradient>
<linearGradient id="paint3_linear_2953_4918" x1="-100.795" y1="-388.393" x2="4.10145" y2="-413.69" gradientUnits="userSpaceOnUse">
<stop stop-color="#A15FCB"/>
<stop offset="0.21" stop-color="#7F69E7"/>
<stop offset="0.29" stop-color="#6A73F4"/>
<stop offset="0.38" stop-color="#6378F7"/>
<stop offset="0.47" stop-color="#598AF3"/>
<stop offset="0.58" stop-color="#62A7DE"/>
<stop offset="0.73" stop-color="#76C0C3"/>
</linearGradient>
<linearGradient id="paint4_linear_2953_4918" x1="-100.795" y1="-388.393" x2="4.10145" y2="-413.69" gradientUnits="userSpaceOnUse">
<stop stop-color="#A15FCB"/>
<stop offset="0.21" stop-color="#7F69E7"/>
<stop offset="0.29" stop-color="#6A73F4"/>
<stop offset="0.38" stop-color="#6378F7"/>
<stop offset="0.47" stop-color="#598AF3"/>
<stop offset="0.58" stop-color="#62A7DE"/>
<stop offset="0.73" stop-color="#76C0C3"/>
</linearGradient>
<linearGradient id="paint5_linear_2953_4918" x1="-100.795" y1="-388.393" x2="4.10145" y2="-413.69" gradientUnits="userSpaceOnUse">
<stop stop-color="#A15FCB"/>
<stop offset="0.21" stop-color="#7F69E7"/>
<stop offset="0.29" stop-color="#6A73F4"/>
<stop offset="0.38" stop-color="#6378F7"/>
<stop offset="0.47" stop-color="#598AF3"/>
<stop offset="0.58" stop-color="#62A7DE"/>
<stop offset="0.73" stop-color="#76C0C3"/>
</linearGradient>
<linearGradient id="paint6_linear_2953_4918" x1="-100.795" y1="-388.393" x2="4.10145" y2="-413.69" gradientUnits="userSpaceOnUse">
<stop stop-color="#A15FCB"/>
<stop offset="0.21" stop-color="#7F69E7"/>
<stop offset="0.29" stop-color="#6A73F4"/>
<stop offset="0.38" stop-color="#6378F7"/>
<stop offset="0.47" stop-color="#598AF3"/>
<stop offset="0.58" stop-color="#62A7DE"/>
<stop offset="0.73" stop-color="#76C0C3"/>
</linearGradient>
<linearGradient id="paint7_linear_2953_4918" x1="-100.795" y1="-388.393" x2="4.10145" y2="-413.69" gradientUnits="userSpaceOnUse">
<stop stop-color="#A15FCB"/>
<stop offset="0.21" stop-color="#7F69E7"/>
<stop offset="0.29" stop-color="#6A73F4"/>
<stop offset="0.38" stop-color="#6378F7"/>
<stop offset="0.47" stop-color="#598AF3"/>
<stop offset="0.58" stop-color="#62A7DE"/>
<stop offset="0.73" stop-color="#76C0C3"/>
</linearGradient>
<linearGradient id="paint8_linear_2953_4918" x1="-100.795" y1="-388.393" x2="4.10145" y2="-413.69" gradientUnits="userSpaceOnUse">
<stop stop-color="#A15FCB"/>
<stop offset="0.21" stop-color="#7F69E7"/>
<stop offset="0.29" stop-color="#6A73F4"/>
<stop offset="0.38" stop-color="#6378F7"/>
<stop offset="0.47" stop-color="#598AF3"/>
<stop offset="0.58" stop-color="#62A7DE"/>
<stop offset="0.73" stop-color="#76C0C3"/>
</linearGradient>
</defs>
</svg>
